M48
; DRILL file {KiCad 9.0.9} date 2026-06-11T22:12:49-0700
; FORMAT={-:-/ absolute / metric / decimal}
; #@! TF.CreationDate,2026-06-11T22:12:49-07:00
; #@! TF.GenerationSoftware,Kicad,Pcbnew,9.0.9
; #@! TF.FileFunction,Plated,1,4,PTH
FMAT,2
METRIC
; #@! TA.AperFunction,Plated,PTH,ViaDrill
T1C0.300
; #@! TA.AperFunction,Plated,PTH,ComponentDrill
T2C0.800
; #@! TA.AperFunction,Plated,PTH,ComponentDrill
T3C0.920
; #@! TA.AperFunction,Plated,PTH,ComponentDrill
T4C1.000
; #@! TA.AperFunction,Plated,PTH,ComponentDrill
T5C1.300
; #@! TA.AperFunction,Plated,PTH,ComponentDrill
T6C3.200
%
G90
G05
T1
X69.023Y-37.564
X69.023Y-40.104
X69.023Y-108.684
X71.563Y-37.564
X71.563Y-65.504
X71.563Y-68.044
X71.563Y-70.584
X71.563Y-73.124
X71.563Y-75.664
X71.563Y-108.684
X74.103Y-37.564
X74.103Y-65.504
X74.103Y-68.044
X74.103Y-70.584
X74.103Y-73.124
X74.103Y-75.664
X74.103Y-78.204
X74.103Y-80.744
X74.103Y-108.684
X76.643Y-37.564
X76.643Y-40.104
X76.643Y-42.644
X76.643Y-65.504
X76.643Y-68.044
X76.643Y-70.584
X76.643Y-73.124
X76.643Y-75.664
X76.643Y-78.204
X76.643Y-80.744
X76.643Y-83.284
X76.643Y-88.364
X76.643Y-106.144
X76.643Y-108.684
X79.183Y-37.564
X79.183Y-40.104
X79.183Y-42.644
X79.183Y-106.144
X79.183Y-108.684
X81.723Y-37.564
X81.723Y-40.104
X81.723Y-42.644
X81.723Y-106.144
X81.723Y-108.684
X83.456Y-76.744
X84.263Y-37.564
X84.263Y-40.104
X84.263Y-42.644
X84.263Y-80.744
X84.263Y-83.284
X84.263Y-106.144
X84.263Y-108.684
X85.2Y-73.45
X86.803Y-37.564
X86.803Y-40.104
X86.803Y-42.644
X86.803Y-106.144
X86.803Y-108.684
X89.343Y-37.564
X89.343Y-40.104
X89.343Y-42.644
X89.343Y-106.144
X89.343Y-108.684
X91.883Y-37.564
X91.883Y-40.104
X91.883Y-42.644
X91.883Y-70.584
X91.883Y-73.124
X91.883Y-106.144
X91.883Y-108.684
X93.4Y-87.2
X94.2Y-89.15
X94.423Y-37.564
X94.423Y-40.104
X94.423Y-42.644
X94.423Y-65.504
X94.423Y-68.044
X94.423Y-70.584
X94.423Y-73.124
X94.423Y-75.664
X94.423Y-78.204
X94.423Y-80.744
X94.423Y-106.144
X94.423Y-108.684
X94.6Y-88.25
X95.7Y-89.25
X96.963Y-37.564
X96.963Y-40.104
X96.963Y-42.644
X96.963Y-106.144
X96.963Y-108.684
X97.25Y-89.25
X99.503Y-37.564
X99.503Y-40.104
X99.503Y-42.644
X99.503Y-78.204
X99.503Y-80.744
X99.503Y-106.144
X99.503Y-108.684
X102.043Y-37.564
X102.043Y-40.104
X102.043Y-42.644
X102.043Y-65.504
X102.043Y-68.044
X102.043Y-70.584
X102.043Y-73.124
X102.043Y-80.744
X102.043Y-83.284
X102.043Y-106.144
X102.043Y-108.684
X104.583Y-37.564
X104.583Y-40.104
X104.583Y-42.644
X104.583Y-65.504
X104.583Y-68.044
X104.583Y-70.584
X104.583Y-106.144
X104.583Y-108.684
X106.0Y-88.7
X106.35Y-82.05
X107.0Y-89.45
X107.123Y-37.564
X107.123Y-40.104
X107.123Y-42.644
X107.123Y-65.504
X107.123Y-68.044
X107.123Y-70.584
X107.123Y-73.124
X107.123Y-75.664
X107.123Y-78.204
X107.123Y-106.144
X107.123Y-108.684
X107.85Y-90.25
X108.8Y-82.95
X109.663Y-37.564
X109.663Y-40.104
X109.663Y-42.644
X109.663Y-65.504
X109.663Y-68.044
X109.663Y-70.584
X109.663Y-73.124
X109.663Y-75.664
X109.663Y-78.204
X109.663Y-95.984
X109.663Y-98.524
X109.663Y-101.064
X109.663Y-103.604
X109.663Y-106.144
X109.663Y-108.684
X112.203Y-37.564
X112.203Y-40.104
X112.203Y-65.504
X112.203Y-68.044
X112.203Y-70.584
X112.203Y-73.124
X112.203Y-75.664
X112.203Y-83.284
X112.203Y-95.984
X112.203Y-98.524
X112.203Y-101.064
X112.203Y-103.604
X112.203Y-106.144
X112.203Y-108.684
X114.743Y-37.564
X114.743Y-40.104
X114.743Y-65.504
X114.743Y-68.044
X114.743Y-70.584
X114.743Y-73.124
X114.743Y-103.604
X114.743Y-106.144
X114.743Y-108.684
X117.283Y-37.564
X117.283Y-40.104
X117.283Y-65.504
X117.283Y-68.044
X117.283Y-70.584
X117.283Y-103.604
X117.283Y-106.144
X117.283Y-108.684
X118.35Y-72.75
X118.5Y-81.8
X119.8Y-74.4
X119.823Y-37.564
X119.823Y-40.104
X119.823Y-65.504
X119.823Y-68.044
X119.823Y-103.604
X119.823Y-106.144
X119.823Y-108.684
X121.55Y-67.6
X121.7Y-71.25
X122.363Y-37.564
X122.363Y-40.104
X122.363Y-80.744
X122.363Y-103.604
X122.363Y-106.144
X122.363Y-108.684
X124.903Y-37.564
X124.903Y-40.104
X124.903Y-78.204
X124.903Y-80.744
X124.903Y-83.284
X124.903Y-103.604
X124.903Y-106.144
X124.903Y-108.684
X127.443Y-37.564
X127.443Y-40.104
X127.443Y-75.664
X127.443Y-78.204
X127.443Y-80.744
X127.443Y-83.284
X127.443Y-103.604
X127.443Y-106.144
X127.443Y-108.684
X128.55Y-65.85
X129.983Y-37.564
X129.983Y-40.104
X129.983Y-73.124
X129.983Y-75.664
X129.983Y-78.204
X129.983Y-80.744
X129.983Y-83.284
X129.983Y-103.604
X129.983Y-106.144
X129.983Y-108.684
X131.376Y-49.024
X132.523Y-37.564
X132.523Y-40.104
X132.523Y-80.744
X132.523Y-83.284
X132.523Y-103.604
X132.523Y-106.144
X132.523Y-108.684
X135.063Y-37.564
X135.063Y-40.104
X135.063Y-45.184
X135.063Y-47.724
X135.063Y-103.604
X135.063Y-106.144
X135.063Y-108.684
X136.85Y-51.75
X137.603Y-37.564
X137.603Y-40.104
X137.603Y-45.184
X137.603Y-47.724
X137.603Y-103.604
X137.603Y-106.144
X137.603Y-108.684
X140.143Y-37.564
X140.143Y-42.644
X140.143Y-45.184
X140.143Y-47.724
X140.143Y-103.604
X140.143Y-106.144
X140.143Y-108.684
X141.224Y-60.05
X142.683Y-37.564
X142.683Y-42.644
X142.683Y-45.184
X142.683Y-47.724
X142.683Y-103.604
X142.683Y-106.144
X142.683Y-108.684
X143.45Y-57.15
X145.223Y-37.564
X145.223Y-42.644
X145.223Y-45.184
X145.223Y-47.724
X145.223Y-103.604
X145.223Y-106.144
X145.223Y-108.684
X145.9Y-53.3
X147.25Y-57.25
X147.763Y-37.564
X147.763Y-42.644
X147.763Y-45.184
X147.763Y-47.724
X147.763Y-52.804
X147.763Y-103.604
X147.763Y-106.144
X147.763Y-108.684
X147.78Y-66.93
X150.15Y-52.8
X150.303Y-37.564
X150.303Y-42.644
X150.303Y-45.184
X150.303Y-47.724
X150.303Y-103.604
X150.303Y-106.144
X150.303Y-108.684
X152.843Y-37.564
X152.843Y-103.604
X152.843Y-106.144
X152.843Y-108.684
X155.383Y-37.564
X155.383Y-40.104
X155.383Y-42.644
X155.383Y-45.184
X155.383Y-47.724
X155.383Y-50.264
X155.383Y-52.804
X155.383Y-55.344
X155.383Y-90.904
X155.383Y-93.444
X155.383Y-95.984
X155.383Y-98.524
X155.383Y-101.064
X155.383Y-103.604
X155.383Y-106.144
X155.383Y-108.684
X157.923Y-37.564
X157.923Y-40.104
X157.923Y-47.724
X157.923Y-50.264
X157.923Y-52.804
X157.923Y-55.344
X157.923Y-90.904
X157.923Y-93.444
X157.923Y-95.984
X157.923Y-98.524
X157.923Y-108.684
X160.463Y-37.564
X160.463Y-47.724
X160.463Y-50.264
X160.463Y-52.804
X160.463Y-55.344
X160.463Y-57.884
X160.463Y-80.744
X160.463Y-83.284
X160.463Y-85.824
X160.463Y-88.364
X160.463Y-90.904
X160.463Y-93.444
X160.463Y-95.984
X160.463Y-98.524
X160.463Y-108.684
X163.003Y-37.564
X163.003Y-47.724
X163.003Y-50.264
X163.003Y-52.804
X163.003Y-55.344
X163.003Y-57.884
X163.003Y-60.424
X163.003Y-62.964
X163.003Y-65.504
X163.003Y-68.044
X163.003Y-70.584
X163.003Y-73.124
X163.003Y-75.664
X163.003Y-78.204
X163.003Y-80.744
X163.003Y-83.284
X163.003Y-85.824
X163.003Y-88.364
X163.003Y-90.904
X163.003Y-93.444
X163.003Y-95.984
X163.003Y-98.524
X163.003Y-108.684
T2
X71.713Y-60.196
X71.713Y-62.736
X71.713Y-85.596
X74.253Y-60.196
X74.253Y-62.736
X74.253Y-85.596
X76.793Y-60.196
X76.793Y-62.736
X76.793Y-85.596
X79.333Y-60.196
X79.333Y-62.736
X79.333Y-85.596
X81.873Y-60.196
X81.873Y-62.736
X81.873Y-85.596
X84.413Y-60.196
X84.413Y-62.736
X84.413Y-85.596
X86.953Y-60.196
X86.953Y-62.736
X86.953Y-85.596
X89.493Y-60.196
X89.493Y-62.736
X89.493Y-85.596
X92.033Y-60.196
X92.033Y-62.736
X92.033Y-85.596
X94.573Y-60.196
X94.573Y-62.736
X94.573Y-85.596
X97.113Y-60.196
X97.113Y-62.736
X97.113Y-85.596
X99.653Y-60.196
X99.653Y-62.736
X99.653Y-85.596
X102.193Y-60.196
X102.193Y-62.736
X102.193Y-85.596
X104.733Y-60.196
X104.733Y-62.736
X104.733Y-85.596
X107.273Y-60.196
X107.273Y-62.736
X107.273Y-85.596
X109.813Y-60.196
X109.813Y-62.736
X109.813Y-85.596
X112.353Y-60.196
X112.353Y-62.736
X112.353Y-85.596
X114.893Y-60.196
X114.893Y-62.736
X114.893Y-85.596
X117.433Y-60.196
X117.433Y-62.736
X117.433Y-85.596
X119.97Y-85.6
X119.973Y-60.196
X119.973Y-62.736
X122.51Y-85.6
X122.513Y-60.196
X122.513Y-62.736
X125.05Y-85.6
X125.053Y-60.196
X125.053Y-62.736
T3
X138.66Y-64.05
X138.66Y-86.05
X140.66Y-64.05
X140.66Y-86.05
X142.66Y-64.05
X142.66Y-86.05
X144.66Y-64.05
X144.66Y-86.05
X146.66Y-64.05
X146.66Y-86.05
X148.66Y-64.05
X148.66Y-86.05
X150.66Y-64.05
X150.66Y-86.05
X152.66Y-64.05
X152.66Y-86.05
X154.66Y-64.05
X154.66Y-86.05
X156.66Y-64.05
X156.66Y-86.05
T4
X78.7Y-92.11
X78.7Y-94.65
X78.7Y-97.19
X78.87Y-46.35
X78.87Y-48.89
X78.87Y-51.43
X78.87Y-53.97
X82.6Y-92.11
X82.6Y-94.65
X82.6Y-97.19
X82.8Y-46.34
X82.8Y-48.88
X82.8Y-51.42
X82.8Y-53.96
X86.73Y-46.34
X86.73Y-48.88
X86.73Y-51.42
X86.73Y-53.96
X93.25Y-92.13
X93.25Y-94.67
X93.25Y-97.21
X93.61Y-46.3
X93.61Y-48.84
X93.61Y-51.38
X93.61Y-53.92
X97.25Y-92.13
X97.25Y-94.67
X97.25Y-97.21
X101.2Y-92.13
X101.2Y-94.67
X101.2Y-97.21
X105.05Y-47.3
X105.05Y-49.84
X105.05Y-52.38
X105.1Y-92.13
X105.1Y-94.67
X105.1Y-97.21
X117.3Y-92.2
X117.3Y-94.74
X117.3Y-97.28
X121.24Y-92.22
X121.24Y-94.76
X121.24Y-97.3
X124.29Y-42.2
X124.29Y-44.74
X124.29Y-47.28
X124.29Y-49.82
X124.29Y-52.36
X124.29Y-54.9
X125.27Y-92.2
X125.27Y-94.74
X125.27Y-97.28
X129.21Y-92.21
X129.21Y-94.75
X129.21Y-97.29
T5
X144.305Y-97.022
X149.385Y-97.022
T6
X71.9Y-43.35
X71.9Y-103.6
X160.95Y-43.35
X160.95Y-103.6
M30
