%TF.GenerationSoftware,KiCad,Pcbnew,9.0.9*%
%TF.CreationDate,2026-06-11T21:59:21-07:00*%
%TF.ProjectId,AmidalaShield,416d6964-616c-4615-9368-69656c642e6b,rev?*%
%TF.SameCoordinates,Original*%
%TF.FileFunction,Plated,1,4,PTH,Drill*%
%TF.FilePolarity,Positive*%
%FSLAX46Y46*%
G04 Gerber Fmt 4.6, Leading zero omitted, Abs format (unit mm)*
G04 Created by KiCad (PCBNEW 9.0.9) date 2026-06-11 21:59:21*
%MOMM*%
%LPD*%
G01*
G04 APERTURE LIST*
%TA.AperFunction,ViaDrill*%
%ADD10C,0.300000*%
%TD*%
%TA.AperFunction,ComponentDrill*%
%ADD11C,0.800000*%
%TD*%
%TA.AperFunction,ComponentDrill*%
%ADD12C,0.920000*%
%TD*%
%TA.AperFunction,ComponentDrill*%
%ADD13C,1.000000*%
%TD*%
%TA.AperFunction,ComponentDrill*%
%ADD14C,1.300000*%
%TD*%
%TA.AperFunction,ComponentDrill*%
%ADD15C,3.200000*%
%TD*%
G04 APERTURE END LIST*
D10*
X69022618Y-37563897D03*
X69022618Y-40103897D03*
X69022618Y-108683897D03*
X71562618Y-37563897D03*
X71562618Y-65503897D03*
X71562618Y-68043897D03*
X71562618Y-70583897D03*
X71562618Y-73123897D03*
X71562618Y-75663897D03*
X71562618Y-108683897D03*
X74102618Y-37563897D03*
X74102618Y-65503897D03*
X74102618Y-68043897D03*
X74102618Y-70583897D03*
X74102618Y-73123897D03*
X74102618Y-75663897D03*
X74102618Y-78203897D03*
X74102618Y-80743897D03*
X74102618Y-108683897D03*
X76642618Y-37563897D03*
X76642618Y-40103897D03*
X76642618Y-42643897D03*
X76642618Y-65503897D03*
X76642618Y-68043897D03*
X76642618Y-70583897D03*
X76642618Y-73123897D03*
X76642618Y-75663897D03*
X76642618Y-78203897D03*
X76642618Y-80743897D03*
X76642618Y-83283897D03*
X76642618Y-88363897D03*
X76642618Y-106143897D03*
X76642618Y-108683897D03*
X79182618Y-37563897D03*
X79182618Y-40103897D03*
X79182618Y-42643897D03*
X79182618Y-106143897D03*
X79182618Y-108683897D03*
X81722618Y-37563897D03*
X81722618Y-40103897D03*
X81722618Y-42643897D03*
X81722618Y-106143897D03*
X81722618Y-108683897D03*
X83455735Y-76744264D03*
X84262618Y-37563897D03*
X84262618Y-40103897D03*
X84262618Y-42643897D03*
X84262618Y-80743897D03*
X84262618Y-83283897D03*
X84262618Y-106143897D03*
X84262618Y-108683897D03*
X85200000Y-73450000D03*
X86802618Y-37563897D03*
X86802618Y-40103897D03*
X86802618Y-42643897D03*
X86802618Y-106143897D03*
X86802618Y-108683897D03*
X89342618Y-37563897D03*
X89342618Y-40103897D03*
X89342618Y-42643897D03*
X89342618Y-106143897D03*
X89342618Y-108683897D03*
X91882618Y-37563897D03*
X91882618Y-40103897D03*
X91882618Y-42643897D03*
X91882618Y-70583897D03*
X91882618Y-73123897D03*
X91882618Y-106143897D03*
X91882618Y-108683897D03*
X93400000Y-87200000D03*
X94200000Y-89150000D03*
X94422618Y-37563897D03*
X94422618Y-40103897D03*
X94422618Y-42643897D03*
X94422618Y-65503897D03*
X94422618Y-68043897D03*
X94422618Y-70583897D03*
X94422618Y-73123897D03*
X94422618Y-75663897D03*
X94422618Y-78203897D03*
X94422618Y-80743897D03*
X94422618Y-106143897D03*
X94422618Y-108683897D03*
X94600000Y-88250000D03*
X95700000Y-89250000D03*
X96962618Y-37563897D03*
X96962618Y-40103897D03*
X96962618Y-42643897D03*
X96962618Y-106143897D03*
X96962618Y-108683897D03*
X97250000Y-89250000D03*
X99502618Y-37563897D03*
X99502618Y-40103897D03*
X99502618Y-42643897D03*
X99502618Y-78203897D03*
X99502618Y-80743897D03*
X99502618Y-106143897D03*
X99502618Y-108683897D03*
X102042618Y-37563897D03*
X102042618Y-40103897D03*
X102042618Y-42643897D03*
X102042618Y-65503897D03*
X102042618Y-68043897D03*
X102042618Y-70583897D03*
X102042618Y-73123897D03*
X102042618Y-80743897D03*
X102042618Y-83283897D03*
X102042618Y-106143897D03*
X102042618Y-108683897D03*
X104582618Y-37563897D03*
X104582618Y-40103897D03*
X104582618Y-42643897D03*
X104582618Y-65503897D03*
X104582618Y-68043897D03*
X104582618Y-70583897D03*
X104582618Y-106143897D03*
X104582618Y-108683897D03*
X106000000Y-88700000D03*
X106350000Y-82050000D03*
X107000000Y-89450000D03*
X107122618Y-37563897D03*
X107122618Y-40103897D03*
X107122618Y-42643897D03*
X107122618Y-65503897D03*
X107122618Y-68043897D03*
X107122618Y-70583897D03*
X107122618Y-73123897D03*
X107122618Y-75663897D03*
X107122618Y-78203897D03*
X107122618Y-106143897D03*
X107122618Y-108683897D03*
X107850000Y-90250000D03*
X108800000Y-82950000D03*
X109662618Y-37563897D03*
X109662618Y-40103897D03*
X109662618Y-42643897D03*
X109662618Y-65503897D03*
X109662618Y-68043897D03*
X109662618Y-70583897D03*
X109662618Y-73123897D03*
X109662618Y-75663897D03*
X109662618Y-78203897D03*
X109662618Y-95983897D03*
X109662618Y-98523897D03*
X109662618Y-101063897D03*
X109662618Y-103603897D03*
X109662618Y-106143897D03*
X109662618Y-108683897D03*
X112202618Y-37563897D03*
X112202618Y-40103897D03*
X112202618Y-65503897D03*
X112202618Y-68043897D03*
X112202618Y-70583897D03*
X112202618Y-73123897D03*
X112202618Y-75663897D03*
X112202618Y-83283897D03*
X112202618Y-95983897D03*
X112202618Y-98523897D03*
X112202618Y-101063897D03*
X112202618Y-103603897D03*
X112202618Y-106143897D03*
X112202618Y-108683897D03*
X114742618Y-37563897D03*
X114742618Y-40103897D03*
X114742618Y-65503897D03*
X114742618Y-68043897D03*
X114742618Y-70583897D03*
X114742618Y-73123897D03*
X114742618Y-103603897D03*
X114742618Y-106143897D03*
X114742618Y-108683897D03*
X117282618Y-37563897D03*
X117282618Y-40103897D03*
X117282618Y-65503897D03*
X117282618Y-68043897D03*
X117282618Y-70583897D03*
X117282618Y-103603897D03*
X117282618Y-106143897D03*
X117282618Y-108683897D03*
X118350000Y-72750000D03*
X118500000Y-81800000D03*
X119800000Y-74400000D03*
X119822618Y-37563897D03*
X119822618Y-40103897D03*
X119822618Y-65503897D03*
X119822618Y-68043897D03*
X119822618Y-103603897D03*
X119822618Y-106143897D03*
X119822618Y-108683897D03*
X121550000Y-67600000D03*
X121700000Y-71250000D03*
X122362618Y-37563897D03*
X122362618Y-40103897D03*
X122362618Y-80743897D03*
X122362618Y-103603897D03*
X122362618Y-106143897D03*
X122362618Y-108683897D03*
X124902618Y-37563897D03*
X124902618Y-40103897D03*
X124902618Y-78203897D03*
X124902618Y-80743897D03*
X124902618Y-83283897D03*
X124902618Y-103603897D03*
X124902618Y-106143897D03*
X124902618Y-108683897D03*
X127442618Y-37563897D03*
X127442618Y-40103897D03*
X127442618Y-75663897D03*
X127442618Y-78203897D03*
X127442618Y-80743897D03*
X127442618Y-83283897D03*
X127442618Y-103603897D03*
X127442618Y-106143897D03*
X127442618Y-108683897D03*
X128550000Y-65850000D03*
X129982618Y-37563897D03*
X129982618Y-40103897D03*
X129982618Y-73123897D03*
X129982618Y-75663897D03*
X129982618Y-78203897D03*
X129982618Y-80743897D03*
X129982618Y-83283897D03*
X129982618Y-103603897D03*
X129982618Y-106143897D03*
X129982618Y-108683897D03*
X131375735Y-49024265D03*
X132522618Y-37563897D03*
X132522618Y-40103897D03*
X132522618Y-80743897D03*
X132522618Y-83283897D03*
X132522618Y-103603897D03*
X132522618Y-106143897D03*
X132522618Y-108683897D03*
X135062618Y-37563897D03*
X135062618Y-40103897D03*
X135062618Y-45183897D03*
X135062618Y-47723897D03*
X135062618Y-103603897D03*
X135062618Y-106143897D03*
X135062618Y-108683897D03*
X136850000Y-51750000D03*
X137602618Y-37563897D03*
X137602618Y-40103897D03*
X137602618Y-45183897D03*
X137602618Y-47723897D03*
X137602618Y-103603897D03*
X137602618Y-106143897D03*
X137602618Y-108683897D03*
X140142618Y-37563897D03*
X140142618Y-42643897D03*
X140142618Y-45183897D03*
X140142618Y-47723897D03*
X140142618Y-103603897D03*
X140142618Y-106143897D03*
X140142618Y-108683897D03*
X141223866Y-60050000D03*
X142682618Y-37563897D03*
X142682618Y-42643897D03*
X142682618Y-45183897D03*
X142682618Y-47723897D03*
X142682618Y-103603897D03*
X142682618Y-106143897D03*
X142682618Y-108683897D03*
X143450000Y-57150000D03*
X145222618Y-37563897D03*
X145222618Y-42643897D03*
X145222618Y-45183897D03*
X145222618Y-47723897D03*
X145222618Y-103603897D03*
X145222618Y-106143897D03*
X145222618Y-108683897D03*
X145900000Y-53300000D03*
X147250000Y-57250000D03*
X147762618Y-37563897D03*
X147762618Y-42643897D03*
X147762618Y-45183897D03*
X147762618Y-47723897D03*
X147762618Y-52803897D03*
X147762618Y-103603897D03*
X147762618Y-106143897D03*
X147762618Y-108683897D03*
X147780000Y-66930000D03*
X150150000Y-52800000D03*
X150302618Y-37563897D03*
X150302618Y-42643897D03*
X150302618Y-45183897D03*
X150302618Y-47723897D03*
X150302618Y-103603897D03*
X150302618Y-106143897D03*
X150302618Y-108683897D03*
X152842618Y-37563897D03*
X152842618Y-103603897D03*
X152842618Y-106143897D03*
X152842618Y-108683897D03*
X155382618Y-37563897D03*
X155382618Y-40103897D03*
X155382618Y-42643897D03*
X155382618Y-45183897D03*
X155382618Y-47723897D03*
X155382618Y-50263897D03*
X155382618Y-52803897D03*
X155382618Y-55343897D03*
X155382618Y-90903897D03*
X155382618Y-93443897D03*
X155382618Y-95983897D03*
X155382618Y-98523897D03*
X155382618Y-101063897D03*
X155382618Y-103603897D03*
X155382618Y-106143897D03*
X155382618Y-108683897D03*
X157922618Y-37563897D03*
X157922618Y-40103897D03*
X157922618Y-47723897D03*
X157922618Y-50263897D03*
X157922618Y-52803897D03*
X157922618Y-55343897D03*
X157922618Y-90903897D03*
X157922618Y-93443897D03*
X157922618Y-95983897D03*
X157922618Y-98523897D03*
X157922618Y-108683897D03*
X160462618Y-37563897D03*
X160462618Y-47723897D03*
X160462618Y-50263897D03*
X160462618Y-52803897D03*
X160462618Y-55343897D03*
X160462618Y-57883897D03*
X160462618Y-80743897D03*
X160462618Y-83283897D03*
X160462618Y-85823897D03*
X160462618Y-88363897D03*
X160462618Y-90903897D03*
X160462618Y-93443897D03*
X160462618Y-95983897D03*
X160462618Y-98523897D03*
X160462618Y-108683897D03*
X163002618Y-37563897D03*
X163002618Y-47723897D03*
X163002618Y-50263897D03*
X163002618Y-52803897D03*
X163002618Y-55343897D03*
X163002618Y-57883897D03*
X163002618Y-60423897D03*
X163002618Y-62963897D03*
X163002618Y-65503897D03*
X163002618Y-68043897D03*
X163002618Y-70583897D03*
X163002618Y-73123897D03*
X163002618Y-75663897D03*
X163002618Y-78203897D03*
X163002618Y-80743897D03*
X163002618Y-83283897D03*
X163002618Y-85823897D03*
X163002618Y-88363897D03*
X163002618Y-90903897D03*
X163002618Y-93443897D03*
X163002618Y-95983897D03*
X163002618Y-98523897D03*
X163002618Y-108683897D03*
D11*
%TO.C,ESP32-S3*%
X71712720Y-60196320D03*
X71712720Y-62736320D03*
X71712720Y-85596320D03*
X74252720Y-60196320D03*
X74252720Y-62736320D03*
X74252720Y-85596320D03*
X76792720Y-60196320D03*
X76792720Y-62736320D03*
X76792720Y-85596320D03*
X79332720Y-60196320D03*
X79332720Y-62736320D03*
X79332720Y-85596320D03*
X81872720Y-60196320D03*
X81872720Y-62736320D03*
X81872720Y-85596320D03*
X84412720Y-60196320D03*
X84412720Y-62736320D03*
X84412720Y-85596320D03*
X86952720Y-60196320D03*
X86952720Y-62736320D03*
X86952720Y-85596320D03*
X89492720Y-60196320D03*
X89492720Y-62736320D03*
X89492720Y-85596320D03*
X92032720Y-60196320D03*
X92032720Y-62736320D03*
X92032720Y-85596320D03*
X94572720Y-60196320D03*
X94572720Y-62736320D03*
X94572720Y-85596320D03*
X97112720Y-60196320D03*
X97112720Y-62736320D03*
X97112720Y-85596320D03*
X99652720Y-60196320D03*
X99652720Y-62736320D03*
X99652720Y-85596320D03*
X102192720Y-60196320D03*
X102192720Y-62736320D03*
X102192720Y-85596320D03*
X104732720Y-60196320D03*
X104732720Y-62736320D03*
X104732720Y-85596320D03*
X107272720Y-60196320D03*
X107272720Y-62736320D03*
X107272720Y-85596320D03*
X109812720Y-60196320D03*
X109812720Y-62736320D03*
X109812720Y-85596320D03*
X112352720Y-60196320D03*
X112352720Y-62736320D03*
X112352720Y-85596320D03*
X114892720Y-60196320D03*
X114892720Y-62736320D03*
X114892720Y-85596320D03*
X117432720Y-60196320D03*
X117432720Y-62736320D03*
X117432720Y-85596320D03*
X119970000Y-85600000D03*
X119972720Y-60196320D03*
X119972720Y-62736320D03*
X122510000Y-85600000D03*
X122512720Y-60196320D03*
X122512720Y-62736320D03*
X125050000Y-85600000D03*
X125052720Y-60196320D03*
X125052720Y-62736320D03*
D12*
%TO.C,XBee3*%
X138660000Y-64050000D03*
X138660000Y-86050000D03*
X140660000Y-64050000D03*
X140660000Y-86050000D03*
X142660000Y-64050000D03*
X142660000Y-86050000D03*
X144660000Y-64050000D03*
X144660000Y-86050000D03*
X146660000Y-64050000D03*
X146660000Y-86050000D03*
X148660000Y-64050000D03*
X148660000Y-86050000D03*
X150660000Y-64050000D03*
X150660000Y-86050000D03*
X152660000Y-64050000D03*
X152660000Y-86050000D03*
X154660000Y-64050000D03*
X154660000Y-86050000D03*
X156660000Y-64050000D03*
X156660000Y-86050000D03*
D13*
%TO.C,J_Analog1*%
X78700000Y-92110000D03*
X78700000Y-94650000D03*
X78700000Y-97190000D03*
%TO.C,Serial0*%
X78870000Y-46350000D03*
X78870000Y-48890000D03*
X78870000Y-51430000D03*
X78870000Y-53970000D03*
%TO.C,J_Analog2*%
X82600000Y-92110000D03*
X82600000Y-94650000D03*
X82600000Y-97190000D03*
%TO.C,Serial1*%
X82800000Y-46340000D03*
X82800000Y-48880000D03*
X82800000Y-51420000D03*
X82800000Y-53960000D03*
%TO.C,SWSerial1*%
X86730000Y-46340000D03*
X86730000Y-48880000D03*
X86730000Y-51420000D03*
X86730000Y-53960000D03*
%TO.C,J_Digital1*%
X93250000Y-92130000D03*
X93250000Y-94670000D03*
X93250000Y-97210000D03*
%TO.C,I2C1*%
X93610000Y-46300000D03*
X93610000Y-48840000D03*
X93610000Y-51380000D03*
X93610000Y-53920000D03*
%TO.C,J_Digital2*%
X97250000Y-92130000D03*
X97250000Y-94670000D03*
X97250000Y-97210000D03*
%TO.C,J_Digital3*%
X101200000Y-92130000D03*
X101200000Y-94670000D03*
X101200000Y-97210000D03*
%TO.C,J_PPMIN1*%
X105050000Y-47300000D03*
X105050000Y-49840000D03*
X105050000Y-52380000D03*
%TO.C,J_Digital4*%
X105100000Y-92130000D03*
X105100000Y-94670000D03*
X105100000Y-97210000D03*
%TO.C,J_Servo1*%
X117300000Y-92200000D03*
X117300000Y-94740000D03*
X117300000Y-97280000D03*
%TO.C,J_Servo2*%
X121240000Y-92220000D03*
X121240000Y-94760000D03*
X121240000Y-97300000D03*
%TO.C,SPI1*%
X124290000Y-42200000D03*
X124290000Y-44740000D03*
X124290000Y-47280000D03*
X124290000Y-49820000D03*
X124290000Y-52360000D03*
X124290000Y-54900000D03*
%TO.C,J_Servo3*%
X125270000Y-92200000D03*
X125270000Y-94740000D03*
X125270000Y-97280000D03*
%TO.C,J_Servo4*%
X129210000Y-92210000D03*
X129210000Y-94750000D03*
X129210000Y-97290000D03*
D14*
%TO.C,J1*%
X144305000Y-97022500D03*
X149385000Y-97022500D03*
D15*
%TO.C,REF\u002A\u002A*%
X71900000Y-43350000D03*
X71900000Y-103600000D03*
X160950000Y-43350000D03*
X160950000Y-103600000D03*
M02*
