%TF.GenerationSoftware,KiCad,Pcbnew,9.0.9*%
%TF.CreationDate,2026-06-11T22:12:54-07:00*%
%TF.ProjectId,AmidalaShield,416d6964-616c-4615-9368-69656c642e6b,rev?*%
%TF.SameCoordinates,Original*%
%TF.FileFunction,Other,User*%
%FSLAX46Y46*%
G04 Gerber Fmt 4.6, Leading zero omitted, Abs format (unit mm)*
G04 Created by KiCad (PCBNEW 9.0.9) date 2026-06-11 22:12:54*
%MOMM*%
%LPD*%
G01*
G04 APERTURE LIST*
%ADD10C,0.050000*%
%ADD11C,0.100000*%
G04 APERTURE END LIST*
%TO.C,C9*%
D10*
X140450000Y-94842500D02*
X138350000Y-94842500D01*
X138350000Y-99462500D01*
X140450000Y-99462500D01*
X140450000Y-94842500D01*
%TO.C,C4*%
X149980000Y-57250000D02*
X148020000Y-57250000D01*
X148020000Y-60650000D01*
X149980000Y-60650000D01*
X149980000Y-57250000D01*
%TO.C,C3*%
X147530000Y-57720000D02*
X146070000Y-57720000D01*
X146070000Y-60680000D01*
X147530000Y-60680000D01*
X147530000Y-57720000D01*
%TO.C,R1*%
X151730000Y-58095000D02*
X150270000Y-58095000D01*
X150270000Y-61055000D01*
X151730000Y-61055000D01*
X151730000Y-58095000D01*
%TO.C,R5*%
X152120000Y-61055000D02*
X153580000Y-61055000D01*
X153580000Y-58095000D01*
X152120000Y-58095000D01*
X152120000Y-61055000D01*
%TO.C,C2*%
X156280000Y-65270000D02*
X154820000Y-65270000D01*
X154820000Y-68230000D01*
X156280000Y-68230000D01*
X156280000Y-65270000D01*
%TO.C,C6*%
X158280000Y-65295000D02*
X156820000Y-65295000D01*
X156820000Y-68255000D01*
X158280000Y-68255000D01*
X158280000Y-65295000D01*
%TO.C,C5*%
X160380000Y-65345000D02*
X158920000Y-65345000D01*
X158920000Y-68305000D01*
X160380000Y-68305000D01*
X160380000Y-65345000D01*
%TO.C,C7*%
X158480000Y-69500000D02*
X156520000Y-69500000D01*
X156520000Y-72900000D01*
X158480000Y-72900000D01*
X158480000Y-69500000D01*
%TO.C,C1*%
X145950000Y-67630000D02*
X142990000Y-67630000D01*
X142990000Y-66170000D01*
X145950000Y-66170000D01*
X145950000Y-67630000D01*
%TO.C,J_Digital3*%
X102970000Y-98980000D02*
X99430000Y-98980000D01*
X99430000Y-90360000D01*
X102970000Y-90360000D01*
X102970000Y-98980000D01*
%TO.C,J_Digital2*%
X99020000Y-98980000D02*
X95480000Y-98980000D01*
X95480000Y-90360000D01*
X99020000Y-90360000D01*
X99020000Y-98980000D01*
%TO.C,J_Digital4*%
X106870000Y-98980000D02*
X103330000Y-98980000D01*
X103330000Y-90360000D01*
X106870000Y-90360000D01*
X106870000Y-98980000D01*
%TO.C,J_Digital1*%
X95020000Y-98980000D02*
X91480000Y-98980000D01*
X91480000Y-90360000D01*
X95020000Y-90360000D01*
X95020000Y-98980000D01*
%TO.C,R3*%
X144270000Y-61055000D02*
X145730000Y-61055000D01*
X145730000Y-58095000D01*
X144270000Y-58095000D01*
X144270000Y-61055000D01*
%TO.C,REF\u002A\u002A*%
X164400000Y-43350000D02*
G75*
G02*
X157500000Y-43350000I-3450000J0D01*
G01*
X157500000Y-43350000D02*
G75*
G02*
X164400000Y-43350000I3450000J0D01*
G01*
%TO.C,Serial0*%
X77100000Y-44580000D02*
X80640000Y-44580000D01*
X80640000Y-55740000D01*
X77100000Y-55740000D01*
X77100000Y-44580000D01*
%TO.C,J_Servo4*%
X130980000Y-99060000D02*
X127440000Y-99060000D01*
X127440000Y-90440000D01*
X130980000Y-90440000D01*
X130980000Y-99060000D01*
%TO.C,REF\u002A\u002A*%
X75350000Y-43350000D02*
G75*
G02*
X68450000Y-43350000I-3450000J0D01*
G01*
X68450000Y-43350000D02*
G75*
G02*
X75350000Y-43350000I3450000J0D01*
G01*
D11*
%TO.C,XBee3*%
X135746000Y-61450000D02*
X165380000Y-61450000D01*
X135746000Y-88240000D02*
X135746000Y-61450000D01*
X165380000Y-61450000D02*
X165380000Y-88240000D01*
X165380000Y-88240000D02*
X135746000Y-88240000D01*
%TO.C,J_Servo2*%
D10*
X123010000Y-99070000D02*
X119470000Y-99070000D01*
X119470000Y-90450000D01*
X123010000Y-90450000D01*
X123010000Y-99070000D01*
%TO.C,J_Servo3*%
X127040000Y-99050000D02*
X123500000Y-99050000D01*
X123500000Y-90430000D01*
X127040000Y-90430000D01*
X127040000Y-99050000D01*
%TO.C,J1*%
X141265000Y-91312500D02*
X152435000Y-91312500D01*
X152435000Y-102122500D01*
X141265000Y-102122500D01*
X141265000Y-91312500D01*
%TO.C,R2*%
X142420000Y-61055000D02*
X143880000Y-61055000D01*
X143880000Y-58095000D01*
X142420000Y-58095000D01*
X142420000Y-61055000D01*
%TO.C,REF\u002A\u002A*%
X75350000Y-103600000D02*
G75*
G02*
X68450000Y-103600000I-3450000J0D01*
G01*
X68450000Y-103600000D02*
G75*
G02*
X75350000Y-103600000I3450000J0D01*
G01*
%TO.C,SWSerial1*%
X84960000Y-44570000D02*
X88500000Y-44570000D01*
X88500000Y-55730000D01*
X84960000Y-55730000D01*
X84960000Y-44570000D01*
%TO.C,J_Servo1*%
X119070000Y-99050000D02*
X115530000Y-99050000D01*
X115530000Y-90430000D01*
X119070000Y-90430000D01*
X119070000Y-99050000D01*
%TO.C,SPI1*%
X122520000Y-40430000D02*
X126060000Y-40430000D01*
X126060000Y-56670000D01*
X122520000Y-56670000D01*
X122520000Y-40430000D01*
%TO.C,J_Analog1*%
X80470000Y-98960000D02*
X76930000Y-98960000D01*
X76930000Y-90340000D01*
X80470000Y-90340000D01*
X80470000Y-98960000D01*
%TO.C,J_PPMIN1*%
X103280000Y-45530000D02*
X106820000Y-45530000D01*
X106820000Y-54150000D01*
X103280000Y-54150000D01*
X103280000Y-45530000D01*
%TO.C,ESP32-S3*%
X70862720Y-58946320D02*
X134260000Y-58946320D01*
X70862720Y-86846320D02*
X70862720Y-58946320D01*
X134260000Y-58946320D02*
X134260000Y-86846320D01*
X134260000Y-86846320D02*
X70862720Y-86846320D01*
%TO.C,J3*%
X138695000Y-38645000D02*
X154395000Y-38645000D01*
X138695000Y-56345000D02*
X138695000Y-38645000D01*
X154395000Y-38645000D02*
X154395000Y-56345000D01*
X154395000Y-56345000D02*
X138695000Y-56345000D01*
%TO.C,I2C1*%
X91840000Y-44530000D02*
X95380000Y-44530000D01*
X95380000Y-55690000D01*
X91840000Y-55690000D01*
X91840000Y-44530000D01*
%TO.C,J_Analog2*%
X84370000Y-98960000D02*
X80830000Y-98960000D01*
X80830000Y-90340000D01*
X84370000Y-90340000D01*
X84370000Y-98960000D01*
%TO.C,Serial1*%
X81030000Y-44570000D02*
X84570000Y-44570000D01*
X84570000Y-55730000D01*
X81030000Y-55730000D01*
X81030000Y-44570000D01*
%TO.C,REF\u002A\u002A*%
X164400000Y-103600000D02*
G75*
G02*
X157500000Y-103600000I-3450000J0D01*
G01*
X157500000Y-103600000D02*
G75*
G02*
X164400000Y-103600000I3450000J0D01*
G01*
%TD*%
M02*
