G04 #@! TF.GenerationSoftware,KiCad,Pcbnew,9.0.9*
G04 #@! TF.CreationDate,2026-06-11T21:59:10-07:00*
G04 #@! TF.ProjectId,AmidalaShield,416d6964-616c-4615-9368-69656c642e6b,rev?*
G04 #@! TF.SameCoordinates,Original*
G04 #@! TF.FileFunction,Legend,Bot*
G04 #@! TF.FilePolarity,Positive*
%FSLAX46Y46*%
G04 Gerber Fmt 4.6, Leading zero omitted, Abs format (unit mm)*
G04 Created by KiCad (PCBNEW 9.0.9) date 2026-06-11 21:59:10*
%MOMM*%
%LPD*%
G01*
G04 APERTURE LIST*
%ADD10C,0.300000*%
%ADD11C,0.000000*%
G04 APERTURE END LIST*
D10*
X117565218Y-72039757D02*
X117708076Y-71968328D01*
X117708076Y-71968328D02*
X117922361Y-71968328D01*
X117922361Y-71968328D02*
X118136647Y-72039757D01*
X118136647Y-72039757D02*
X118279504Y-72182614D01*
X118279504Y-72182614D02*
X118350933Y-72325471D01*
X118350933Y-72325471D02*
X118422361Y-72611185D01*
X118422361Y-72611185D02*
X118422361Y-72825471D01*
X118422361Y-72825471D02*
X118350933Y-73111185D01*
X118350933Y-73111185D02*
X118279504Y-73254042D01*
X118279504Y-73254042D02*
X118136647Y-73396900D01*
X118136647Y-73396900D02*
X117922361Y-73468328D01*
X117922361Y-73468328D02*
X117779504Y-73468328D01*
X117779504Y-73468328D02*
X117565218Y-73396900D01*
X117565218Y-73396900D02*
X117493790Y-73325471D01*
X117493790Y-73325471D02*
X117493790Y-72825471D01*
X117493790Y-72825471D02*
X117779504Y-72825471D01*
X116636647Y-71968328D02*
X116636647Y-72325471D01*
X116993790Y-72182614D02*
X116636647Y-72325471D01*
X116636647Y-72325471D02*
X116279504Y-72182614D01*
X116850933Y-72611185D02*
X116636647Y-72325471D01*
X116636647Y-72325471D02*
X116422361Y-72611185D01*
X115493790Y-71968328D02*
X115493790Y-72325471D01*
X115850933Y-72182614D02*
X115493790Y-72325471D01*
X115493790Y-72325471D02*
X115136647Y-72182614D01*
X115708076Y-72611185D02*
X115493790Y-72325471D01*
X115493790Y-72325471D02*
X115279504Y-72611185D01*
X114350933Y-71968328D02*
X114350933Y-72325471D01*
X114708076Y-72182614D02*
X114350933Y-72325471D01*
X114350933Y-72325471D02*
X113993790Y-72182614D01*
X114565219Y-72611185D02*
X114350933Y-72325471D01*
X114350933Y-72325471D02*
X114136647Y-72611185D01*
D11*
G04 #@! TO.C,G\u002A\u002A\u002A*
G36*
X128544759Y-80329532D02*
G01*
X128650510Y-80545761D01*
X128660497Y-80927074D01*
X128554621Y-81379156D01*
X128342167Y-81833091D01*
X128189437Y-82047050D01*
X127975297Y-82179572D01*
X127636556Y-82210657D01*
X127521968Y-82205811D01*
X127126286Y-82083132D01*
X126894279Y-81820816D01*
X126833742Y-81453283D01*
X126952470Y-81014952D01*
X127258256Y-80540240D01*
X127439599Y-80362779D01*
X127824323Y-80164512D01*
X128213958Y-80149950D01*
X128544759Y-80329532D01*
G37*
G36*
X133021887Y-94043475D02*
G01*
X133190990Y-94327201D01*
X133205776Y-94709043D01*
X133101603Y-95182061D01*
X132908208Y-95625204D01*
X132659907Y-95934606D01*
X132572126Y-95995843D01*
X132225473Y-96132001D01*
X131878282Y-96146384D01*
X131602339Y-96045055D01*
X131469436Y-95834075D01*
X131497992Y-95545984D01*
X131636560Y-95133857D01*
X131847508Y-94696315D01*
X132090531Y-94316143D01*
X132325322Y-94076128D01*
X132387597Y-94038480D01*
X132736102Y-93942017D01*
X133021887Y-94043475D01*
G37*
G36*
X94664525Y-111367054D02*
G01*
X94901520Y-111549479D01*
X95050459Y-111812867D01*
X95009525Y-112130997D01*
X94738232Y-112450151D01*
X94240725Y-112762721D01*
X94183170Y-112791554D01*
X93922360Y-112913128D01*
X93680003Y-112996676D01*
X93404711Y-113049373D01*
X93045096Y-113078393D01*
X92549770Y-113090912D01*
X91867344Y-113094105D01*
X91599793Y-113093764D01*
X91033621Y-113088225D01*
X90584970Y-113077047D01*
X90294164Y-113061475D01*
X90201525Y-113042752D01*
X90210356Y-113035632D01*
X90383721Y-112945587D01*
X90729190Y-112790069D01*
X91203302Y-112586733D01*
X91762600Y-112353232D01*
X92363625Y-112107220D01*
X92962917Y-111866351D01*
X93517019Y-111648277D01*
X93982471Y-111470654D01*
X94315815Y-111351134D01*
X94473592Y-111307371D01*
X94664525Y-111367054D01*
G37*
G36*
X138508334Y-111329071D02*
G01*
X139065061Y-111481280D01*
X139700333Y-111764902D01*
X139764987Y-111798530D01*
X140334736Y-112075342D01*
X140983855Y-112365538D01*
X141584167Y-112611514D01*
X141810572Y-112699138D01*
X142224594Y-112863590D01*
X142521174Y-112987230D01*
X142647469Y-113048349D01*
X142641872Y-113054008D01*
X142482109Y-113070551D01*
X142138276Y-113083914D01*
X141651781Y-113092848D01*
X141064029Y-113096103D01*
X140803914Y-113096003D01*
X140219425Y-113091698D01*
X139794903Y-113073862D01*
X139472571Y-113032823D01*
X139194654Y-112958912D01*
X138903376Y-112842457D01*
X138540961Y-112673789D01*
X138323048Y-112567670D01*
X137915424Y-112339900D01*
X137679788Y-112145953D01*
X137577047Y-111956747D01*
X137568627Y-111637505D01*
X137734197Y-111409525D01*
X138056073Y-111305933D01*
X138508334Y-111329071D01*
G37*
G36*
X132130716Y-41789864D02*
G01*
X132392871Y-41914580D01*
X132488422Y-42173003D01*
X132394176Y-42515432D01*
X132301557Y-42665052D01*
X132085924Y-42982507D01*
X131791971Y-43398382D01*
X131455401Y-43861485D01*
X131265657Y-44122307D01*
X130812706Y-44763274D01*
X130354731Y-45431535D01*
X129966580Y-46018638D01*
X129753817Y-46344356D01*
X129451512Y-46790830D01*
X129196949Y-47148281D01*
X129029605Y-47360188D01*
X128787739Y-47556234D01*
X128485321Y-47611716D01*
X128220304Y-47439991D01*
X128208625Y-47425402D01*
X128132548Y-47257027D01*
X128131199Y-47000931D01*
X128203176Y-46587278D01*
X128326199Y-46189874D01*
X128590441Y-45622462D01*
X128954775Y-44996460D01*
X129392365Y-44345336D01*
X129876376Y-43702559D01*
X130379971Y-43101599D01*
X130876314Y-42575924D01*
X131338569Y-42159004D01*
X131739900Y-41884308D01*
X132053471Y-41785305D01*
X132130716Y-41789864D01*
G37*
G36*
X108004520Y-53683431D02*
G01*
X108108178Y-53746139D01*
X108290131Y-54025081D01*
X108305712Y-54418316D01*
X108149225Y-54878786D01*
X108040606Y-55101087D01*
X107692274Y-55944380D01*
X107386903Y-56872629D01*
X107153314Y-57790740D01*
X107020327Y-58603620D01*
X107005588Y-58746926D01*
X106942171Y-59251294D01*
X106870702Y-59582240D01*
X106776224Y-59792672D01*
X106643777Y-59935497D01*
X106635243Y-59942398D01*
X106394328Y-60110838D01*
X106217586Y-60124687D01*
X105999275Y-59993455D01*
X105973770Y-59971548D01*
X105836881Y-59710334D01*
X105746355Y-59277124D01*
X105706582Y-58726260D01*
X105721955Y-58112085D01*
X105796865Y-57488939D01*
X105885107Y-57109561D01*
X106051718Y-56550734D01*
X106266585Y-55920807D01*
X106504716Y-55297161D01*
X106739209Y-54741889D01*
X107008172Y-54192252D01*
X107248716Y-53833610D01*
X107481311Y-53643941D01*
X107726423Y-53601222D01*
X108004520Y-53683431D01*
G37*
G36*
X153505686Y-60814607D02*
G01*
X153663279Y-60995383D01*
X153692655Y-61072469D01*
X153667381Y-61375696D01*
X153512813Y-61783710D01*
X153254769Y-62247454D01*
X152919066Y-62717873D01*
X152531519Y-63145911D01*
X152018597Y-63616149D01*
X151191085Y-64298194D01*
X150313645Y-64945984D01*
X149438503Y-65523639D01*
X148617888Y-65995276D01*
X147904029Y-66325016D01*
X147661903Y-66412918D01*
X147108928Y-66556459D01*
X146717030Y-66552834D01*
X146467456Y-66403063D01*
X146435500Y-66361611D01*
X146352462Y-66135985D01*
X146430678Y-65893519D01*
X146685373Y-65616731D01*
X147131774Y-65288142D01*
X147785106Y-64890270D01*
X148411406Y-64524529D01*
X149288560Y-63984397D01*
X150027042Y-63484169D01*
X150675743Y-62987874D01*
X151283549Y-62459544D01*
X151899350Y-61863208D01*
X152299598Y-61467965D01*
X152738038Y-61073281D01*
X153068346Y-60841118D01*
X153315802Y-60759040D01*
X153505686Y-60814607D01*
G37*
G36*
X96148403Y-80010516D02*
G01*
X96148414Y-80018214D01*
X96132238Y-80614631D01*
X96084136Y-81028612D01*
X96007266Y-81232817D01*
X96002136Y-81237714D01*
X95782854Y-81335487D01*
X95465226Y-81375915D01*
X95152644Y-81337798D01*
X94863945Y-81179591D01*
X94639079Y-80870949D01*
X94457823Y-80382524D01*
X94299953Y-79684970D01*
X94248661Y-79393236D01*
X94200302Y-79050563D01*
X95087332Y-79050563D01*
X95120465Y-79220791D01*
X95193905Y-79405987D01*
X95268430Y-79513007D01*
X95305415Y-79467934D01*
X95295248Y-79364753D01*
X95196374Y-79110188D01*
X95131052Y-79029121D01*
X95087332Y-79050563D01*
X94200302Y-79050563D01*
X94181137Y-78914763D01*
X94150129Y-78544900D01*
X94162060Y-78346009D01*
X94283001Y-78186022D01*
X94585610Y-78004827D01*
X94958254Y-77900899D01*
X95303810Y-77911223D01*
X95660297Y-78116691D01*
X95929699Y-78538949D01*
X96092714Y-79171003D01*
X96112411Y-79467934D01*
X96148403Y-80010516D01*
G37*
G36*
X125697283Y-84121082D02*
G01*
X125589103Y-84639441D01*
X125317811Y-85100267D01*
X124881978Y-85450974D01*
X124697259Y-85542558D01*
X124331662Y-85648715D01*
X123962500Y-85613883D01*
X123496066Y-85437127D01*
X123067217Y-85147794D01*
X122744141Y-84700562D01*
X122688713Y-84499177D01*
X123935341Y-84499177D01*
X123992408Y-84652303D01*
X124229267Y-84714882D01*
X124482612Y-84642252D01*
X124693261Y-84381986D01*
X124770083Y-83971454D01*
X124733608Y-83753112D01*
X124618297Y-83540018D01*
X124472339Y-83420406D01*
X124345938Y-83431827D01*
X124289295Y-83611831D01*
X124251415Y-83784643D01*
X124110422Y-84051994D01*
X124005057Y-84235022D01*
X123935341Y-84499177D01*
X122688713Y-84499177D01*
X122599810Y-84176170D01*
X122648376Y-83630060D01*
X122903991Y-83117675D01*
X123180086Y-82846046D01*
X123688438Y-82586494D01*
X124256542Y-82500699D01*
X124804781Y-82609928D01*
X125057440Y-82746680D01*
X125430023Y-83122114D01*
X125643780Y-83597777D01*
X125681985Y-83971454D01*
X125697283Y-84121082D01*
G37*
G36*
X79774149Y-69547275D02*
G01*
X80104583Y-69692476D01*
X80576733Y-69963587D01*
X80618702Y-69988436D01*
X80947873Y-70172762D01*
X81438631Y-70437097D01*
X82047971Y-70758704D01*
X82732884Y-71114848D01*
X83450364Y-71482792D01*
X83533413Y-71525109D01*
X84302495Y-71922087D01*
X84883307Y-72234302D01*
X85300959Y-72477204D01*
X85580560Y-72666240D01*
X85747219Y-72816861D01*
X85826043Y-72944515D01*
X85874934Y-73192424D01*
X85772173Y-73450138D01*
X85709315Y-73512991D01*
X85488860Y-73597253D01*
X85125603Y-73577092D01*
X85030725Y-73552761D01*
X84707853Y-73432648D01*
X84229580Y-73230751D01*
X83633092Y-72964892D01*
X82955578Y-72652891D01*
X82234225Y-72312572D01*
X81506220Y-71961757D01*
X80808750Y-71618266D01*
X80179003Y-71299922D01*
X79654165Y-71024547D01*
X79271425Y-70809963D01*
X79067970Y-70673991D01*
X79042112Y-70649670D01*
X78876163Y-70343695D01*
X78922941Y-70006844D01*
X79176144Y-69696097D01*
X79322249Y-69593319D01*
X79531386Y-69517663D01*
X79774149Y-69547275D01*
G37*
G36*
X83626096Y-58085494D02*
G01*
X84112698Y-58343654D01*
X84246109Y-58433396D01*
X84699076Y-58781081D01*
X85210600Y-59223766D01*
X85750815Y-59730070D01*
X86289856Y-60268612D01*
X86797859Y-60808012D01*
X87244959Y-61316889D01*
X87601292Y-61763860D01*
X87836992Y-62117547D01*
X87922195Y-62346566D01*
X87943990Y-62447119D01*
X88105479Y-62612418D01*
X88209840Y-62682114D01*
X88409351Y-62934791D01*
X88571059Y-63262413D01*
X88637688Y-63562716D01*
X88595908Y-63734784D01*
X88440333Y-63986009D01*
X88381749Y-64044414D01*
X88060082Y-64202219D01*
X87721749Y-64157760D01*
X87418770Y-63929894D01*
X87203160Y-63537482D01*
X87134398Y-63373573D01*
X86909175Y-62990927D01*
X86627178Y-62625666D01*
X86322800Y-62290290D01*
X85482543Y-61392794D01*
X84727140Y-60629288D01*
X84075854Y-60018822D01*
X83547948Y-59580447D01*
X83263159Y-59359122D01*
X82916117Y-59042733D01*
X82744672Y-58784917D01*
X82728426Y-58548281D01*
X82846980Y-58295429D01*
X82972302Y-58145578D01*
X83254238Y-58019784D01*
X83626096Y-58085494D01*
G37*
G36*
X84828036Y-84491767D02*
G01*
X84920360Y-84691965D01*
X84906720Y-84969004D01*
X84721965Y-85288000D01*
X84333810Y-85586692D01*
X83724920Y-85882344D01*
X83198468Y-86077048D01*
X82415923Y-86321285D01*
X81496017Y-86572898D01*
X80491601Y-86817546D01*
X79455529Y-87040887D01*
X79328674Y-87064346D01*
X78736116Y-87137538D01*
X78037160Y-87179700D01*
X77274859Y-87192849D01*
X76492267Y-87179000D01*
X75732438Y-87140168D01*
X75038425Y-87078369D01*
X74453283Y-86995616D01*
X74020064Y-86893927D01*
X73781823Y-86775315D01*
X73757127Y-86748085D01*
X73632198Y-86443941D01*
X73637399Y-86067404D01*
X73773627Y-85732376D01*
X73825786Y-85666397D01*
X73916608Y-85599162D01*
X74061417Y-85571772D01*
X74305530Y-85584066D01*
X74694263Y-85635885D01*
X75272933Y-85727068D01*
X76268735Y-85845129D01*
X77747215Y-85867273D01*
X79285248Y-85708942D01*
X80910779Y-85366768D01*
X82651751Y-84837381D01*
X82995991Y-84721332D01*
X83712643Y-84506872D01*
X84243792Y-84397963D01*
X84609052Y-84393347D01*
X84828036Y-84491767D01*
G37*
G36*
X110221726Y-83992457D02*
G01*
X110216906Y-84139616D01*
X110084035Y-84682952D01*
X109756554Y-85109151D01*
X109217484Y-85442738D01*
X109189342Y-85455521D01*
X108858731Y-85598774D01*
X108641059Y-85650886D01*
X108437958Y-85617547D01*
X108151063Y-85504450D01*
X108026006Y-85446458D01*
X107554863Y-85085271D01*
X107265024Y-84600201D01*
X107174554Y-84035259D01*
X107205526Y-83888694D01*
X108104906Y-83888694D01*
X108108115Y-84219097D01*
X108293322Y-84517527D01*
X108461724Y-84640913D01*
X108656489Y-84714882D01*
X108658612Y-84714862D01*
X108856897Y-84624482D01*
X109097888Y-84414138D01*
X109301335Y-84166357D01*
X109386984Y-83963668D01*
X109383187Y-83921816D01*
X109249199Y-83683860D01*
X108990874Y-83485872D01*
X108700431Y-83403145D01*
X108537472Y-83424884D01*
X108256943Y-83599546D01*
X108104906Y-83888694D01*
X107205526Y-83888694D01*
X107301514Y-83434459D01*
X107556526Y-82993871D01*
X107982875Y-82646097D01*
X108520187Y-82500096D01*
X109144249Y-82567262D01*
X109343592Y-82634052D01*
X109818400Y-82944242D01*
X110117634Y-83405671D01*
X110216619Y-83963668D01*
X110221726Y-83992457D01*
G37*
G36*
X160673754Y-83230809D02*
G01*
X160860475Y-83302240D01*
X161064257Y-83436088D01*
X161238140Y-83722015D01*
X161197814Y-84036364D01*
X160938968Y-84323090D01*
X160572207Y-84543491D01*
X159802568Y-84885763D01*
X158894519Y-85176639D01*
X157910190Y-85397506D01*
X156911709Y-85529748D01*
X156336463Y-85562748D01*
X155172885Y-85553577D01*
X153986716Y-85456140D01*
X152841692Y-85279058D01*
X151801551Y-85030956D01*
X150930029Y-84720457D01*
X150700391Y-84614663D01*
X150495488Y-84478311D01*
X150423550Y-84308921D01*
X150430989Y-84032632D01*
X150451146Y-83828737D01*
X150512917Y-83655799D01*
X150674337Y-83593225D01*
X151004824Y-83587120D01*
X151234324Y-83603016D01*
X151696709Y-83665295D01*
X152261298Y-83763398D01*
X152853181Y-83885242D01*
X153158449Y-83951105D01*
X153775992Y-84062973D01*
X154369681Y-84131638D01*
X155026743Y-84165521D01*
X155834402Y-84173044D01*
X156562897Y-84164332D01*
X157198597Y-84132496D01*
X157739909Y-84064251D01*
X158261955Y-83946109D01*
X158839857Y-83764583D01*
X159548738Y-83506187D01*
X159833197Y-83400479D01*
X160220534Y-83270535D01*
X160480580Y-83217109D01*
X160673754Y-83230809D01*
G37*
G36*
X93541840Y-70777719D02*
G01*
X93684941Y-70989008D01*
X93718937Y-71216053D01*
X93693884Y-71324837D01*
X93632104Y-71646165D01*
X93551333Y-72102350D01*
X93462549Y-72632736D01*
X93418910Y-72906096D01*
X93370116Y-73250240D01*
X93337108Y-73574563D01*
X93320007Y-73915886D01*
X93318932Y-74311028D01*
X93334002Y-74796809D01*
X93365337Y-75410048D01*
X93413057Y-76187566D01*
X93477281Y-77166181D01*
X93480154Y-77209517D01*
X93509604Y-77714677D01*
X93510554Y-78044577D01*
X93473345Y-78257682D01*
X93388320Y-78412454D01*
X93245822Y-78567355D01*
X93159554Y-78651915D01*
X92930957Y-78829938D01*
X92745580Y-78844599D01*
X92520118Y-78712566D01*
X92483703Y-78681756D01*
X92365602Y-78488107D01*
X92278633Y-78145625D01*
X92210210Y-77609515D01*
X92144738Y-77041961D01*
X92059449Y-76442617D01*
X91973751Y-75950094D01*
X91956149Y-75855111D01*
X91892441Y-75199465D01*
X91893748Y-74431807D01*
X91952602Y-73610413D01*
X92061535Y-72793558D01*
X92213080Y-72039516D01*
X92399768Y-71406564D01*
X92614132Y-70952977D01*
X92630119Y-70929228D01*
X92917510Y-70662900D01*
X93236962Y-70609460D01*
X93541840Y-70777719D01*
G37*
G36*
X119087441Y-85805149D02*
G01*
X119435417Y-85926992D01*
X119748350Y-86120243D01*
X119926054Y-86330084D01*
X119972083Y-86495504D01*
X119999545Y-86975296D01*
X119925086Y-87486609D01*
X119761460Y-87907220D01*
X119661291Y-88058250D01*
X119447730Y-88282328D01*
X119161867Y-88437453D01*
X118748337Y-88548894D01*
X118151773Y-88641922D01*
X117792838Y-88678262D01*
X117147160Y-88711194D01*
X116431710Y-88719137D01*
X115708024Y-88703732D01*
X115037638Y-88666622D01*
X114482088Y-88609449D01*
X114102908Y-88533855D01*
X114000035Y-88496270D01*
X113595973Y-88277153D01*
X113238354Y-87993858D01*
X113048848Y-87784760D01*
X112887414Y-87485233D01*
X112845200Y-87117395D01*
X112903595Y-86582502D01*
X113110368Y-86155802D01*
X113473278Y-85894185D01*
X113594717Y-85847896D01*
X113866746Y-85811199D01*
X114143490Y-85920510D01*
X114292011Y-86021106D01*
X114422070Y-86226349D01*
X114455059Y-86567812D01*
X114462276Y-86762455D01*
X114529931Y-87004454D01*
X114693557Y-87117784D01*
X114853629Y-87145559D01*
X115226604Y-87174043D01*
X115732670Y-87193906D01*
X116312584Y-87204655D01*
X116907100Y-87205800D01*
X117456977Y-87196852D01*
X117902969Y-87177318D01*
X118185835Y-87146709D01*
X118412941Y-87086467D01*
X118491039Y-86972792D01*
X118426861Y-86727296D01*
X118386809Y-86500583D01*
X118456644Y-86155429D01*
X118653281Y-85892613D01*
X118935561Y-85788122D01*
X119087441Y-85805149D01*
G37*
G36*
X121268615Y-92196554D02*
G01*
X121174170Y-92694223D01*
X121148163Y-92831264D01*
X120794076Y-93512450D01*
X120642091Y-93712384D01*
X120097349Y-94203260D01*
X119388336Y-94614815D01*
X118566065Y-94921093D01*
X117681547Y-95096139D01*
X117572072Y-95108811D01*
X117142024Y-95166840D01*
X116825228Y-95222653D01*
X116683738Y-95265703D01*
X116630085Y-95289775D01*
X116431291Y-95274277D01*
X116393662Y-95264830D01*
X116136305Y-95218744D01*
X115731837Y-95159028D01*
X115249657Y-95096143D01*
X114310956Y-94914017D01*
X113395039Y-94567743D01*
X112649013Y-94081474D01*
X112086249Y-93464195D01*
X111739577Y-92764178D01*
X112689272Y-92764178D01*
X113030673Y-93168777D01*
X113172830Y-93314093D01*
X113555140Y-93611591D01*
X113973191Y-93853293D01*
X114216048Y-93957459D01*
X114584912Y-94084351D01*
X114842618Y-94134375D01*
X114956831Y-94126245D01*
X115058503Y-94055157D01*
X115101837Y-93861833D01*
X115110928Y-93488252D01*
X115110928Y-92840964D01*
X114484871Y-92763883D01*
X114303234Y-92745288D01*
X113764566Y-92718058D01*
X113274044Y-92725490D01*
X112689272Y-92764178D01*
X111739577Y-92764178D01*
X111720119Y-92724888D01*
X111696407Y-92651333D01*
X111595414Y-92212887D01*
X111618604Y-91857366D01*
X111732449Y-91644263D01*
X113078382Y-91644263D01*
X113079900Y-91713315D01*
X113213438Y-91765589D01*
X113434533Y-91803936D01*
X113831784Y-91839621D01*
X114288203Y-91857925D01*
X114633116Y-91868249D01*
X115211393Y-91931334D01*
X115601930Y-92071911D01*
X115837102Y-92316201D01*
X115949283Y-92690428D01*
X115955403Y-92840964D01*
X115970846Y-93220812D01*
X115971677Y-93387244D01*
X116004289Y-93790397D01*
X116068511Y-94085366D01*
X116183889Y-94267038D01*
X116415518Y-94374037D01*
X116540361Y-94355333D01*
X116758367Y-94166083D01*
X116861315Y-93785234D01*
X116843543Y-93227946D01*
X116820267Y-92988610D01*
X117746998Y-92988610D01*
X117755241Y-93250249D01*
X117782596Y-93431503D01*
X117840318Y-93496915D01*
X117964398Y-93372316D01*
X117995830Y-93337519D01*
X118241234Y-93133957D01*
X118560642Y-92929802D01*
X118986515Y-92694223D01*
X118414192Y-92745029D01*
X118225827Y-92764831D01*
X117925321Y-92812068D01*
X117779163Y-92858541D01*
X117746998Y-92988610D01*
X116820267Y-92988610D01*
X116806993Y-92852125D01*
X116821396Y-92497878D01*
X116928522Y-92242832D01*
X117157522Y-92066486D01*
X117537546Y-91948338D01*
X118097744Y-91867886D01*
X118867266Y-91804627D01*
X120059754Y-91721662D01*
X119078398Y-91233829D01*
X119033005Y-91211274D01*
X118579709Y-90991063D01*
X118271182Y-90864004D01*
X118044781Y-90816176D01*
X117837863Y-90833653D01*
X117587787Y-90902513D01*
X116810363Y-91086946D01*
X116141224Y-91115642D01*
X115569116Y-90981834D01*
X115462573Y-90941733D01*
X115075218Y-90853340D01*
X114681426Y-90878858D01*
X114220266Y-91028705D01*
X113630808Y-91313300D01*
X113576380Y-91342064D01*
X113235127Y-91529993D01*
X113078382Y-91644263D01*
X111732449Y-91644263D01*
X111788875Y-91538641D01*
X112129128Y-91210585D01*
X112662262Y-90827070D01*
X113156792Y-90516832D01*
X113906633Y-90151442D01*
X114592914Y-89972422D01*
X115256982Y-89971092D01*
X115940184Y-90138769D01*
X116217263Y-90225232D01*
X116465411Y-90251532D01*
X116749310Y-90202436D01*
X117162413Y-90072909D01*
X117210421Y-90056860D01*
X117593981Y-89945517D01*
X117927860Y-89900278D01*
X118263715Y-89931042D01*
X118653205Y-90047709D01*
X119147987Y-90260181D01*
X119799718Y-90578357D01*
X120210777Y-90788382D01*
X120614403Y-91015133D01*
X120876043Y-91202650D01*
X121039654Y-91383955D01*
X121149192Y-91592065D01*
X121155573Y-91607565D01*
X121177471Y-91721662D01*
X121268615Y-92196554D01*
G37*
G36*
X149272541Y-37539718D02*
G01*
X149291961Y-38093650D01*
X149271230Y-38823027D01*
X149212862Y-39758075D01*
X149208617Y-39816527D01*
X149149327Y-40665042D01*
X149086878Y-41608273D01*
X149028445Y-42535383D01*
X149002410Y-42976372D01*
X148981206Y-43335540D01*
X148964757Y-43626810D01*
X148913621Y-44458043D01*
X148860452Y-45089796D01*
X148794635Y-45551894D01*
X148705557Y-45874161D01*
X148582604Y-46086422D01*
X148415162Y-46218501D01*
X148192617Y-46300223D01*
X147904355Y-46361411D01*
X147610549Y-46431473D01*
X147212736Y-46559829D01*
X146846569Y-46707337D01*
X146578209Y-46846737D01*
X146473816Y-46950773D01*
X146540974Y-47127687D01*
X146791493Y-47456603D01*
X147217868Y-47904398D01*
X147810022Y-48460606D01*
X148557873Y-49114760D01*
X149400873Y-49856723D01*
X150450075Y-50863259D01*
X151454968Y-51933505D01*
X152449874Y-53106440D01*
X153469116Y-54421042D01*
X154547017Y-55916291D01*
X155109636Y-56729637D01*
X155708903Y-57625817D01*
X156257423Y-58487521D01*
X156785274Y-59364982D01*
X157322535Y-60308431D01*
X157899283Y-61368102D01*
X158545596Y-62594225D01*
X158890515Y-63253820D01*
X159253694Y-63943219D01*
X159570903Y-64539922D01*
X159826213Y-65014161D01*
X160003696Y-65336162D01*
X160087425Y-65476154D01*
X160110332Y-65510101D01*
X160230346Y-65737815D01*
X160402925Y-66104654D01*
X160598893Y-66549393D01*
X160644688Y-66655849D01*
X160866024Y-67159782D01*
X161148104Y-67790640D01*
X161459452Y-68478369D01*
X161768593Y-69152911D01*
X161971466Y-69597872D01*
X162416498Y-70605777D01*
X162875169Y-71681762D01*
X163324258Y-72769138D01*
X163740545Y-73811217D01*
X164100810Y-74751308D01*
X164381831Y-75532723D01*
X164585724Y-76215187D01*
X164812141Y-77160950D01*
X165030707Y-78254992D01*
X165234538Y-79449759D01*
X165416748Y-80697698D01*
X165570453Y-81951254D01*
X165688766Y-83162875D01*
X165764803Y-84285006D01*
X165789545Y-85191878D01*
X165791679Y-85270094D01*
X165773455Y-86107797D01*
X165656813Y-87397183D01*
X165419598Y-88594418D01*
X165047123Y-89734096D01*
X164524695Y-90850810D01*
X163837626Y-91979155D01*
X162971224Y-93153724D01*
X161910799Y-94409111D01*
X161714974Y-94625983D01*
X160194536Y-96110496D01*
X158519168Y-97424981D01*
X156706132Y-98562822D01*
X154772695Y-99517403D01*
X152736121Y-100282107D01*
X150613676Y-100850318D01*
X148422623Y-101215420D01*
X146180228Y-101370796D01*
X143903756Y-101309830D01*
X142878685Y-101219198D01*
X140713350Y-100922909D01*
X138672497Y-100486046D01*
X136700327Y-99895382D01*
X134741041Y-99137688D01*
X133566750Y-98633995D01*
X133253105Y-99038054D01*
X133103619Y-99220754D01*
X132742396Y-99631342D01*
X132262143Y-100153867D01*
X131694868Y-100754584D01*
X131072575Y-101399747D01*
X130427270Y-102055609D01*
X129790961Y-102688424D01*
X129395236Y-103086225D01*
X129027919Y-103487005D01*
X128947521Y-103596698D01*
X128841145Y-103741836D01*
X128836970Y-103848220D01*
X128883203Y-103863979D01*
X129137178Y-103946268D01*
X129531449Y-104071313D01*
X130002447Y-104218894D01*
X130866178Y-104514820D01*
X131941690Y-104932599D01*
X133215556Y-105468277D01*
X134689569Y-106122630D01*
X136365520Y-106896434D01*
X138245200Y-107790466D01*
X139860736Y-108560469D01*
X141354688Y-109252949D01*
X142726221Y-109863813D01*
X144018930Y-110410364D01*
X145276410Y-110909906D01*
X146542257Y-111379744D01*
X147860067Y-111837181D01*
X149273433Y-112299521D01*
X150825951Y-112784069D01*
X151779942Y-113076346D01*
X150229390Y-113086225D01*
X148678838Y-113096103D01*
X146830798Y-112457039D01*
X146557062Y-112361848D01*
X145477361Y-111974342D01*
X144436426Y-111578559D01*
X143392863Y-111156914D01*
X142305277Y-110691820D01*
X141132276Y-110165690D01*
X139832464Y-109560937D01*
X138364449Y-108859973D01*
X138057779Y-108712255D01*
X137181050Y-108291302D01*
X136343117Y-107890852D01*
X135579151Y-107527598D01*
X134924321Y-107218230D01*
X134413798Y-106979440D01*
X134082751Y-106827919D01*
X133199645Y-106434333D01*
X132819382Y-106724373D01*
X132573713Y-106872622D01*
X132130623Y-107001247D01*
X131707244Y-106983301D01*
X131383682Y-106813794D01*
X131326747Y-106748021D01*
X131234465Y-106500763D01*
X131251043Y-106117207D01*
X131319023Y-105621238D01*
X129624600Y-105063551D01*
X129344941Y-104972252D01*
X128766581Y-104788396D01*
X128281708Y-104640920D01*
X127934506Y-104543054D01*
X127769162Y-104508026D01*
X127620926Y-104582652D01*
X127335318Y-104784857D01*
X126953641Y-105083733D01*
X126517049Y-105448373D01*
X126327662Y-105610507D01*
X125489784Y-106305176D01*
X124719154Y-106896122D01*
X123966893Y-107413315D01*
X123542010Y-107670281D01*
X123184121Y-107886729D01*
X123143250Y-107908517D01*
X122321959Y-108346336D01*
X121331529Y-108822108D01*
X120163949Y-109344016D01*
X120119760Y-109363258D01*
X119371867Y-109674815D01*
X118799746Y-109876249D01*
X118371509Y-109971543D01*
X118055266Y-109964681D01*
X117819126Y-109859648D01*
X117631202Y-109660426D01*
X117587953Y-109598265D01*
X117340660Y-109118520D01*
X117306045Y-108703379D01*
X117480569Y-108321388D01*
X117488677Y-108310170D01*
X120187667Y-108310170D01*
X120357406Y-108266974D01*
X120701342Y-108101372D01*
X120786231Y-108054201D01*
X120974663Y-107908517D01*
X120936555Y-107822171D01*
X120905151Y-107815518D01*
X120685427Y-107872463D01*
X120414216Y-108041358D01*
X120203711Y-108233382D01*
X120187667Y-108310170D01*
X117488677Y-108310170D01*
X117495087Y-108301302D01*
X117664590Y-107985975D01*
X117675376Y-107942047D01*
X118672103Y-107942047D01*
X118746369Y-107986714D01*
X118894794Y-107951899D01*
X119131457Y-107819006D01*
X119340607Y-107670281D01*
X121550364Y-107670281D01*
X121609989Y-107729906D01*
X121669613Y-107670281D01*
X121609989Y-107610657D01*
X121550364Y-107670281D01*
X119340607Y-107670281D01*
X119473926Y-107575479D01*
X119489749Y-107563023D01*
X121788862Y-107563023D01*
X121789798Y-107579410D01*
X121812126Y-107597549D01*
X121892377Y-107569243D01*
X122067258Y-107475528D01*
X122373479Y-107297443D01*
X122847748Y-107016024D01*
X123193906Y-106807047D01*
X123583482Y-106559328D01*
X123955738Y-106302517D01*
X124349953Y-106006929D01*
X124805409Y-105642879D01*
X125361386Y-105180684D01*
X126057164Y-104590658D01*
X126328574Y-104357138D01*
X126770800Y-103960907D01*
X127022109Y-103707446D01*
X127082545Y-103596698D01*
X126952151Y-103628603D01*
X126630968Y-103803103D01*
X126534023Y-103855767D01*
X126207025Y-103978867D01*
X125959124Y-103997739D01*
X125929245Y-103992444D01*
X125770536Y-104030713D01*
X125548631Y-104186997D01*
X125235371Y-104484386D01*
X124802596Y-104945966D01*
X124564156Y-105198031D01*
X123997173Y-105748995D01*
X123389020Y-106290770D01*
X122835936Y-106735773D01*
X122478434Y-107004834D01*
X122121328Y-107280743D01*
X121878476Y-107477073D01*
X121788862Y-107563023D01*
X119489749Y-107563023D01*
X119939771Y-107208761D01*
X120546561Y-106706297D01*
X121311867Y-106055530D01*
X122088209Y-105375048D01*
X123218022Y-104317863D01*
X124271992Y-103236892D01*
X125294117Y-102083969D01*
X126328392Y-100810927D01*
X127263733Y-99574584D01*
X129095225Y-99574584D01*
X129148145Y-99548820D01*
X129338860Y-99352676D01*
X129587962Y-99152478D01*
X129945329Y-99025856D01*
X130270858Y-99064374D01*
X130499013Y-99272557D01*
X130565974Y-99457579D01*
X130566576Y-99689928D01*
X130532543Y-99789804D01*
X130546832Y-99847303D01*
X130675180Y-99700811D01*
X130915157Y-99352676D01*
X131122052Y-99067119D01*
X131465255Y-98646593D01*
X131824241Y-98249624D01*
X132065941Y-97975537D01*
X134503716Y-97975537D01*
X134632299Y-98079994D01*
X134967017Y-98251568D01*
X135463423Y-98461527D01*
X136084164Y-98696875D01*
X136791888Y-98944613D01*
X137549243Y-99191746D01*
X138318875Y-99425274D01*
X139063433Y-99632201D01*
X139745564Y-99799529D01*
X140155813Y-99886836D01*
X140965207Y-100040934D01*
X141797369Y-100181097D01*
X142525286Y-100285136D01*
X142828728Y-100318432D01*
X143674433Y-100381091D01*
X144640207Y-100420387D01*
X145654627Y-100435736D01*
X146646272Y-100426552D01*
X147543718Y-100392250D01*
X148275542Y-100332244D01*
X148379783Y-100319799D01*
X150488875Y-99953489D01*
X152543055Y-99381619D01*
X154518591Y-98616119D01*
X156391752Y-97668916D01*
X158138807Y-96551938D01*
X159736024Y-95277114D01*
X161159671Y-93856370D01*
X161815958Y-93100514D01*
X162620660Y-92091339D01*
X163272362Y-91150144D01*
X163796137Y-90236158D01*
X164217059Y-89308610D01*
X164560199Y-88326729D01*
X164625437Y-88109511D01*
X164725671Y-87739169D01*
X164795622Y-87392309D01*
X164840622Y-87016540D01*
X164866003Y-86559472D01*
X164877097Y-85968715D01*
X164879235Y-85191878D01*
X164875650Y-84728893D01*
X164856742Y-83955249D01*
X164824397Y-83224197D01*
X164781777Y-82601028D01*
X164732041Y-82151033D01*
X164617749Y-81406888D01*
X164433749Y-80227898D01*
X164276286Y-79249126D01*
X164141269Y-78447366D01*
X164024607Y-77799414D01*
X163922207Y-77282062D01*
X163829979Y-76872105D01*
X163743830Y-76546338D01*
X163733553Y-76511418D01*
X163578314Y-76040228D01*
X163344654Y-75395004D01*
X163048751Y-74616054D01*
X162706783Y-73743688D01*
X162334928Y-72818213D01*
X161949364Y-71879939D01*
X161566269Y-70969174D01*
X161201821Y-70126228D01*
X160872198Y-69391408D01*
X160834872Y-69310132D01*
X160538797Y-68659665D01*
X160248426Y-68012842D01*
X159995380Y-67440533D01*
X159811281Y-67013611D01*
X159788113Y-66958798D01*
X159607210Y-66547476D01*
X159454073Y-66225885D01*
X159359749Y-66059620D01*
X159304275Y-65968805D01*
X159147935Y-65687054D01*
X158910644Y-65247319D01*
X158608527Y-64679754D01*
X158257711Y-64014519D01*
X157874322Y-63281770D01*
X157644780Y-62844315D01*
X156307892Y-60415427D01*
X154976050Y-58204293D01*
X153636711Y-56193893D01*
X152277332Y-54367204D01*
X150885369Y-52707207D01*
X149448280Y-51196880D01*
X147953521Y-49819202D01*
X147572678Y-49487087D01*
X147060171Y-49027983D01*
X146617098Y-48617180D01*
X146281114Y-48289799D01*
X146089874Y-48080960D01*
X145786919Y-47688122D01*
X145111967Y-48152968D01*
X144089015Y-48948574D01*
X142914993Y-50100509D01*
X141818012Y-51440224D01*
X140811311Y-52943236D01*
X140028610Y-54366056D01*
X139908135Y-54585060D01*
X139121725Y-56341212D01*
X138848792Y-57108779D01*
X138700382Y-57526150D01*
X138560617Y-57919209D01*
X138465322Y-58187207D01*
X138274622Y-58897512D01*
X138162568Y-59314882D01*
X138024878Y-59827742D01*
X137952169Y-60098562D01*
X137595508Y-62050792D01*
X137584167Y-62134086D01*
X137506676Y-62834610D01*
X137451259Y-63575455D01*
X137419559Y-64301244D01*
X137413219Y-64956600D01*
X137433885Y-65486144D01*
X137483199Y-65834500D01*
X137595575Y-66010196D01*
X137859723Y-66266422D01*
X138210626Y-66530404D01*
X138538824Y-66768490D01*
X139154719Y-67292830D01*
X139803595Y-67924243D01*
X140426188Y-68603697D01*
X140963233Y-69272159D01*
X141348099Y-69834916D01*
X141822959Y-70703145D01*
X142054419Y-71126343D01*
X142623840Y-72548132D01*
X143031144Y-74042112D01*
X143108716Y-74557907D01*
X143165255Y-75303878D01*
X143179072Y-75788921D01*
X143189624Y-76159352D01*
X143182487Y-77057201D01*
X143144510Y-77930301D01*
X143076358Y-78711526D01*
X142978697Y-79333749D01*
X142905237Y-79662246D01*
X142357908Y-81582536D01*
X141635499Y-83354083D01*
X140724852Y-85001239D01*
X139612814Y-86548355D01*
X138286227Y-88019783D01*
X138029378Y-88277177D01*
X137608343Y-88708435D01*
X137291420Y-89069470D01*
X137060683Y-89404246D01*
X136898204Y-89756730D01*
X136786055Y-90170888D01*
X136706310Y-90690685D01*
X136641041Y-91360089D01*
X136572320Y-92223064D01*
X136542114Y-92585962D01*
X136427624Y-93624716D01*
X136275935Y-94489094D01*
X136071490Y-95227653D01*
X135798731Y-95888953D01*
X135442101Y-96521550D01*
X134986041Y-97174003D01*
X134940652Y-97234858D01*
X134700223Y-97580197D01*
X134543923Y-97844796D01*
X134503716Y-97975537D01*
X132065941Y-97975537D01*
X132110620Y-97924871D01*
X132425336Y-97505332D01*
X132639987Y-97146573D01*
X132721228Y-96988010D01*
X132882906Y-96738246D01*
X133000792Y-96639765D01*
X133026670Y-96632488D01*
X133164653Y-96489859D01*
X133320389Y-96222394D01*
X133359669Y-96143912D01*
X133510411Y-95902326D01*
X133623288Y-95805023D01*
X133641310Y-95802554D01*
X133779438Y-95662119D01*
X133930551Y-95340785D01*
X134078481Y-94887020D01*
X134207060Y-94349292D01*
X134300119Y-93776068D01*
X134315305Y-93641169D01*
X134363970Y-93108214D01*
X134420128Y-92368957D01*
X134482397Y-91447034D01*
X134549394Y-90366082D01*
X134602200Y-89452959D01*
X135550774Y-89452959D01*
X135553209Y-89575041D01*
X135568711Y-89561458D01*
X135636863Y-89395561D01*
X135731372Y-89098046D01*
X135823140Y-88867973D01*
X135996845Y-88586254D01*
X136272671Y-88238374D01*
X136675555Y-87793077D01*
X137230433Y-87219108D01*
X137779198Y-86644085D01*
X138813005Y-85428268D01*
X139667139Y-84210862D01*
X140375489Y-82945823D01*
X140611349Y-82449290D01*
X141256975Y-80784207D01*
X141692478Y-79104841D01*
X141915939Y-77432608D01*
X141925443Y-75788921D01*
X141719074Y-74195195D01*
X141294914Y-72672845D01*
X141278304Y-72627084D01*
X141087234Y-72132685D01*
X140886662Y-71660795D01*
X140699944Y-71261598D01*
X140550435Y-70985277D01*
X140461489Y-70882019D01*
X140461460Y-70917144D01*
X140512457Y-71128924D01*
X140616705Y-71489712D01*
X140760394Y-71950162D01*
X140816539Y-72130093D01*
X140977456Y-72704665D01*
X141106606Y-73249510D01*
X141180138Y-73667056D01*
X141204431Y-73895758D01*
X141210104Y-74183034D01*
X141150640Y-74343390D01*
X141010745Y-74447269D01*
X141000256Y-74452795D01*
X140644304Y-74562729D01*
X140297598Y-74554404D01*
X140060106Y-74429671D01*
X140025368Y-74369205D01*
X139920068Y-74102755D01*
X139786263Y-73695285D01*
X139644549Y-73207371D01*
X139614697Y-73101263D01*
X139408622Y-72461184D01*
X139160476Y-71798231D01*
X138917484Y-71240180D01*
X138821342Y-71035458D01*
X138693728Y-70703145D01*
X140272430Y-70703145D01*
X140332054Y-70762770D01*
X140391679Y-70703145D01*
X140332054Y-70643521D01*
X140272430Y-70703145D01*
X138693728Y-70703145D01*
X138569147Y-70378730D01*
X138478187Y-69880448D01*
X138548858Y-69546011D01*
X138781553Y-69380820D01*
X139012013Y-69351563D01*
X139288361Y-69384953D01*
X139331699Y-69392357D01*
X139308163Y-69310244D01*
X139152174Y-69120776D01*
X138897143Y-68856431D01*
X138576481Y-68549687D01*
X138223601Y-68233022D01*
X137871913Y-67938915D01*
X137554829Y-67699844D01*
X137228764Y-67463846D01*
X136873630Y-67186275D01*
X136632909Y-66974277D01*
X136365153Y-66703625D01*
X136292601Y-69180381D01*
X136282602Y-69529742D01*
X136257264Y-70469357D01*
X136230043Y-71541607D01*
X136202738Y-72672799D01*
X136177146Y-73789238D01*
X136155066Y-74817230D01*
X136143345Y-75339685D01*
X136115646Y-76364951D01*
X136082160Y-77408180D01*
X136045176Y-78405263D01*
X136006982Y-79292091D01*
X135969868Y-80004554D01*
X135965902Y-80071959D01*
X135927990Y-80753893D01*
X135883138Y-81614771D01*
X135833943Y-82601614D01*
X135783003Y-83661440D01*
X135732915Y-84741270D01*
X135686278Y-85788122D01*
X135665426Y-86273647D01*
X135628949Y-87156326D01*
X135598236Y-87944308D01*
X135574297Y-88608882D01*
X135558140Y-89121336D01*
X135550774Y-89452959D01*
X134602200Y-89452959D01*
X134619736Y-89149736D01*
X134692041Y-87821634D01*
X134764926Y-86405410D01*
X134837008Y-84924702D01*
X134906905Y-83403145D01*
X134910549Y-83321402D01*
X134955253Y-82325842D01*
X135004427Y-81241772D01*
X135054335Y-80150887D01*
X135101241Y-79134880D01*
X135141409Y-78275446D01*
X135162290Y-77802386D01*
X135197310Y-76896639D01*
X135232714Y-75860608D01*
X135266397Y-74760708D01*
X135296254Y-73663356D01*
X135320180Y-72634966D01*
X135389292Y-69319839D01*
X134991054Y-69394549D01*
X134843835Y-69417168D01*
X134589312Y-69405699D01*
X134430259Y-69282978D01*
X134354227Y-69018297D01*
X134348765Y-68580948D01*
X134401424Y-67940223D01*
X134473892Y-67376345D01*
X134583947Y-66903853D01*
X134734200Y-66621353D01*
X134939665Y-66502679D01*
X135215353Y-66521669D01*
X135257254Y-66531188D01*
X135333489Y-66530078D01*
X135390498Y-66473461D01*
X135432780Y-66330860D01*
X135464832Y-66071799D01*
X135491153Y-65665798D01*
X135516242Y-65082381D01*
X135544598Y-64291071D01*
X135572229Y-63636622D01*
X135618967Y-62813380D01*
X135675158Y-62034798D01*
X135736041Y-61365470D01*
X135796851Y-60869995D01*
X135839998Y-60576871D01*
X135897290Y-60138111D01*
X135928139Y-59827742D01*
X135926614Y-59699270D01*
X135914828Y-59702655D01*
X135854772Y-59852912D01*
X135765169Y-60178751D01*
X135655846Y-60635904D01*
X135536627Y-61180107D01*
X135417338Y-61767092D01*
X135307805Y-62352594D01*
X135217854Y-62892347D01*
X135180984Y-63119908D01*
X135074081Y-63685706D01*
X134959370Y-64190693D01*
X134856062Y-64547011D01*
X134808403Y-64687778D01*
X134707806Y-65060633D01*
X134667735Y-65335859D01*
X134667735Y-65336339D01*
X134595156Y-65616890D01*
X134421153Y-65916385D01*
X134391765Y-65955880D01*
X134323922Y-66075341D01*
X134266575Y-66239904D01*
X134216325Y-66477143D01*
X134169774Y-66814634D01*
X134123525Y-67279952D01*
X134074180Y-67900672D01*
X134018339Y-68704369D01*
X133952606Y-69718617D01*
X133950358Y-69753975D01*
X133858690Y-71223912D01*
X133773368Y-72654646D01*
X133691907Y-74092435D01*
X133611820Y-75583537D01*
X133530622Y-77174209D01*
X133445827Y-78910709D01*
X133354947Y-80839296D01*
X133305343Y-81832916D01*
X133170276Y-83968296D01*
X133001919Y-85903949D01*
X132794607Y-87665999D01*
X132542670Y-89280568D01*
X132240443Y-90773778D01*
X131882259Y-92171754D01*
X131462449Y-93500618D01*
X130975347Y-94786493D01*
X130415286Y-96055502D01*
X129776599Y-97333767D01*
X129534291Y-97810889D01*
X129344670Y-98244500D01*
X129257722Y-98553674D01*
X129258552Y-98779997D01*
X129266520Y-99064463D01*
X129177673Y-99397732D01*
X129157659Y-99436242D01*
X129095225Y-99574584D01*
X127263733Y-99574584D01*
X127418813Y-99369597D01*
X127632911Y-99070499D01*
X128468020Y-97754796D01*
X129262522Y-96272909D01*
X129989522Y-94682495D01*
X130622122Y-93041209D01*
X131133428Y-91406706D01*
X131143691Y-91369235D01*
X131275332Y-90877178D01*
X131344720Y-90569001D01*
X131354839Y-90401887D01*
X131308674Y-90333018D01*
X131209209Y-90319577D01*
X131139393Y-90312963D01*
X130955368Y-90170804D01*
X130910630Y-89863305D01*
X131010987Y-89416915D01*
X131188292Y-89062321D01*
X131419482Y-88911431D01*
X131587115Y-88862479D01*
X131704870Y-88735862D01*
X131788039Y-88479432D01*
X131864105Y-88039283D01*
X131877323Y-87946863D01*
X131896966Y-87655146D01*
X131834442Y-87498446D01*
X131665013Y-87396948D01*
X131495082Y-87288725D01*
X131417213Y-87101829D01*
X131411970Y-86760810D01*
X131472467Y-86331546D01*
X131643416Y-86013339D01*
X131922016Y-85907371D01*
X131985920Y-85893573D01*
X132054443Y-85814631D01*
X132109906Y-85635001D01*
X132159006Y-85320330D01*
X132208441Y-84836264D01*
X132264907Y-84148450D01*
X132285304Y-83869120D01*
X132328575Y-83201922D01*
X132377904Y-82365230D01*
X132430882Y-81403386D01*
X132485099Y-80360735D01*
X132538144Y-79281621D01*
X132587609Y-78210386D01*
X132600757Y-77918210D01*
X132657193Y-76716715D01*
X132720589Y-75436066D01*
X132787610Y-74139755D01*
X132854925Y-72891272D01*
X132919199Y-71754108D01*
X132977099Y-70791754D01*
X133029969Y-69944458D01*
X133076420Y-69168397D01*
X133107233Y-68580626D01*
X133122207Y-68154533D01*
X133121141Y-67863506D01*
X133103836Y-67680935D01*
X133070091Y-67580209D01*
X133019707Y-67534717D01*
X132952484Y-67517846D01*
X132819420Y-67474379D01*
X132610914Y-67302080D01*
X132570231Y-67175596D01*
X132580958Y-66860040D01*
X132669839Y-66500305D01*
X132810030Y-66190613D01*
X132974689Y-66025186D01*
X133011022Y-66010431D01*
X133249933Y-65836253D01*
X133354172Y-65624399D01*
X133277939Y-65541647D01*
X133062460Y-65420359D01*
X132890908Y-65324858D01*
X132828050Y-65182395D01*
X132896612Y-64920321D01*
X132905579Y-64895200D01*
X133045523Y-64649887D01*
X133220208Y-64616205D01*
X133250133Y-64622827D01*
X133329179Y-64593038D01*
X133397622Y-64461838D01*
X133464817Y-64195333D01*
X133540116Y-63759630D01*
X133632873Y-63120834D01*
X133737639Y-62460069D01*
X133908921Y-61555989D01*
X134116927Y-60583631D01*
X134347254Y-59603827D01*
X134437511Y-59252861D01*
X136004950Y-59252861D01*
X136019222Y-59394382D01*
X136055090Y-59413038D01*
X136098721Y-59314882D01*
X136090115Y-59251752D01*
X136019222Y-59235383D01*
X136004950Y-59252861D01*
X134437511Y-59252861D01*
X134528895Y-58897512D01*
X136098721Y-58897512D01*
X136158346Y-58957136D01*
X136217970Y-58897512D01*
X136158346Y-58837887D01*
X136098721Y-58897512D01*
X134528895Y-58897512D01*
X134585499Y-58677405D01*
X134599253Y-58629202D01*
X136227042Y-58629202D01*
X136228419Y-58650924D01*
X136337219Y-58718638D01*
X136400424Y-58686970D01*
X136458096Y-58509953D01*
X136471504Y-58320881D01*
X136519407Y-58003145D01*
X136532589Y-57919209D01*
X136505086Y-57911408D01*
X136407602Y-58122394D01*
X136380925Y-58188134D01*
X136274738Y-58469180D01*
X136227042Y-58629202D01*
X134599253Y-58629202D01*
X134817259Y-57865195D01*
X134949993Y-57464129D01*
X136601194Y-57464129D01*
X136615466Y-57605649D01*
X136651334Y-57624305D01*
X136694965Y-57526150D01*
X136686359Y-57463020D01*
X136615466Y-57446651D01*
X136601194Y-57464129D01*
X134949993Y-57464129D01*
X135028131Y-57228028D01*
X135073208Y-57108779D01*
X136694965Y-57108779D01*
X136754590Y-57168404D01*
X136814214Y-57108779D01*
X136754590Y-57049155D01*
X136694965Y-57108779D01*
X135073208Y-57108779D01*
X135145554Y-56917388D01*
X135498684Y-56035001D01*
X135927173Y-55019124D01*
X136213320Y-54366056D01*
X137648956Y-54366056D01*
X137708580Y-54425681D01*
X137768205Y-54366056D01*
X137708580Y-54306432D01*
X137648956Y-54366056D01*
X136213320Y-54366056D01*
X136406497Y-53925170D01*
X136504981Y-53707685D01*
X137618536Y-53707685D01*
X137649758Y-53830934D01*
X137733805Y-53977543D01*
X137802213Y-54067493D01*
X137806419Y-54063957D01*
X137885847Y-53932950D01*
X138039905Y-53650933D01*
X138240074Y-53269861D01*
X138558102Y-52685528D01*
X139199082Y-51645176D01*
X139981734Y-50524973D01*
X140928923Y-49291085D01*
X141052176Y-49137277D01*
X141602114Y-48482778D01*
X142105121Y-47951925D01*
X142627042Y-47479243D01*
X143233721Y-46999257D01*
X143717702Y-46638978D01*
X144371673Y-46174293D01*
X144909146Y-45829448D01*
X145369306Y-45581961D01*
X145791337Y-45409352D01*
X146214425Y-45289139D01*
X146610435Y-45217360D01*
X147033022Y-45195994D01*
X147320960Y-45249889D01*
X147427360Y-45375697D01*
X147465513Y-45434869D01*
X147651361Y-45482019D01*
X147763908Y-45452224D01*
X147855123Y-45323224D01*
X147930750Y-45048760D01*
X148009108Y-44582781D01*
X148072006Y-44101829D01*
X148125281Y-43485717D01*
X148137285Y-42976372D01*
X148107494Y-42616412D01*
X148035382Y-42448453D01*
X148033832Y-42447535D01*
X147848163Y-42444461D01*
X147497421Y-42521553D01*
X147033244Y-42661801D01*
X146507270Y-42848194D01*
X145971135Y-43063723D01*
X145476475Y-43291379D01*
X144551629Y-43806898D01*
X143587223Y-44481466D01*
X142677834Y-45279449D01*
X141807914Y-46219513D01*
X140961919Y-47320323D01*
X140124304Y-48600546D01*
X139279523Y-50078847D01*
X138412031Y-51773892D01*
X138167248Y-52279360D01*
X137905495Y-52840252D01*
X137734636Y-53244099D01*
X137642906Y-53522658D01*
X137618536Y-53707685D01*
X136504981Y-53707685D01*
X136912135Y-52808552D01*
X137419564Y-51724680D01*
X137904263Y-50728967D01*
X138297059Y-49960196D01*
X139252489Y-48255089D01*
X140221038Y-46768826D01*
X141216762Y-45487550D01*
X142253723Y-44397407D01*
X143345978Y-43484539D01*
X144507586Y-42735092D01*
X145752607Y-42135211D01*
X147095100Y-41671038D01*
X147108275Y-41667258D01*
X147536107Y-41544740D01*
X147852484Y-41433848D01*
X148074496Y-41298870D01*
X148219233Y-41104094D01*
X148303786Y-40813807D01*
X148345245Y-40392299D01*
X148360700Y-39803857D01*
X148367241Y-39012770D01*
X148381350Y-37373098D01*
X147900954Y-37373098D01*
X147559670Y-37422714D01*
X147010091Y-37609138D01*
X146360508Y-37912484D01*
X145654330Y-38309919D01*
X144934964Y-38778612D01*
X144245815Y-39295730D01*
X144228983Y-39309317D01*
X143870563Y-39590102D01*
X143417764Y-39934040D01*
X142964375Y-40269835D01*
X142960166Y-40272908D01*
X142500616Y-40649601D01*
X142048012Y-41087391D01*
X141699757Y-41492136D01*
X141442236Y-41819890D01*
X141229032Y-42053818D01*
X141106473Y-42143051D01*
X141095599Y-42144512D01*
X140963193Y-42260201D01*
X140807272Y-42504236D01*
X140747222Y-42602294D01*
X140744574Y-42606618D01*
X140530040Y-42905543D01*
X140209372Y-43321683D01*
X139814075Y-43814560D01*
X139375654Y-44343691D01*
X138399812Y-45533238D01*
X137434316Y-46797952D01*
X136608882Y-47996841D01*
X135897728Y-49172932D01*
X135275072Y-50369253D01*
X134715134Y-51628831D01*
X134192131Y-52994695D01*
X134062577Y-53363299D01*
X133784090Y-54198564D01*
X133517738Y-55051052D01*
X133274713Y-55880405D01*
X133066208Y-56646263D01*
X132903418Y-57308268D01*
X132797536Y-57826060D01*
X132759754Y-58159282D01*
X132757364Y-58243197D01*
X132701043Y-58591614D01*
X132593345Y-58828497D01*
X132529949Y-58972997D01*
X132462166Y-59231068D01*
X132436234Y-59329801D01*
X132327031Y-59853409D01*
X132208478Y-60506054D01*
X132086715Y-61249968D01*
X131967882Y-62047383D01*
X131858119Y-62860531D01*
X131763567Y-63651646D01*
X131690364Y-64382958D01*
X131652138Y-64889890D01*
X131608805Y-65600574D01*
X131566128Y-66422715D01*
X131527494Y-67290796D01*
X131496287Y-68139296D01*
X131491997Y-68269778D01*
X131456924Y-69160451D01*
X131417863Y-69835359D01*
X131372992Y-70314650D01*
X131320486Y-70618472D01*
X131258522Y-70766973D01*
X131191608Y-70886311D01*
X131155667Y-71109955D01*
X131163037Y-71471301D01*
X131211903Y-72019086D01*
X131221245Y-72169958D01*
X131263413Y-72850986D01*
X131190215Y-74101737D01*
X131172156Y-74265011D01*
X131135568Y-74774403D01*
X131104635Y-75449488D01*
X131081014Y-76240230D01*
X131066359Y-77096597D01*
X131062325Y-77968553D01*
X131061671Y-78480800D01*
X131053755Y-79260194D01*
X131038427Y-79949597D01*
X131016895Y-80511885D01*
X130990369Y-80909935D01*
X130960060Y-81106625D01*
X130928642Y-81248229D01*
X130881460Y-81609737D01*
X130831336Y-82128956D01*
X130782557Y-82760227D01*
X130739407Y-83457893D01*
X130687119Y-84274862D01*
X130611848Y-85061121D01*
X130518627Y-85650138D01*
X130402533Y-86064381D01*
X130258645Y-86326320D01*
X130082040Y-86458425D01*
X129959877Y-86584468D01*
X129897782Y-86852476D01*
X129886302Y-87002954D01*
X129819402Y-87380180D01*
X129712638Y-87799269D01*
X129648611Y-88046726D01*
X129589534Y-88405508D01*
X129595137Y-88635842D01*
X129591198Y-88805453D01*
X129524794Y-89171584D01*
X129404651Y-89686214D01*
X129242473Y-90308683D01*
X129190785Y-90493849D01*
X129049962Y-90998335D01*
X128838823Y-91714510D01*
X128620759Y-92416553D01*
X128407474Y-93063804D01*
X128210670Y-93615605D01*
X128042051Y-94031300D01*
X127979262Y-94172181D01*
X127965201Y-94205311D01*
X127802146Y-94589492D01*
X127678522Y-94911467D01*
X127632054Y-95077704D01*
X127629799Y-95096384D01*
X127559809Y-95297770D01*
X127411628Y-95635878D01*
X127269814Y-95929255D01*
X127212076Y-96048699D01*
X126969164Y-96548600D01*
X126734119Y-97061559D01*
X126558786Y-97474582D01*
X126492935Y-97621166D01*
X126275641Y-98029343D01*
X125958516Y-98574452D01*
X125566043Y-99218340D01*
X125122709Y-99922857D01*
X124652998Y-100649852D01*
X124181396Y-101361172D01*
X123732386Y-102018668D01*
X123330455Y-102584186D01*
X123000086Y-103019577D01*
X122788234Y-103278565D01*
X122277215Y-103877706D01*
X121670917Y-104564692D01*
X121017683Y-105286409D01*
X120365857Y-105989745D01*
X119763781Y-106621588D01*
X119259800Y-107128826D01*
X118928460Y-107473072D01*
X118704977Y-107771503D01*
X118672103Y-107942047D01*
X117675376Y-107942047D01*
X117734402Y-107701644D01*
X117775463Y-107469535D01*
X117918582Y-107162272D01*
X117945665Y-107122447D01*
X118039407Y-106883059D01*
X117959227Y-106631119D01*
X117904724Y-106489767D01*
X117831719Y-106128307D01*
X117788666Y-105686376D01*
X117778998Y-105242708D01*
X117806146Y-104876036D01*
X117873542Y-104665094D01*
X117939918Y-104600033D01*
X118228767Y-104517841D01*
X118608816Y-104645280D01*
X119068521Y-104979313D01*
X119601476Y-105448439D01*
X120553212Y-104412881D01*
X120828184Y-104112082D01*
X121405311Y-103464550D01*
X121907119Y-102870024D01*
X122373216Y-102277003D01*
X122843212Y-101633985D01*
X123356716Y-100889471D01*
X123953337Y-99991959D01*
X124176113Y-99651930D01*
X124565620Y-99047873D01*
X124841761Y-98599261D01*
X125019343Y-98277965D01*
X125113171Y-98055855D01*
X125138051Y-97904801D01*
X125108788Y-97796674D01*
X125077629Y-97716012D01*
X125032602Y-97387080D01*
X125048226Y-96978518D01*
X125064958Y-96791412D01*
X125058763Y-96508589D01*
X125002962Y-96401267D01*
X124927684Y-96477743D01*
X124915388Y-96550328D01*
X124889331Y-96704140D01*
X124870903Y-96867341D01*
X124734587Y-97266989D01*
X124497637Y-97714053D01*
X124198440Y-98154984D01*
X123875385Y-98536234D01*
X123566858Y-98804253D01*
X123311248Y-98905493D01*
X123274053Y-98908107D01*
X122999546Y-99001147D01*
X122771095Y-99139674D01*
X122694484Y-99186129D01*
X122557364Y-99284407D01*
X122071855Y-99586775D01*
X121687520Y-99799859D01*
X121453542Y-99929582D01*
X120767425Y-100280352D01*
X120078505Y-100606614D01*
X119451781Y-100875894D01*
X119293917Y-100932723D01*
X118952254Y-101055717D01*
X118894542Y-101073273D01*
X118458323Y-101221726D01*
X118110813Y-101365909D01*
X117922782Y-101476871D01*
X117899951Y-101506471D01*
X117797335Y-101758670D01*
X117680409Y-102195472D01*
X117556891Y-102774853D01*
X117434499Y-103454787D01*
X117320952Y-104193249D01*
X117223968Y-104948213D01*
X117151266Y-105677656D01*
X117103818Y-106154602D01*
X117035719Y-106647319D01*
X116985087Y-106903205D01*
X116963208Y-107013779D01*
X116895683Y-107198079D01*
X116718767Y-107312632D01*
X116421972Y-107372159D01*
X116176836Y-107417979D01*
X116030523Y-107610055D01*
X115963454Y-107752786D01*
X115778118Y-107908177D01*
X115690654Y-107935861D01*
X115400140Y-108027704D01*
X115305252Y-108074615D01*
X115306472Y-108182489D01*
X115459765Y-108401533D01*
X115462774Y-108405361D01*
X115569445Y-108562655D01*
X115640055Y-108666775D01*
X115685135Y-108886985D01*
X115590510Y-109140230D01*
X115348677Y-109500746D01*
X115173010Y-109716042D01*
X114893823Y-109926257D01*
X114557259Y-109998994D01*
X114113008Y-109941363D01*
X113510763Y-109760471D01*
X113328836Y-109696363D01*
X111913922Y-109104417D01*
X110424782Y-108328192D01*
X108897266Y-107389500D01*
X107367220Y-106310150D01*
X105870493Y-105111954D01*
X105685845Y-104954986D01*
X105410506Y-104739013D01*
X105173270Y-104613963D01*
X104921058Y-104576103D01*
X104600793Y-104621702D01*
X104159397Y-104747027D01*
X103543792Y-104948345D01*
X103002929Y-105152297D01*
X102606618Y-105373412D01*
X102326416Y-105635657D01*
X101975326Y-105973810D01*
X101437371Y-106234357D01*
X100833557Y-106267129D01*
X100697913Y-106258460D01*
X100465350Y-106282496D01*
X100163234Y-106361390D01*
X99755179Y-106507187D01*
X99204802Y-106731932D01*
X98475716Y-107047668D01*
X98147190Y-107192766D01*
X97355210Y-107546586D01*
X96547225Y-107912246D01*
X95801519Y-108254197D01*
X95196374Y-108536889D01*
X95113223Y-108576306D01*
X93762138Y-109214615D01*
X92592968Y-109761647D01*
X91575255Y-110230441D01*
X90678538Y-110634037D01*
X89872359Y-110985472D01*
X89126259Y-111297788D01*
X88409778Y-111584023D01*
X87692458Y-111857216D01*
X86943839Y-112130406D01*
X86133463Y-112416633D01*
X85596211Y-112603205D01*
X85063062Y-112779638D01*
X84634466Y-112899862D01*
X84242925Y-112976397D01*
X83820937Y-113021761D01*
X83301003Y-113048472D01*
X82615623Y-113069050D01*
X82286287Y-113077145D01*
X81716617Y-113086135D01*
X81267182Y-113086511D01*
X80977356Y-113078431D01*
X80886515Y-113062054D01*
X80899378Y-113054642D01*
X81080636Y-112989219D01*
X81436578Y-112876734D01*
X81923168Y-112730785D01*
X82496374Y-112564969D01*
X83921971Y-112148428D01*
X85391980Y-111687931D01*
X86764656Y-111217981D01*
X88100286Y-110715787D01*
X89459153Y-110158561D01*
X90901541Y-109523512D01*
X92487736Y-108787850D01*
X93553320Y-108286369D01*
X95188851Y-107526303D01*
X96743772Y-106815446D01*
X98199161Y-106162078D01*
X99536096Y-105574480D01*
X100735655Y-105060931D01*
X101778916Y-104629712D01*
X102646958Y-104289102D01*
X103320858Y-104047381D01*
X104111540Y-103784733D01*
X103171797Y-102833554D01*
X102838515Y-102493126D01*
X102524120Y-102164893D01*
X102310703Y-101933581D01*
X102232054Y-101835093D01*
X102188697Y-101775539D01*
X102009885Y-101573978D01*
X101724586Y-101267718D01*
X101367500Y-100894514D01*
X101187358Y-100707705D01*
X100707874Y-100205591D01*
X100234303Y-99703965D01*
X99847078Y-99287824D01*
X99191209Y-98574430D01*
X98833463Y-98783380D01*
X98567738Y-98923372D01*
X98018292Y-99171349D01*
X97333077Y-99449107D01*
X96568130Y-99735885D01*
X95779482Y-100010919D01*
X95023169Y-100253448D01*
X94355224Y-100442708D01*
X92018102Y-100951509D01*
X89532623Y-101281192D01*
X87100961Y-101379342D01*
X84724010Y-101246013D01*
X82402666Y-100881260D01*
X80137825Y-100285135D01*
X77930381Y-99457692D01*
X77553856Y-99289425D01*
X75898593Y-98425014D01*
X74301840Y-97393322D01*
X72793589Y-96221540D01*
X71403831Y-94936859D01*
X70162559Y-93566468D01*
X69099765Y-92137560D01*
X68245441Y-90677324D01*
X68018013Y-90207742D01*
X67662521Y-89352371D01*
X67398321Y-88501369D01*
X67216898Y-87607167D01*
X67109736Y-86622200D01*
X67068322Y-85498899D01*
X67069588Y-85394144D01*
X67935154Y-85394144D01*
X68013457Y-86742435D01*
X68198029Y-87914198D01*
X68288216Y-88275390D01*
X68720419Y-89492842D01*
X69347179Y-90748027D01*
X70145810Y-92007610D01*
X71093627Y-93238252D01*
X72167945Y-94406618D01*
X73346076Y-95479369D01*
X73959422Y-95971503D01*
X75817117Y-97270259D01*
X77757683Y-98346611D01*
X79790045Y-99204518D01*
X81923128Y-99847941D01*
X84165857Y-100280841D01*
X84806515Y-100350587D01*
X85714494Y-100405742D01*
X86734966Y-100433244D01*
X87801107Y-100433214D01*
X88846092Y-100405774D01*
X89803096Y-100351045D01*
X90605294Y-100269149D01*
X91412873Y-100145513D01*
X93063609Y-99813547D01*
X94698198Y-99385905D01*
X96243375Y-98882879D01*
X97625874Y-98324762D01*
X98434767Y-97957992D01*
X97886369Y-97209442D01*
X97651451Y-96888979D01*
X97384284Y-96515942D01*
X97167397Y-96184868D01*
X96991587Y-95864843D01*
X96847647Y-95524954D01*
X96726371Y-95134285D01*
X96618554Y-94661924D01*
X96514991Y-94076955D01*
X96406476Y-93348465D01*
X96283803Y-92445540D01*
X96137768Y-91337265D01*
X95871407Y-89314108D01*
X94724044Y-88177171D01*
X94721192Y-88174345D01*
X94233306Y-87676929D01*
X93752236Y-87162517D01*
X93333263Y-86691618D01*
X93031668Y-86324742D01*
X92849242Y-86080847D01*
X91823412Y-84512488D01*
X90988706Y-82872720D01*
X90348325Y-81182916D01*
X89905467Y-79464446D01*
X89663331Y-77738684D01*
X89653899Y-77316177D01*
X90943785Y-77316177D01*
X91135033Y-79070395D01*
X91555908Y-80775039D01*
X92207691Y-82433190D01*
X93091664Y-84047927D01*
X94209111Y-85622332D01*
X95561312Y-87159483D01*
X95887559Y-87500787D01*
X96320839Y-87967751D01*
X96676569Y-88367491D01*
X96924662Y-88665924D01*
X97035033Y-88828967D01*
X97060367Y-88932040D01*
X97119929Y-89256673D01*
X97201746Y-89757356D01*
X97300247Y-90398490D01*
X97409859Y-91144476D01*
X97525011Y-91959714D01*
X97607148Y-92544032D01*
X97717658Y-93302816D01*
X97818129Y-93962076D01*
X97903157Y-94487598D01*
X97967339Y-94845164D01*
X98005269Y-95000559D01*
X98009846Y-95008883D01*
X98122156Y-95192332D01*
X98322809Y-95505569D01*
X98571651Y-95885830D01*
X98798926Y-96216216D01*
X99012063Y-96468444D01*
X99194033Y-96586921D01*
X99391490Y-96613033D01*
X99724619Y-96603562D01*
X99369687Y-95983204D01*
X98880830Y-95004596D01*
X98413272Y-93649673D01*
X98127919Y-92175432D01*
X98018846Y-90558075D01*
X98016629Y-90057681D01*
X98038115Y-89430482D01*
X98097537Y-88993276D01*
X98203009Y-88716985D01*
X98362645Y-88572534D01*
X98584560Y-88530845D01*
X98697345Y-88537650D01*
X98894105Y-88610647D01*
X99036866Y-88790379D01*
X99138368Y-89109782D01*
X99211347Y-89601793D01*
X99268543Y-90299347D01*
X99316287Y-90849923D01*
X99473964Y-91960691D01*
X99702653Y-93050333D01*
X99985987Y-94046729D01*
X100307598Y-94877758D01*
X100472123Y-95195236D01*
X100770526Y-95701570D01*
X101131064Y-96264596D01*
X101508087Y-96810806D01*
X101788381Y-97212531D01*
X102085795Y-97680219D01*
X102233296Y-97957992D01*
X102271812Y-98030525D01*
X102326905Y-98229613D01*
X102186262Y-98522668D01*
X101901483Y-98645792D01*
X101510851Y-98582093D01*
X101276640Y-98501021D01*
X101213931Y-98516437D01*
X101299132Y-98644241D01*
X101412300Y-98772420D01*
X101666304Y-99002168D01*
X101677016Y-99010458D01*
X101877966Y-99233211D01*
X102070080Y-99538788D01*
X102073099Y-99544532D01*
X102223139Y-99754160D01*
X102511009Y-100096907D01*
X102906747Y-100539246D01*
X103380391Y-101047650D01*
X103901977Y-101588591D01*
X103949919Y-101637539D01*
X104457042Y-102163952D01*
X104904382Y-102643435D01*
X105264669Y-103045615D01*
X105510634Y-103340119D01*
X105615006Y-103496573D01*
X105719276Y-103651980D01*
X105994898Y-103938159D01*
X106409132Y-104316220D01*
X106932459Y-104761156D01*
X107535361Y-105247961D01*
X108188320Y-105751628D01*
X108861818Y-106247151D01*
X109390518Y-106602501D01*
X110052506Y-107012168D01*
X110760769Y-107423732D01*
X111430672Y-107786478D01*
X111633212Y-107890653D01*
X112156758Y-108155943D01*
X112590203Y-108369853D01*
X112893136Y-108512662D01*
X113025147Y-108564648D01*
X113028324Y-108562655D01*
X112946042Y-108472357D01*
X112712865Y-108267499D01*
X112360839Y-107975421D01*
X111922008Y-107623463D01*
X111701953Y-107447671D01*
X110326354Y-106269559D01*
X108959978Y-104970560D01*
X107636619Y-103589037D01*
X106390070Y-102163353D01*
X105254124Y-100731871D01*
X104262575Y-99332953D01*
X103449215Y-98004963D01*
X102769885Y-96742023D01*
X102107074Y-95381658D01*
X101556644Y-94073217D01*
X101103886Y-92768498D01*
X100734088Y-91419303D01*
X100432540Y-89977432D01*
X100184531Y-88394686D01*
X99975349Y-86622864D01*
X99950566Y-86380112D01*
X99888718Y-85743770D01*
X99828105Y-85070526D01*
X99767512Y-84342081D01*
X99705721Y-83540136D01*
X99641518Y-82646392D01*
X99573686Y-81642551D01*
X99501008Y-80510314D01*
X99422270Y-79231382D01*
X99336255Y-77787457D01*
X99241746Y-76160240D01*
X99137529Y-74331431D01*
X99022386Y-72282733D01*
X98969077Y-71337573D01*
X98897107Y-70099160D01*
X98833864Y-69068609D01*
X98777815Y-68227667D01*
X98727428Y-67558076D01*
X98681169Y-67041579D01*
X98637506Y-66659922D01*
X98594907Y-66394847D01*
X98551837Y-66228098D01*
X98506765Y-66141419D01*
X98459296Y-66074355D01*
X98329890Y-65773344D01*
X98237418Y-65396573D01*
X98223767Y-65317033D01*
X98149999Y-64942808D01*
X98037487Y-64414607D01*
X97898923Y-63791071D01*
X97747002Y-63130845D01*
X97686380Y-62871987D01*
X97542918Y-62258957D01*
X97419182Y-61729620D01*
X97326740Y-61333481D01*
X97277158Y-61120041D01*
X97241526Y-60985094D01*
X97163243Y-60909896D01*
X96999897Y-61030605D01*
X96838400Y-61148962D01*
X96643497Y-61222864D01*
X96587950Y-61260562D01*
X96552517Y-61434025D01*
X96554783Y-61778282D01*
X96593263Y-62325915D01*
X96638353Y-62981692D01*
X96668910Y-63775556D01*
X96676241Y-64552882D01*
X96661373Y-65269415D01*
X96625333Y-65880901D01*
X96569147Y-66343085D01*
X96493841Y-66611713D01*
X96457754Y-66667380D01*
X96237219Y-66911528D01*
X95897045Y-67221866D01*
X95494496Y-67544921D01*
X95126432Y-67827795D01*
X94235222Y-68587340D01*
X93494980Y-69355696D01*
X92850275Y-70194644D01*
X92245675Y-71165968D01*
X92070973Y-71483929D01*
X91602271Y-72509140D01*
X91269119Y-73574789D01*
X91055476Y-74741361D01*
X90945300Y-76069343D01*
X90943785Y-77316177D01*
X89653899Y-77316177D01*
X89625118Y-76027001D01*
X89794026Y-74350770D01*
X90173256Y-72731361D01*
X90766006Y-71190148D01*
X91320133Y-70158274D01*
X92234428Y-68853663D01*
X93319113Y-67663068D01*
X94536814Y-66631668D01*
X94570170Y-66606924D01*
X94970578Y-66279100D01*
X95261366Y-65983796D01*
X95396077Y-65767721D01*
X95396704Y-65765235D01*
X95426321Y-65486874D01*
X95433166Y-65024096D01*
X95420048Y-64428825D01*
X95389778Y-63752987D01*
X95345165Y-63048508D01*
X95289019Y-62367315D01*
X95224151Y-61761333D01*
X95153369Y-61282488D01*
X94879239Y-59983045D01*
X94278852Y-57867903D01*
X94101292Y-57395595D01*
X96179097Y-57395595D01*
X96202432Y-57586179D01*
X96257667Y-57946702D01*
X96347649Y-58509953D01*
X96360398Y-58578847D01*
X96455373Y-58850295D01*
X96576549Y-58957136D01*
X96596148Y-58956059D01*
X96663087Y-58896441D01*
X96649492Y-58710664D01*
X96553525Y-58350241D01*
X96486491Y-58131967D01*
X96359090Y-57749274D01*
X96258649Y-57485687D01*
X96216729Y-57393098D01*
X96184812Y-57342164D01*
X96179097Y-57395595D01*
X94101292Y-57395595D01*
X93947735Y-56987133D01*
X96056593Y-56987133D01*
X96070865Y-57128654D01*
X96106733Y-57147310D01*
X96150364Y-57049155D01*
X96141758Y-56986025D01*
X96070865Y-56969655D01*
X96056593Y-56987133D01*
X93947735Y-56987133D01*
X93814145Y-56631784D01*
X95911867Y-56631784D01*
X95971491Y-56691408D01*
X96031116Y-56631784D01*
X95971491Y-56572159D01*
X95911867Y-56631784D01*
X93814145Y-56631784D01*
X93508318Y-55818287D01*
X93441430Y-55677793D01*
X95554120Y-55677793D01*
X95613745Y-55737418D01*
X95673369Y-55677793D01*
X95613745Y-55618169D01*
X95554120Y-55677793D01*
X93441430Y-55677793D01*
X93271111Y-55320047D01*
X95434871Y-55320047D01*
X95494496Y-55379671D01*
X95554120Y-55320047D01*
X95494496Y-55260422D01*
X95434871Y-55320047D01*
X93271111Y-55320047D01*
X93157565Y-55081549D01*
X95315623Y-55081549D01*
X95375247Y-55141173D01*
X95434871Y-55081549D01*
X95375247Y-55021925D01*
X95315623Y-55081549D01*
X93157565Y-55081549D01*
X92586633Y-53882337D01*
X91532798Y-52108192D01*
X91112294Y-51520950D01*
X90488858Y-50752775D01*
X89794247Y-49982203D01*
X89077503Y-49260613D01*
X88591825Y-48823239D01*
X91616656Y-48823239D01*
X92195584Y-49567417D01*
X92746457Y-50303375D01*
X93712630Y-51751784D01*
X94510031Y-53173568D01*
X94653105Y-53459364D01*
X94884228Y-53928838D01*
X95067926Y-54311665D01*
X95173749Y-54544929D01*
X95296750Y-54843051D01*
X95304739Y-54485305D01*
X95312194Y-54184197D01*
X95321654Y-53860140D01*
X95321628Y-53845777D01*
X95258557Y-53579776D01*
X95092951Y-53147393D01*
X94843200Y-52583734D01*
X94527692Y-51923910D01*
X94164817Y-51203029D01*
X93772963Y-50456199D01*
X93370519Y-49718530D01*
X92975876Y-49025129D01*
X92607421Y-48411105D01*
X92283544Y-47911567D01*
X92022634Y-47561624D01*
X91937539Y-47465223D01*
X91822327Y-47366372D01*
X91822991Y-47370872D01*
X91834607Y-47449624D01*
X91841592Y-47464972D01*
X92013301Y-47950986D01*
X92018517Y-48309499D01*
X91858096Y-48581798D01*
X91616656Y-48823239D01*
X88591825Y-48823239D01*
X88387667Y-48639386D01*
X87773781Y-48169900D01*
X87088746Y-47708994D01*
X85985048Y-48790133D01*
X85556548Y-49203105D01*
X85003151Y-49721685D01*
X84473125Y-50204512D01*
X84038826Y-50584863D01*
X83978629Y-50636210D01*
X83090422Y-51467776D01*
X82135246Y-52487689D01*
X81136287Y-53666292D01*
X80116732Y-54973932D01*
X79099770Y-56380951D01*
X78108585Y-57857694D01*
X77166367Y-59374507D01*
X76435363Y-60634982D01*
X75645264Y-62063135D01*
X74837318Y-63583361D01*
X74027280Y-65162790D01*
X73230904Y-66768551D01*
X72463947Y-68367775D01*
X71742161Y-69927589D01*
X71081303Y-71415125D01*
X70497126Y-72797511D01*
X70005385Y-74041877D01*
X69621836Y-75115352D01*
X69478921Y-75557436D01*
X69001383Y-77229846D01*
X68606751Y-78935743D01*
X68298918Y-80640123D01*
X68081779Y-82307985D01*
X67959226Y-83904326D01*
X67935154Y-85394144D01*
X67069588Y-85394144D01*
X67084141Y-84189697D01*
X67100325Y-83742540D01*
X67328244Y-81063451D01*
X67782188Y-78404118D01*
X68465647Y-75747670D01*
X69382110Y-73077234D01*
X69555003Y-72637244D01*
X70106498Y-71314562D01*
X70755783Y-69852773D01*
X71484336Y-68287978D01*
X72273631Y-66656276D01*
X73105144Y-64993766D01*
X73960351Y-63336547D01*
X74820729Y-61720718D01*
X75667751Y-60182378D01*
X76482895Y-58757627D01*
X77247637Y-57482563D01*
X77943451Y-56393286D01*
X78018281Y-56281455D01*
X78732402Y-55263098D01*
X79521092Y-54213976D01*
X80351383Y-53173247D01*
X81190306Y-52180070D01*
X82004893Y-51273604D01*
X82762176Y-50493009D01*
X83429187Y-49877444D01*
X83474398Y-49838890D01*
X84146240Y-49250391D01*
X84783848Y-48664764D01*
X85349273Y-48118602D01*
X85804563Y-47648493D01*
X86111766Y-47291030D01*
X86271928Y-47057488D01*
X86311745Y-46888979D01*
X86200712Y-46758775D01*
X85911797Y-46635596D01*
X85417970Y-46488162D01*
X85068087Y-46389588D01*
X84674810Y-46260443D01*
X84427855Y-46116836D01*
X84277432Y-45906886D01*
X84173755Y-45578712D01*
X84067037Y-45080436D01*
X84010244Y-44773535D01*
X83903457Y-43875741D01*
X83895290Y-43628602D01*
X84824339Y-43628602D01*
X84832313Y-44080825D01*
X84855342Y-44467173D01*
X84894246Y-44726614D01*
X84896964Y-44736262D01*
X85063285Y-44958471D01*
X85421533Y-45109097D01*
X85991859Y-45196771D01*
X86120779Y-45209845D01*
X86912006Y-45378701D01*
X87716241Y-45710641D01*
X88566007Y-46221741D01*
X89493824Y-46928080D01*
X89754327Y-47136906D01*
X90002547Y-47319654D01*
X90127581Y-47390000D01*
X90138850Y-47370872D01*
X90051247Y-47228293D01*
X89938882Y-47091878D01*
X91618909Y-47091878D01*
X91678533Y-47151502D01*
X91738158Y-47091878D01*
X91678533Y-47032253D01*
X91618909Y-47091878D01*
X89938882Y-47091878D01*
X89845926Y-46979026D01*
X89559600Y-46661975D01*
X89228984Y-46316048D01*
X88890790Y-45980151D01*
X88581732Y-45693191D01*
X88338523Y-45494075D01*
X88222487Y-45415557D01*
X87811042Y-45170525D01*
X87297966Y-44895742D01*
X86767552Y-44637185D01*
X86472910Y-44501496D01*
X85933486Y-44251023D01*
X85560173Y-44071565D01*
X85408214Y-43991408D01*
X88518439Y-43991408D01*
X88578064Y-44051033D01*
X88637688Y-43991408D01*
X88578064Y-43931784D01*
X88518439Y-43991408D01*
X85408214Y-43991408D01*
X85317511Y-43943563D01*
X85170039Y-43847462D01*
X85082299Y-43763705D01*
X85074768Y-43752911D01*
X88160693Y-43752911D01*
X88220317Y-43812535D01*
X88279942Y-43752911D01*
X88220317Y-43693286D01*
X88160693Y-43752911D01*
X85074768Y-43752911D01*
X85018830Y-43672735D01*
X84957194Y-43488523D01*
X85034306Y-43165927D01*
X85078169Y-43079992D01*
X85261485Y-42904844D01*
X85575618Y-42858544D01*
X85627111Y-42859939D01*
X86050582Y-42926270D01*
X86587477Y-43073166D01*
X87153481Y-43274556D01*
X87664280Y-43504372D01*
X87721994Y-43533503D01*
X87949332Y-43630725D01*
X88041444Y-43638733D01*
X88020461Y-43604375D01*
X87832233Y-43479938D01*
X87488837Y-43307669D01*
X87039484Y-43107425D01*
X86533385Y-42899061D01*
X86019751Y-42702434D01*
X85547794Y-42537403D01*
X85166724Y-42423822D01*
X84925753Y-42381549D01*
X84882549Y-42486993D01*
X84850277Y-42770654D01*
X84830601Y-43171534D01*
X84824339Y-43628602D01*
X83895290Y-43628602D01*
X83874789Y-43008252D01*
X83876279Y-42879351D01*
X83860277Y-42320219D01*
X83814283Y-41803712D01*
X83746242Y-41427558D01*
X83735059Y-41383471D01*
X83676797Y-41001999D01*
X83630255Y-40430684D01*
X83598084Y-39710815D01*
X83582936Y-38883679D01*
X83582412Y-38804701D01*
X83578802Y-38090782D01*
X83582043Y-37574177D01*
X83595128Y-37259812D01*
X84463979Y-37259812D01*
X84463979Y-38856937D01*
X84464190Y-38979538D01*
X84471332Y-39575400D01*
X84487113Y-40085051D01*
X84509476Y-40457733D01*
X84536362Y-40642688D01*
X84678867Y-40775278D01*
X85025957Y-40831314D01*
X85494678Y-40876223D01*
X86186430Y-41029532D01*
X87009847Y-41281213D01*
X87924995Y-41620397D01*
X88413634Y-41836995D01*
X89112600Y-42235956D01*
X89798391Y-42748819D01*
X90512530Y-43407911D01*
X90835436Y-43752911D01*
X91058659Y-43991408D01*
X91296537Y-44245562D01*
X91397599Y-44360483D01*
X91865359Y-44914778D01*
X92383079Y-45557634D01*
X92921806Y-46250229D01*
X93452589Y-46953739D01*
X93553572Y-47091878D01*
X93946473Y-47629344D01*
X94374507Y-48238219D01*
X94707737Y-48741543D01*
X94917210Y-49100492D01*
X95047036Y-49350147D01*
X95262035Y-49736291D01*
X95433612Y-50013474D01*
X95464581Y-50060748D01*
X95641761Y-50401402D01*
X95793803Y-50788591D01*
X95808719Y-50833100D01*
X95997413Y-51273730D01*
X96226965Y-51679707D01*
X96307874Y-51810126D01*
X96523575Y-52234453D01*
X96700276Y-52676966D01*
X96765556Y-52865299D01*
X96921654Y-53271046D01*
X97058049Y-53574583D01*
X97168049Y-53843873D01*
X97171319Y-53860140D01*
X97222869Y-54116618D01*
X97235503Y-54195713D01*
X97327047Y-54484429D01*
X97487706Y-54895887D01*
X97568854Y-55081549D01*
X97673095Y-55320047D01*
X97694373Y-55368731D01*
X97825972Y-55677793D01*
X97841308Y-55713810D01*
X98130138Y-56515774D01*
X98165949Y-56631784D01*
X98294787Y-57049155D01*
X98432804Y-57496263D01*
X98740509Y-58617339D01*
X98809832Y-58896441D01*
X99044455Y-59841067D01*
X99335842Y-61129509D01*
X99605872Y-62444729D01*
X99845748Y-63748790D01*
X100046670Y-65003756D01*
X100199840Y-66171690D01*
X100244544Y-66636481D01*
X100297826Y-67309891D01*
X100357946Y-68161276D01*
X100423215Y-69160461D01*
X100491944Y-70277276D01*
X100562447Y-71481545D01*
X100633034Y-72743098D01*
X100702017Y-74031761D01*
X100767708Y-75317362D01*
X100828419Y-76569726D01*
X100882462Y-77758683D01*
X100928148Y-78854059D01*
X100963790Y-79825681D01*
X100971748Y-80024531D01*
X101007937Y-80670855D01*
X101061940Y-81443189D01*
X101127881Y-82261411D01*
X101199886Y-83045399D01*
X101230230Y-83354589D01*
X101317760Y-84261008D01*
X101412954Y-85263363D01*
X101506211Y-86260117D01*
X101587931Y-87149736D01*
X101684672Y-88089606D01*
X101791041Y-88894133D01*
X101901658Y-89525905D01*
X102011560Y-89952084D01*
X102058753Y-90093845D01*
X102208051Y-90581452D01*
X102374329Y-91166105D01*
X102529581Y-91750563D01*
X102727088Y-92457318D01*
X103032442Y-93400554D01*
X103387938Y-94380944D01*
X103771995Y-95344779D01*
X104163033Y-96238346D01*
X104539473Y-97007936D01*
X104879734Y-97599839D01*
X105084259Y-97930487D01*
X105326857Y-98361229D01*
X105493797Y-98702890D01*
X105535387Y-98796665D01*
X105675404Y-99044562D01*
X105783284Y-99143990D01*
X105784648Y-99144017D01*
X105908438Y-99241714D01*
X106057678Y-99471925D01*
X106088593Y-99528412D01*
X106329909Y-99890838D01*
X106707971Y-100385877D01*
X107196928Y-100983252D01*
X107770932Y-101652685D01*
X108404133Y-102363900D01*
X109070682Y-103086618D01*
X109744731Y-103790563D01*
X110035159Y-104081136D01*
X110500200Y-104525762D01*
X110978550Y-104963185D01*
X111439281Y-105367115D01*
X111851465Y-105711261D01*
X112184173Y-105969331D01*
X112406479Y-106115034D01*
X112487454Y-106122079D01*
X112483353Y-106108754D01*
X112375264Y-105958542D01*
X112150168Y-105695129D01*
X111848119Y-105365889D01*
X111701556Y-105209283D01*
X110635362Y-103989767D01*
X109578828Y-102651131D01*
X108595127Y-101276809D01*
X107747433Y-99950231D01*
X107445867Y-99438763D01*
X107110439Y-98858122D01*
X106829746Y-98359295D01*
X106626664Y-97983048D01*
X106524069Y-97770148D01*
X106422740Y-97532362D01*
X106241567Y-97134750D01*
X106017541Y-96657059D01*
X107334379Y-96657059D01*
X107338895Y-97000547D01*
X107467840Y-97445075D01*
X107728802Y-98019515D01*
X108129367Y-98752741D01*
X108586781Y-99529935D01*
X109419567Y-100842764D01*
X110281060Y-102057282D01*
X111214637Y-103229678D01*
X112263677Y-104416141D01*
X113471556Y-105672864D01*
X113753309Y-105953293D01*
X113928312Y-106122079D01*
X114189605Y-106374089D01*
X114555616Y-106710516D01*
X114819440Y-106933611D01*
X114949177Y-107014413D01*
X114985720Y-107009286D01*
X115037416Y-106903205D01*
X114979914Y-106626854D01*
X114948583Y-106484840D01*
X114894921Y-106094293D01*
X114847895Y-105581464D01*
X114815037Y-105019754D01*
X114796488Y-104669473D01*
X114755645Y-104174319D01*
X114706272Y-103793380D01*
X114655301Y-103588768D01*
X114637065Y-103549470D01*
X114544254Y-103262338D01*
X114464805Y-102900328D01*
X114435152Y-102734802D01*
X114344071Y-102270381D01*
X114244078Y-101801397D01*
X114104622Y-101179462D01*
X113680177Y-101022135D01*
X115864013Y-101022135D01*
X115883938Y-101141408D01*
X115902029Y-101195472D01*
X115973753Y-101473804D01*
X116067298Y-101893235D01*
X116167184Y-102385761D01*
X116208684Y-102594952D01*
X116302793Y-103031011D01*
X116381793Y-103347115D01*
X116431886Y-103485919D01*
X116442009Y-103486196D01*
X116497259Y-103353949D01*
X116571045Y-103051146D01*
X116650280Y-102629126D01*
X116657830Y-102584591D01*
X116756314Y-102082256D01*
X116866201Y-101629770D01*
X116965085Y-101320281D01*
X117125988Y-100932723D01*
X116463446Y-100932723D01*
X116213879Y-100935400D01*
X115958043Y-100959209D01*
X115864013Y-101022135D01*
X113680177Y-101022135D01*
X113289739Y-100877413D01*
X113073809Y-100791009D01*
X112538650Y-100546323D01*
X111942242Y-100243881D01*
X111378103Y-99930031D01*
X111150222Y-99799859D01*
X113083698Y-99799859D01*
X113143322Y-99859483D01*
X113202946Y-99799859D01*
X113143322Y-99740235D01*
X113083698Y-99799859D01*
X111150222Y-99799859D01*
X110968916Y-99696292D01*
X110515021Y-99467204D01*
X110194120Y-99354668D01*
X109971186Y-99344098D01*
X109833312Y-99357655D01*
X109610379Y-99279689D01*
X109461674Y-99120340D01*
X112010458Y-99120340D01*
X112032254Y-99162110D01*
X112202865Y-99307782D01*
X112487454Y-99487408D01*
X112638202Y-99569487D01*
X112872225Y-99682546D01*
X112964449Y-99704087D01*
X112937663Y-99669415D01*
X112765799Y-99530944D01*
X112487454Y-99337018D01*
X112321298Y-99233292D01*
X112097979Y-99121287D01*
X112010458Y-99120340D01*
X109461674Y-99120340D01*
X109374941Y-99027398D01*
X109255296Y-98874308D01*
X108958757Y-98511237D01*
X108647317Y-98145120D01*
X108358329Y-97780356D01*
X108054500Y-97225123D01*
X107960088Y-96727773D01*
X108909989Y-96727773D01*
X108963192Y-97002562D01*
X109148486Y-97295634D01*
X109234144Y-97371412D01*
X109340503Y-97428561D01*
X109380726Y-97322662D01*
X109386984Y-97015994D01*
X109385419Y-96893001D01*
X109367873Y-96626686D01*
X109337113Y-96520516D01*
X109288711Y-96511272D01*
X109098615Y-96448134D01*
X109044841Y-96432193D01*
X108938858Y-96484722D01*
X108909989Y-96727773D01*
X107960088Y-96727773D01*
X107955998Y-96706228D01*
X107944742Y-96578736D01*
X107839663Y-96338017D01*
X107669833Y-96238481D01*
X107491714Y-96326327D01*
X107446703Y-96385738D01*
X107334379Y-96657059D01*
X106017541Y-96657059D01*
X106006629Y-96633792D01*
X105743658Y-96085050D01*
X105723415Y-96043207D01*
X105648203Y-95885022D01*
X110210193Y-95885022D01*
X110287648Y-97007699D01*
X110288275Y-97015994D01*
X110318201Y-97412031D01*
X110364346Y-97812725D01*
X110428807Y-98072108D01*
X110527449Y-98246761D01*
X110676135Y-98393266D01*
X110987167Y-98656157D01*
X111130524Y-98315211D01*
X111283677Y-98069580D01*
X111592201Y-97881998D01*
X111963847Y-97910182D01*
X112066254Y-97959946D01*
X112354919Y-98127787D01*
X112751872Y-98375876D01*
X113202946Y-98670955D01*
X113435121Y-98823688D01*
X113967429Y-99159401D01*
X114472073Y-99460767D01*
X114864969Y-99676897D01*
X114919503Y-99704056D01*
X114919587Y-99704087D01*
X115179062Y-99799859D01*
X115648023Y-99972952D01*
X116386187Y-100060761D01*
X117155832Y-99962343D01*
X117617273Y-99799859D01*
X119642383Y-99799859D01*
X119702008Y-99859483D01*
X119761632Y-99799859D01*
X119702008Y-99740235D01*
X119642383Y-99799859D01*
X117617273Y-99799859D01*
X117915735Y-99694764D01*
X119880881Y-99694764D01*
X119882141Y-99712594D01*
X119919657Y-99730917D01*
X120050156Y-99668845D01*
X120328064Y-99503044D01*
X120393012Y-99461647D01*
X120622763Y-99278590D01*
X120715623Y-99139674D01*
X120695689Y-99116157D01*
X120546150Y-99166876D01*
X120298252Y-99330948D01*
X120182489Y-99421035D01*
X119966544Y-99601909D01*
X119880881Y-99694764D01*
X117915735Y-99694764D01*
X117978795Y-99672559D01*
X118876914Y-99186269D01*
X119872025Y-98498332D01*
X120047187Y-98368687D01*
X120557211Y-98030781D01*
X120943843Y-97861579D01*
X121239217Y-97858237D01*
X121475469Y-98017907D01*
X121684733Y-98337742D01*
X121853769Y-98664357D01*
X122179062Y-98362728D01*
X122310207Y-98229995D01*
X122435355Y-98027034D01*
X122491699Y-97751453D01*
X122503537Y-97370572D01*
X123374361Y-97370572D01*
X123450623Y-97474507D01*
X123495184Y-97459729D01*
X123657641Y-97303886D01*
X123841282Y-97044742D01*
X123991613Y-96765741D01*
X124054144Y-96550328D01*
X124038845Y-96487329D01*
X123890318Y-96401267D01*
X123772815Y-96423947D01*
X123555441Y-96640708D01*
X123403016Y-97086948D01*
X123374361Y-97370572D01*
X122503537Y-97370572D01*
X122505090Y-97320620D01*
X122521101Y-96977706D01*
X122581944Y-96553321D01*
X122672518Y-96260636D01*
X122736781Y-96128808D01*
X122790468Y-95929255D01*
X122692721Y-95911998D01*
X122442943Y-96077194D01*
X122040536Y-96424996D01*
X121536277Y-96864203D01*
X120633077Y-97555905D01*
X119697487Y-98168266D01*
X118775127Y-98674783D01*
X117911620Y-99048958D01*
X117152586Y-99264289D01*
X116349092Y-99326935D01*
X115397197Y-99200118D01*
X114389140Y-98861385D01*
X113318248Y-98307803D01*
X112177848Y-97536443D01*
X110961265Y-96544371D01*
X110210193Y-95885022D01*
X105648203Y-95885022D01*
X105478248Y-95527573D01*
X105278209Y-95091063D01*
X105143427Y-94778598D01*
X105094026Y-94635100D01*
X105093966Y-94632925D01*
X105044975Y-94470214D01*
X104933448Y-94187662D01*
X105928862Y-94187662D01*
X105928866Y-94188210D01*
X105977705Y-94354941D01*
X106104337Y-94667878D01*
X106281545Y-95059718D01*
X106291044Y-95079769D01*
X106469325Y-95445595D01*
X106604874Y-95704964D01*
X106669010Y-95802868D01*
X106672346Y-95801879D01*
X106777226Y-95706858D01*
X106963172Y-95504746D01*
X107111164Y-95362347D01*
X107376509Y-95241043D01*
X107773842Y-95208779D01*
X108325225Y-95208779D01*
X107911748Y-94783036D01*
X107806603Y-94671365D01*
X107483421Y-94296265D01*
X107220327Y-93950161D01*
X107161540Y-93867698D01*
X106944822Y-93612748D01*
X106773906Y-93477830D01*
X106701237Y-93476312D01*
X106479123Y-93581051D01*
X106224854Y-93777784D01*
X106015682Y-94001619D01*
X105928862Y-94187662D01*
X104933448Y-94187662D01*
X104922104Y-94158922D01*
X104751121Y-93764475D01*
X104687990Y-93618182D01*
X104483707Y-93088971D01*
X104270316Y-92471452D01*
X104084904Y-91871028D01*
X104006490Y-91601417D01*
X103846614Y-91077168D01*
X103702139Y-90633581D01*
X103631067Y-90438826D01*
X104668635Y-90438826D01*
X104676115Y-90542132D01*
X104746817Y-90833047D01*
X104870089Y-91272062D01*
X105034821Y-91819641D01*
X105229901Y-92436244D01*
X105353267Y-92805960D01*
X105451195Y-93077740D01*
X105498809Y-93181549D01*
X105513506Y-93172667D01*
X105644939Y-93051435D01*
X105859860Y-92833493D01*
X105871574Y-92821174D01*
X106084936Y-92529541D01*
X106097952Y-92326685D01*
X106089654Y-92313181D01*
X105953453Y-92114151D01*
X105732261Y-91809363D01*
X105463712Y-91448524D01*
X105185440Y-91081343D01*
X104935081Y-90757528D01*
X104750267Y-90526786D01*
X104668635Y-90438826D01*
X103631067Y-90438826D01*
X103596943Y-90345317D01*
X103580288Y-90305664D01*
X103463737Y-90074905D01*
X103348055Y-90026657D01*
X103160108Y-90123842D01*
X103090444Y-90163213D01*
X102749479Y-90225985D01*
X102468083Y-90083212D01*
X102307928Y-89761143D01*
X102270090Y-89525670D01*
X102216421Y-89109237D01*
X102166126Y-88644279D01*
X102149650Y-88460270D01*
X102135622Y-88076823D01*
X102174964Y-87846759D01*
X102274628Y-87710254D01*
X102514373Y-87598467D01*
X102800620Y-87664620D01*
X103032231Y-87935657D01*
X103127368Y-88087237D01*
X103174571Y-88056739D01*
X103154850Y-87819242D01*
X103067439Y-87386677D01*
X103064885Y-87375558D01*
X102957946Y-86810969D01*
X102845507Y-86041992D01*
X102730838Y-85101751D01*
X102617210Y-84023371D01*
X102507893Y-82839975D01*
X102406158Y-81584688D01*
X102315275Y-80290635D01*
X102238515Y-78990939D01*
X102221110Y-78691082D01*
X102122876Y-77479070D01*
X102029323Y-76679459D01*
X102973362Y-76679459D01*
X103003839Y-76914624D01*
X103004768Y-76920369D01*
X103029783Y-77156056D01*
X103063720Y-77584206D01*
X103103556Y-78161194D01*
X103146274Y-78843394D01*
X103188851Y-79587183D01*
X103235018Y-80386886D01*
X103350972Y-82075242D01*
X103481926Y-83590684D01*
X103626455Y-84922296D01*
X103783134Y-86059162D01*
X103950539Y-86990366D01*
X104127245Y-87704992D01*
X104311828Y-88192124D01*
X104393259Y-88339638D01*
X104669729Y-88774880D01*
X105052637Y-89326709D01*
X105508230Y-89951004D01*
X106002756Y-90603639D01*
X106502463Y-91240492D01*
X106973599Y-91817438D01*
X107382413Y-92290355D01*
X107417398Y-92326685D01*
X107695153Y-92615117D01*
X108071741Y-92953430D01*
X108315107Y-93138583D01*
X108421109Y-93162517D01*
X108402037Y-93032488D01*
X108353897Y-92892219D01*
X108242817Y-92558771D01*
X108082728Y-92073856D01*
X107886479Y-91476402D01*
X107666920Y-90805338D01*
X107465032Y-90204250D01*
X107234991Y-89557785D01*
X107024674Y-89005331D01*
X106851137Y-88591459D01*
X106731435Y-88360737D01*
X106697168Y-88313936D01*
X106458847Y-88027704D01*
X106122872Y-87660113D01*
X105750501Y-87278732D01*
X105692885Y-87220841D01*
X105076450Y-86472391D01*
X104542146Y-85591830D01*
X104105897Y-84627693D01*
X103783625Y-83628518D01*
X103591253Y-82642840D01*
X103567802Y-82177530D01*
X104447084Y-82177530D01*
X104546238Y-82934056D01*
X104764097Y-83743408D01*
X105090852Y-84571292D01*
X105516695Y-85383419D01*
X106031816Y-86145496D01*
X106626408Y-86823231D01*
X106800060Y-87000056D01*
X107180551Y-87421627D01*
X107495308Y-87814975D01*
X107689438Y-88113474D01*
X107764393Y-88282625D01*
X107919763Y-88685316D01*
X108115573Y-89231830D01*
X108334213Y-89872604D01*
X108558070Y-90558075D01*
X108801611Y-91314021D01*
X109054022Y-92071062D01*
X109263148Y-92656640D01*
X109441947Y-93102620D01*
X109470534Y-93162517D01*
X109603379Y-93440864D01*
X109760401Y-93703238D01*
X109925973Y-93921605D01*
X109970157Y-93976184D01*
X110149155Y-94250613D01*
X110221726Y-94457589D01*
X110283402Y-94596133D01*
X110485367Y-94846912D01*
X110779148Y-95134121D01*
X110863988Y-95208779D01*
X110935630Y-95271823D01*
X111912676Y-96107954D01*
X112759730Y-96784931D01*
X113501453Y-97319527D01*
X114162508Y-97728513D01*
X114767555Y-98028661D01*
X115341257Y-98236743D01*
X115411009Y-98257090D01*
X115969491Y-98387728D01*
X116469217Y-98424374D01*
X116975703Y-98359354D01*
X117554466Y-98184996D01*
X118271022Y-97893626D01*
X118880187Y-97580581D01*
X119658966Y-97085382D01*
X120505067Y-96463361D01*
X121374582Y-95744920D01*
X121719859Y-95448034D01*
X121913810Y-95286149D01*
X124315717Y-95286149D01*
X124955106Y-95233126D01*
X125197945Y-95216595D01*
X125498647Y-95231260D01*
X125716642Y-95327637D01*
X125949897Y-95535506D01*
X126305300Y-95890909D01*
X126553998Y-95312796D01*
X126714686Y-94922823D01*
X126848568Y-94505611D01*
X126870078Y-94205311D01*
X126780099Y-93967383D01*
X126579514Y-93737287D01*
X126496329Y-93658643D01*
X126291607Y-93496747D01*
X126137330Y-93479216D01*
X125944884Y-93584752D01*
X125901912Y-93615984D01*
X125660848Y-93829820D01*
X125337719Y-94152955D01*
X124990083Y-94528496D01*
X124315717Y-95286149D01*
X121913810Y-95286149D01*
X122282195Y-94978669D01*
X122829036Y-94536528D01*
X123279472Y-94187751D01*
X123442451Y-94064491D01*
X124159002Y-93472061D01*
X124683097Y-92943168D01*
X125000756Y-92491590D01*
X125089523Y-92389375D01*
X126728564Y-92389375D01*
X126776500Y-92551098D01*
X126930467Y-92765645D01*
X127130316Y-92970583D01*
X127315902Y-93103477D01*
X127427077Y-93101891D01*
X127483191Y-92967835D01*
X127588143Y-92661434D01*
X127720232Y-92245997D01*
X127862775Y-91777541D01*
X127999089Y-91312081D01*
X128112490Y-90905635D01*
X128186296Y-90614218D01*
X128203822Y-90493849D01*
X128184191Y-90501217D01*
X128053125Y-90634445D01*
X127834163Y-90892650D01*
X127564748Y-91227873D01*
X127282323Y-91592155D01*
X127024331Y-91937537D01*
X126828216Y-92216061D01*
X126731419Y-92379768D01*
X126728564Y-92389375D01*
X125089523Y-92389375D01*
X125168681Y-92298225D01*
X125462249Y-92149480D01*
X125508914Y-92136066D01*
X125760106Y-91976645D01*
X126083936Y-91643138D01*
X126499191Y-91116836D01*
X126511349Y-91100466D01*
X127287518Y-90037876D01*
X127908611Y-89149528D01*
X128373903Y-88436530D01*
X128682672Y-87899992D01*
X128834191Y-87541022D01*
X128915220Y-87176343D01*
X129021996Y-86530755D01*
X129131060Y-85710546D01*
X129239205Y-84751247D01*
X129343227Y-83688389D01*
X129439919Y-82557501D01*
X129526075Y-81394112D01*
X129598490Y-80233753D01*
X129653957Y-79111954D01*
X129689271Y-78064245D01*
X129695953Y-77736851D01*
X129696006Y-77305784D01*
X129677343Y-77066523D01*
X129636458Y-76989116D01*
X129627410Y-76996518D01*
X129569848Y-77043610D01*
X129488502Y-77186833D01*
X129420787Y-77442709D01*
X129390495Y-77572229D01*
X129201360Y-77832963D01*
X128919190Y-78048190D01*
X128907024Y-78057470D01*
X128587318Y-78175556D01*
X128492334Y-78198829D01*
X128252259Y-78376918D01*
X128012529Y-78752441D01*
X127908514Y-78939578D01*
X127331442Y-79687816D01*
X126788120Y-80138804D01*
X126571780Y-80318379D01*
X125660305Y-80809561D01*
X124627794Y-81139654D01*
X124195547Y-81210853D01*
X123478859Y-81248455D01*
X122751113Y-81208389D01*
X122092930Y-81096511D01*
X121584927Y-80918676D01*
X121441769Y-80850341D01*
X121075499Y-80714448D01*
X120794465Y-80660422D01*
X120516635Y-80563387D01*
X120334040Y-80286917D01*
X120271648Y-79872927D01*
X120278959Y-79821485D01*
X121669613Y-79821485D01*
X121734405Y-79930252D01*
X121937923Y-80077334D01*
X122112362Y-80164403D01*
X122129894Y-80138804D01*
X121979065Y-79962281D01*
X121801264Y-79774810D01*
X121696581Y-79718075D01*
X121669613Y-79821485D01*
X120278959Y-79821485D01*
X120344053Y-79363438D01*
X120354076Y-79327539D01*
X120556051Y-78831801D01*
X120813949Y-78373973D01*
X121881409Y-78373973D01*
X122222694Y-78807358D01*
X122297598Y-78897657D01*
X122623359Y-79227353D01*
X122943316Y-79478232D01*
X122956984Y-79486627D01*
X123292507Y-79631698D01*
X123704217Y-79730572D01*
X124130935Y-79779662D01*
X124511480Y-79775380D01*
X124784672Y-79714137D01*
X124889331Y-79592347D01*
X124848012Y-79526464D01*
X124659389Y-79435619D01*
X124491785Y-79316250D01*
X124384708Y-79036145D01*
X124377818Y-78795410D01*
X126834751Y-78795410D01*
X126851829Y-78871690D01*
X126918714Y-78834628D01*
X127044297Y-78635876D01*
X127156396Y-78343755D01*
X127223471Y-78048190D01*
X127213986Y-77839102D01*
X127152621Y-77750284D01*
X127092176Y-77832693D01*
X127024101Y-78128217D01*
X126999044Y-78253520D01*
X126921579Y-78571097D01*
X126855805Y-78754273D01*
X126834751Y-78795410D01*
X124377818Y-78795410D01*
X124374329Y-78673498D01*
X124452738Y-78298570D01*
X124612028Y-77981620D01*
X124844290Y-77792906D01*
X125061563Y-77746615D01*
X125409703Y-77750612D01*
X125728070Y-77817986D01*
X125913668Y-77935047D01*
X125926423Y-77953721D01*
X126047513Y-77996088D01*
X126154807Y-77863063D01*
X126201069Y-77608344D01*
X126201073Y-77605039D01*
X126294907Y-77163379D01*
X126542584Y-76867765D01*
X126897272Y-76735721D01*
X127312140Y-76784766D01*
X127740358Y-77032423D01*
X127892875Y-77147128D01*
X128212599Y-77284574D01*
X128447127Y-77233899D01*
X128563974Y-76996518D01*
X128535707Y-76785202D01*
X128325477Y-76677277D01*
X128279378Y-76668140D01*
X127499037Y-76576192D01*
X126610669Y-76566197D01*
X125682686Y-76630951D01*
X124783499Y-76763253D01*
X123981520Y-76955897D01*
X123345162Y-77201681D01*
X123060502Y-77362912D01*
X122621329Y-77663905D01*
X122282319Y-77956167D01*
X121881409Y-78373973D01*
X120813949Y-78373973D01*
X120872351Y-78270296D01*
X121247391Y-77732229D01*
X121625584Y-77306804D01*
X121811266Y-77058470D01*
X121908111Y-76710493D01*
X121975032Y-76450220D01*
X122234888Y-76138543D01*
X122703359Y-75812236D01*
X123393917Y-75459959D01*
X124088334Y-75234444D01*
X124954403Y-75131189D01*
X125845609Y-75181702D01*
X126678064Y-75387825D01*
X126921995Y-75467675D01*
X127484523Y-75607471D01*
X128006589Y-75689946D01*
X128139658Y-75701030D01*
X128524111Y-75704963D01*
X128809844Y-75633005D01*
X129103314Y-75463138D01*
X129192431Y-75406606D01*
X129540142Y-75241417D01*
X129831831Y-75174976D01*
X130035201Y-75137180D01*
X130141473Y-75025915D01*
X130145339Y-74977658D01*
X130182414Y-74718909D01*
X130244615Y-74370564D01*
X130342564Y-73864274D01*
X129571511Y-73377310D01*
X129421037Y-73283906D01*
X128884820Y-72995135D01*
X128418911Y-72846100D01*
X127939473Y-72818453D01*
X127362671Y-72893844D01*
X127203169Y-72925508D01*
X126596513Y-73085764D01*
X125935459Y-73325723D01*
X125799833Y-73386254D01*
X125185365Y-73660496D01*
X124311584Y-74105194D01*
X123279472Y-74674930D01*
X123207122Y-74715999D01*
X122574897Y-75077238D01*
X122107973Y-75355225D01*
X121767720Y-75580868D01*
X121515510Y-75785077D01*
X121312712Y-75998761D01*
X121120697Y-76252829D01*
X120900836Y-76578190D01*
X120780504Y-76755689D01*
X120507753Y-77131872D01*
X120283748Y-77406158D01*
X120147926Y-77528755D01*
X119971230Y-77537363D01*
X119694403Y-77458937D01*
X119642377Y-77431607D01*
X119436073Y-77183126D01*
X119391983Y-76812797D01*
X119507751Y-76363609D01*
X119781020Y-75878549D01*
X119934481Y-75671833D01*
X120132158Y-75428000D01*
X120245482Y-75318277D01*
X120245583Y-75318236D01*
X120270448Y-75195796D01*
X120207889Y-74951749D01*
X120147061Y-74654146D01*
X120154774Y-74515132D01*
X121073369Y-74515132D01*
X121080696Y-74585872D01*
X121162806Y-74732984D01*
X121281786Y-74701019D01*
X121565435Y-74568108D01*
X121967771Y-74355056D01*
X122444731Y-74084163D01*
X122894073Y-73818140D01*
X123262748Y-73593777D01*
X123500151Y-73442029D01*
X123568669Y-73386254D01*
X123540337Y-73389517D01*
X123317823Y-73449913D01*
X122957599Y-73568446D01*
X122525384Y-73721397D01*
X122086892Y-73885045D01*
X121707842Y-74035671D01*
X121453950Y-74149553D01*
X121407807Y-74174658D01*
X121170174Y-74352911D01*
X121073369Y-74515132D01*
X120154774Y-74515132D01*
X120167627Y-74283480D01*
X120203910Y-74160368D01*
X120317123Y-73926599D01*
X120502111Y-73714288D01*
X120785080Y-73508755D01*
X121192233Y-73295316D01*
X121749774Y-73059291D01*
X122483907Y-72785998D01*
X123420837Y-72460754D01*
X124116533Y-72225724D01*
X124975830Y-71943202D01*
X125671852Y-71728181D01*
X126240685Y-71571919D01*
X126718417Y-71465672D01*
X127141132Y-71400698D01*
X127544917Y-71368254D01*
X127965858Y-71359596D01*
X128249342Y-71365081D01*
X128674271Y-71414003D01*
X129071432Y-71537712D01*
X129553859Y-71765068D01*
X130342799Y-72169958D01*
X130285375Y-71615425D01*
X130234206Y-71270274D01*
X130114904Y-70678275D01*
X129948438Y-69962773D01*
X129750004Y-69181121D01*
X129534800Y-68390669D01*
X129318020Y-67648769D01*
X129114862Y-67012771D01*
X128940523Y-66540026D01*
X128880533Y-66398251D01*
X128460567Y-65534697D01*
X127971895Y-64765975D01*
X127366501Y-64024549D01*
X126596368Y-63242881D01*
X126378030Y-63036750D01*
X125962332Y-62658855D01*
X125635823Y-62398499D01*
X125343223Y-62219472D01*
X125029252Y-62085568D01*
X124638631Y-61960578D01*
X124008564Y-61809358D01*
X122838678Y-61699481D01*
X122741331Y-61699724D01*
X122272245Y-61715406D01*
X121925166Y-61774038D01*
X121658182Y-61878732D01*
X121600587Y-61901317D01*
X121527898Y-61941433D01*
X121199007Y-62122942D01*
X121181233Y-62133407D01*
X120825837Y-62364836D01*
X120773238Y-62407588D01*
X120573247Y-62570139D01*
X120477125Y-62705976D01*
X120483258Y-62769150D01*
X120646818Y-63057723D01*
X121011948Y-63348837D01*
X121550364Y-63618446D01*
X121927288Y-63786183D01*
X122430665Y-64093020D01*
X122699928Y-64409288D01*
X122704841Y-64452636D01*
X122737876Y-64744086D01*
X122547311Y-65106515D01*
X122131031Y-65505677D01*
X121814134Y-65735627D01*
X121577922Y-65873414D01*
X121495465Y-65921513D01*
X121283531Y-65992817D01*
X121118799Y-66035958D01*
X121140519Y-66201502D01*
X121218257Y-66469204D01*
X121280804Y-66906194D01*
X121291786Y-67151343D01*
X121300995Y-67356895D01*
X121268453Y-67699791D01*
X121206103Y-67838914D01*
X121002114Y-68130542D01*
X120721611Y-68442313D01*
X120564338Y-68610308D01*
X120329806Y-68936044D01*
X120240634Y-69188645D01*
X120232087Y-69325406D01*
X120057117Y-69830368D01*
X119670184Y-70271242D01*
X119089177Y-70632019D01*
X118331985Y-70896691D01*
X117557533Y-71091644D01*
X117494105Y-71306427D01*
X117377658Y-71700749D01*
X117305190Y-71919179D01*
X117144531Y-72296329D01*
X116990264Y-72549928D01*
X116696914Y-72758705D01*
X116366329Y-72758521D01*
X116030222Y-72553182D01*
X115711462Y-72156875D01*
X115432917Y-71583787D01*
X115416604Y-71541220D01*
X115294484Y-71263188D01*
X115267687Y-71232727D01*
X116303416Y-71232727D01*
X116307965Y-71266184D01*
X116422665Y-71418638D01*
X116484103Y-71429857D01*
X116541914Y-71306427D01*
X116527319Y-71217580D01*
X116422665Y-71120516D01*
X116394372Y-71123728D01*
X116303416Y-71232727D01*
X115267687Y-71232727D01*
X115152758Y-71102084D01*
X114919584Y-71005609D01*
X114523125Y-70921466D01*
X114138271Y-70822709D01*
X113520815Y-70538576D01*
X113036354Y-70146255D01*
X112719960Y-69677877D01*
X112606702Y-69165574D01*
X112536168Y-68913748D01*
X112250883Y-68658084D01*
X112209979Y-68632959D01*
X111821811Y-68250266D01*
X111608330Y-67718686D01*
X111582048Y-67222467D01*
X112441050Y-67222467D01*
X112496397Y-67505444D01*
X112526000Y-67567503D01*
X112672685Y-67752729D01*
X112858181Y-67908291D01*
X113016037Y-67985285D01*
X113079805Y-67934806D01*
X113055930Y-67791253D01*
X112972080Y-67512046D01*
X112853978Y-67199083D01*
X112728858Y-66917428D01*
X112623951Y-66732149D01*
X112566487Y-66708310D01*
X112543510Y-66781653D01*
X112454939Y-67066056D01*
X112441050Y-67222467D01*
X111582048Y-67222467D01*
X111573149Y-67054445D01*
X111719884Y-66273770D01*
X111734479Y-66147294D01*
X111661013Y-66007145D01*
X111622191Y-65977718D01*
X113560693Y-65977718D01*
X113569631Y-66273472D01*
X113628692Y-66658093D01*
X113765983Y-67055514D01*
X114007876Y-67558992D01*
X114050153Y-67640537D01*
X114214745Y-67934806D01*
X114289882Y-68069142D01*
X114504099Y-68354587D01*
X114752487Y-68562813D01*
X115094733Y-68759761D01*
X115342802Y-68876485D01*
X116128114Y-69085308D01*
X116917282Y-69056937D01*
X117697506Y-68791216D01*
X118296007Y-68381676D01*
X118491424Y-68139296D01*
X119695485Y-68139296D01*
X119701879Y-68138434D01*
X119829941Y-68036159D01*
X120027709Y-67814086D01*
X120238433Y-67544441D01*
X120405362Y-67299451D01*
X120471746Y-67151343D01*
X120471570Y-67147752D01*
X120418476Y-66939904D01*
X120302558Y-66648685D01*
X120138749Y-66290939D01*
X120126445Y-66708310D01*
X120118308Y-66810767D01*
X120031579Y-67220089D01*
X119884092Y-67632488D01*
X119811781Y-67796745D01*
X119715116Y-68042559D01*
X119695485Y-68139296D01*
X118491424Y-68139296D01*
X118766316Y-67798340D01*
X119119040Y-67021607D01*
X119125957Y-67000850D01*
X119232570Y-66486998D01*
X119270349Y-65873414D01*
X119242723Y-65243043D01*
X119153123Y-64678826D01*
X119004980Y-64263709D01*
X118928602Y-64134671D01*
X118840925Y-64036476D01*
X118829744Y-64144460D01*
X118826148Y-64377426D01*
X118769940Y-64710892D01*
X118710083Y-64880184D01*
X118562334Y-65008652D01*
X118266997Y-65038826D01*
X117914453Y-64962412D01*
X117613935Y-64689710D01*
X117440673Y-64234027D01*
X117403989Y-63610789D01*
X117410538Y-63494585D01*
X117418708Y-63428967D01*
X119611472Y-63428967D01*
X119770584Y-63727089D01*
X119861689Y-63940655D01*
X119993124Y-64333131D01*
X120117098Y-64779530D01*
X120304500Y-65533849D01*
X120692734Y-64993242D01*
X121080968Y-64452636D01*
X120689610Y-64255122D01*
X120672395Y-64246303D01*
X120301844Y-64015962D01*
X119954862Y-63743288D01*
X119611472Y-63428967D01*
X117418708Y-63428967D01*
X117454224Y-63143698D01*
X117545643Y-62942726D01*
X117712496Y-62820734D01*
X117988712Y-62683598D01*
X117663308Y-62427635D01*
X117469120Y-62295160D01*
X117169967Y-62184618D01*
X118836879Y-62184618D01*
X118867266Y-62296103D01*
X118891765Y-62331403D01*
X119000590Y-62415352D01*
X119016902Y-62407588D01*
X118986515Y-62296103D01*
X118962015Y-62260803D01*
X118853190Y-62176854D01*
X118836879Y-62184618D01*
X117169967Y-62184618D01*
X116884116Y-62078991D01*
X116246764Y-62065713D01*
X115610288Y-62249911D01*
X115604155Y-62251686D01*
X115003379Y-62633269D01*
X114465299Y-63180428D01*
X113962132Y-63986625D01*
X113795442Y-64502206D01*
X113660901Y-64918351D01*
X113654394Y-64987138D01*
X113560693Y-65977718D01*
X111622191Y-65977718D01*
X111449601Y-65846895D01*
X111060499Y-65627597D01*
X110746806Y-65445675D01*
X110425245Y-65189384D01*
X112261588Y-65189384D01*
X112398017Y-65358189D01*
X112538962Y-65463494D01*
X112606702Y-65431879D01*
X112614213Y-65352580D01*
X112679085Y-65108204D01*
X112702854Y-64987138D01*
X112607551Y-64928617D01*
X112368205Y-65036340D01*
X112303714Y-65081607D01*
X112261588Y-65189384D01*
X110425245Y-65189384D01*
X110316848Y-65102989D01*
X110119769Y-64768648D01*
X110149563Y-64502206D01*
X112725951Y-64502206D01*
X112785576Y-64561831D01*
X112845200Y-64502206D01*
X112785576Y-64442582D01*
X112725951Y-64502206D01*
X110149563Y-64502206D01*
X110156646Y-64438862D01*
X110428556Y-64109837D01*
X110936574Y-63777783D01*
X111681777Y-63438907D01*
X111775621Y-63400892D01*
X112110553Y-63237773D01*
X112281908Y-63076821D01*
X112345539Y-62870179D01*
X112318983Y-62603509D01*
X112107042Y-62398038D01*
X111897127Y-62308712D01*
X111779751Y-62296103D01*
X113799191Y-62296103D01*
X113800558Y-62323090D01*
X113851777Y-62415352D01*
X113870906Y-62409865D01*
X113978064Y-62296103D01*
X113996697Y-62249911D01*
X113925477Y-62176854D01*
X113890863Y-62181437D01*
X113799191Y-62296103D01*
X111779751Y-62296103D01*
X111712336Y-62288861D01*
X111646826Y-62302049D01*
X111375742Y-62333851D01*
X110958142Y-62371174D01*
X110452947Y-62408425D01*
X109987329Y-62446718D01*
X109466908Y-62523411D01*
X109035275Y-62644116D01*
X108604590Y-62828810D01*
X108202221Y-63061303D01*
X107559457Y-63553939D01*
X106928828Y-64161841D01*
X106373291Y-64822177D01*
X105955807Y-65472119D01*
X105656251Y-66120283D01*
X105284163Y-67184863D01*
X104993671Y-68341280D01*
X104804590Y-69506244D01*
X104736734Y-70596465D01*
X104736280Y-71324526D01*
X105481585Y-71394184D01*
X105658415Y-71419050D01*
X106131934Y-71518134D01*
X106760545Y-71674981D01*
X107498939Y-71876044D01*
X108301805Y-72107779D01*
X109123834Y-72356639D01*
X109919715Y-72609079D01*
X110644138Y-72851554D01*
X111251795Y-73070518D01*
X111697373Y-73252424D01*
X111851553Y-73326620D01*
X112120421Y-73456007D01*
X112462402Y-73675172D01*
X112647904Y-73911220D01*
X112714724Y-74216560D01*
X112702854Y-74576979D01*
X112700660Y-74643602D01*
X112687231Y-74918383D01*
X112700865Y-75223321D01*
X112747800Y-75367353D01*
X112754697Y-75371882D01*
X112910990Y-75563829D01*
X113091913Y-75902210D01*
X113263363Y-76306982D01*
X113391240Y-76698099D01*
X113441444Y-76995519D01*
X113435494Y-77131454D01*
X113326741Y-77495008D01*
X113106642Y-77660945D01*
X112808581Y-77617090D01*
X112465945Y-77351267D01*
X112424617Y-77305524D01*
X112173392Y-76983215D01*
X111929551Y-76609918D01*
X111727163Y-76245974D01*
X111600296Y-75951723D01*
X111583022Y-75787507D01*
X111540944Y-75688776D01*
X111333495Y-75597708D01*
X111229910Y-75562030D01*
X110909559Y-75415111D01*
X110482793Y-75192224D01*
X110013135Y-74925700D01*
X109287521Y-74511160D01*
X108411619Y-74046869D01*
X107576369Y-73641337D01*
X107058661Y-73414457D01*
X109386984Y-73414457D01*
X109403706Y-73442024D01*
X109591327Y-73566742D01*
X109921152Y-73769127D01*
X110359844Y-74028150D01*
X110796995Y-74276549D01*
X111301575Y-74537584D01*
X111640644Y-74670548D01*
X111831441Y-74681620D01*
X111891209Y-74576979D01*
X111844532Y-74467057D01*
X111579362Y-74260998D01*
X111080671Y-74016549D01*
X110349524Y-73734204D01*
X109386984Y-73414457D01*
X107058661Y-73414457D01*
X106858229Y-73326620D01*
X109029238Y-73326620D01*
X109088862Y-73386244D01*
X109148486Y-73326620D01*
X109088862Y-73266995D01*
X109029238Y-73326620D01*
X106858229Y-73326620D01*
X106805335Y-73303440D01*
X106122080Y-73042051D01*
X105550166Y-72866044D01*
X105113158Y-72784294D01*
X104834618Y-72805675D01*
X104738111Y-72939061D01*
X104740898Y-72969764D01*
X104785890Y-73202784D01*
X104874302Y-73581974D01*
X104991170Y-74042112D01*
X105019073Y-74148686D01*
X105142487Y-74634646D01*
X105242690Y-75051433D01*
X105300185Y-75318511D01*
X105348361Y-75503137D01*
X105468750Y-75595838D01*
X105732806Y-75569790D01*
X106063364Y-75481501D01*
X106429654Y-75336819D01*
X106716063Y-75240162D01*
X107265037Y-75174186D01*
X107918396Y-75184646D01*
X108608026Y-75262885D01*
X109265814Y-75400248D01*
X109823648Y-75588076D01*
X110070871Y-75733733D01*
X110213412Y-75817714D01*
X110360918Y-75921731D01*
X110661541Y-76060935D01*
X110747040Y-76108590D01*
X110926990Y-76316036D01*
X111078708Y-76599220D01*
X111160905Y-76871663D01*
X111132290Y-77046884D01*
X111129451Y-77051415D01*
X111177704Y-77186174D01*
X111342181Y-77447746D01*
X111590602Y-77784200D01*
X111838439Y-78118435D01*
X112019970Y-78413744D01*
X112247791Y-78784355D01*
X112509970Y-79391893D01*
X112602251Y-79887642D01*
X112604083Y-79897482D01*
X112586788Y-80083407D01*
X112397515Y-80556722D01*
X112031572Y-81005408D01*
X111528848Y-81374667D01*
X111307308Y-81489490D01*
X111048307Y-81585055D01*
X110744564Y-81639737D01*
X110331548Y-81664184D01*
X109744731Y-81669042D01*
X109549662Y-81666813D01*
X108282730Y-81549409D01*
X107168458Y-81252786D01*
X106201104Y-80775498D01*
X105962117Y-80634287D01*
X105515151Y-80455478D01*
X105160086Y-80463154D01*
X104861819Y-80654132D01*
X104644124Y-80960120D01*
X104476443Y-81508121D01*
X104447084Y-82177530D01*
X103567802Y-82177530D01*
X103544703Y-81719196D01*
X103659900Y-80906123D01*
X103720490Y-80728800D01*
X103941473Y-80318898D01*
X104199131Y-79996044D01*
X110867511Y-79996044D01*
X110915580Y-80064178D01*
X111027246Y-80025310D01*
X111147578Y-79887642D01*
X111145026Y-79755241D01*
X111085428Y-79757415D01*
X110939610Y-79882423D01*
X110867511Y-79996044D01*
X104199131Y-79996044D01*
X104234128Y-79952192D01*
X104545775Y-79688386D01*
X104823729Y-79587183D01*
X104938316Y-79582577D01*
X105098533Y-79518961D01*
X105102140Y-79346148D01*
X104959552Y-79020700D01*
X104914730Y-78929650D01*
X104787438Y-78627052D01*
X104736280Y-78429105D01*
X104736262Y-78427312D01*
X104624147Y-78315741D01*
X104318909Y-78275446D01*
X104235790Y-78272628D01*
X103806328Y-78142603D01*
X103652228Y-77977324D01*
X105585748Y-77977324D01*
X105588072Y-78021044D01*
X105665263Y-78304128D01*
X105818615Y-78633192D01*
X105940393Y-78835975D01*
X106001590Y-78893860D01*
X105977747Y-78752441D01*
X105882942Y-78453679D01*
X105744880Y-78096573D01*
X105680940Y-77957074D01*
X105608967Y-77863094D01*
X105585748Y-77977324D01*
X103652228Y-77977324D01*
X103525297Y-77841185D01*
X103424543Y-77399562D01*
X103381069Y-77107839D01*
X103359262Y-77071794D01*
X104259285Y-77071794D01*
X104266599Y-77236302D01*
X104336710Y-77365884D01*
X104527594Y-77350989D01*
X104545743Y-77346022D01*
X104829193Y-77213836D01*
X105132988Y-77004407D01*
X105415136Y-76810606D01*
X105796835Y-76707924D01*
X106126671Y-76835624D01*
X106407205Y-77195034D01*
X106640995Y-77787484D01*
X106681790Y-77916190D01*
X107043265Y-78661520D01*
X107256314Y-78893860D01*
X107569901Y-79235841D01*
X108266027Y-79644097D01*
X108336853Y-79672734D01*
X108658866Y-79781604D01*
X108883410Y-79825681D01*
X108951799Y-79821410D01*
X108988091Y-79762431D01*
X108855625Y-79592996D01*
X108730606Y-79327887D01*
X108737737Y-78947540D01*
X108884742Y-78561820D01*
X109153112Y-78254024D01*
X109300071Y-78155585D01*
X109534109Y-78092824D01*
X109839875Y-78165663D01*
X109848364Y-78168674D01*
X110160335Y-78343010D01*
X110373605Y-78569780D01*
X110456456Y-78709623D01*
X110564395Y-78766540D01*
X110727751Y-78637307D01*
X110819829Y-78536801D01*
X110851246Y-78413744D01*
X110760862Y-78243613D01*
X110529639Y-77961458D01*
X110259217Y-77701703D01*
X109826468Y-77378202D01*
X109367744Y-77106680D01*
X109079214Y-76968839D01*
X108730135Y-76835654D01*
X108354375Y-76744204D01*
X107881357Y-76678416D01*
X107240505Y-76622218D01*
X106738382Y-76586703D01*
X106017907Y-76550056D01*
X105503246Y-76547647D01*
X105175021Y-76579687D01*
X105013854Y-76646385D01*
X104869999Y-76699898D01*
X104597156Y-76725211D01*
X104439168Y-76733791D01*
X104291971Y-76823104D01*
X104259285Y-77071794D01*
X103359262Y-77071794D01*
X103185172Y-76784045D01*
X103025129Y-76649983D01*
X102973362Y-76679459D01*
X102029323Y-76679459D01*
X101986699Y-76315146D01*
X101823240Y-75294225D01*
X101655456Y-74285783D01*
X101618346Y-73921015D01*
X102511175Y-73921015D01*
X102513907Y-73973549D01*
X102550774Y-74201695D01*
X102616413Y-74548920D01*
X102616851Y-74551123D01*
X102711487Y-74930765D01*
X102819044Y-75122187D01*
X102967313Y-75174976D01*
X103096340Y-75197076D01*
X103411336Y-75305204D01*
X103782289Y-75473098D01*
X103816913Y-75490619D01*
X104197250Y-75675846D01*
X104407108Y-75754256D01*
X104482249Y-75733733D01*
X104458436Y-75622159D01*
X104431602Y-75537006D01*
X104353330Y-75247193D01*
X104244681Y-74819180D01*
X104120565Y-74310839D01*
X104035669Y-73974580D01*
X103913214Y-73548498D01*
X103810022Y-73256569D01*
X103742159Y-73148163D01*
X103650881Y-73182699D01*
X103406714Y-73322621D01*
X103086291Y-73533456D01*
X102848443Y-73697344D01*
X102610741Y-73858096D01*
X102511175Y-73921015D01*
X101618346Y-73921015D01*
X101540346Y-73154312D01*
X101537789Y-72187523D01*
X101560675Y-72013647D01*
X102494059Y-72013647D01*
X102552213Y-72063437D01*
X102762495Y-72012414D01*
X103141080Y-71819164D01*
X103751984Y-71472364D01*
X103836482Y-70253013D01*
X103853612Y-70025238D01*
X104039763Y-68509169D01*
X104338442Y-67113052D01*
X104740842Y-65871040D01*
X105238155Y-64817285D01*
X105494999Y-64417606D01*
X105979685Y-63799699D01*
X106539743Y-63197945D01*
X107113123Y-62677364D01*
X107637772Y-62302972D01*
X107912531Y-62134367D01*
X108106133Y-61995550D01*
X108134871Y-61941433D01*
X108133008Y-61941410D01*
X107892866Y-62020175D01*
X107527797Y-62236123D01*
X107078512Y-62555675D01*
X106585725Y-62945253D01*
X106090145Y-63371277D01*
X105632485Y-63800168D01*
X105253455Y-64198348D01*
X104993769Y-64532236D01*
X104635229Y-65160171D01*
X104214090Y-66050266D01*
X103797624Y-67077026D01*
X103405703Y-68187471D01*
X103058199Y-69328621D01*
X102774986Y-70447496D01*
X102774167Y-70451149D01*
X102654225Y-71010970D01*
X102561443Y-71492093D01*
X102504996Y-71843368D01*
X102494059Y-72013647D01*
X101560675Y-72013647D01*
X101646661Y-71360364D01*
X101708092Y-71015668D01*
X101707774Y-70745286D01*
X101623555Y-70569129D01*
X101596961Y-70521964D01*
X101532652Y-70256970D01*
X101476073Y-69780861D01*
X101426315Y-69084528D01*
X101382465Y-68158860D01*
X101382078Y-68149084D01*
X101323584Y-66900042D01*
X101251255Y-65731112D01*
X101167587Y-64664916D01*
X101075075Y-63724078D01*
X100976213Y-62931219D01*
X100873498Y-62308962D01*
X100769423Y-61879931D01*
X100666483Y-61666746D01*
X100521226Y-61482625D01*
X100392377Y-61189751D01*
X100349525Y-60976986D01*
X100279908Y-60626620D01*
X100263245Y-60545714D01*
X100184390Y-60196236D01*
X100088070Y-59798866D01*
X100056901Y-59645507D01*
X100012345Y-59149057D01*
X100015487Y-59065079D01*
X101415173Y-59065079D01*
X101425447Y-59379815D01*
X101489400Y-59834474D01*
X101507240Y-59954494D01*
X101568212Y-60405530D01*
X101646753Y-61026637D01*
X101736976Y-61769674D01*
X101832995Y-62586498D01*
X101928923Y-63428967D01*
X102028608Y-64308533D01*
X102123941Y-65117036D01*
X102199487Y-65712127D01*
X102257151Y-66106652D01*
X102298836Y-66313459D01*
X102326448Y-66345396D01*
X102341889Y-66215311D01*
X102356744Y-66146034D01*
X102456681Y-65875819D01*
X102629241Y-65481766D01*
X102849340Y-65022822D01*
X102930835Y-64863304D01*
X103290074Y-64253538D01*
X103718174Y-63689452D01*
X104280326Y-63082660D01*
X104601355Y-62750105D01*
X104918315Y-62401663D01*
X105133786Y-62140408D01*
X105213275Y-62006142D01*
X105214909Y-61973192D01*
X105256890Y-61878732D01*
X108313745Y-61878732D01*
X108373369Y-61938357D01*
X108432993Y-61878732D01*
X108373369Y-61819108D01*
X108313745Y-61878732D01*
X105256890Y-61878732D01*
X105344034Y-61682649D01*
X105633558Y-61411909D01*
X106018575Y-61224011D01*
X106037961Y-61218010D01*
X106469262Y-61057428D01*
X106883901Y-60865622D01*
X106948211Y-60833569D01*
X111992475Y-60833569D01*
X112018963Y-61027407D01*
X112154886Y-61269717D01*
X112457641Y-61503469D01*
X112904824Y-61787548D01*
X113241908Y-61505206D01*
X113271393Y-61481366D01*
X113581909Y-61298023D01*
X113866364Y-61222864D01*
X113926733Y-61219776D01*
X114148105Y-61114216D01*
X114184545Y-61052652D01*
X115264810Y-61052652D01*
X115322507Y-61243644D01*
X115396454Y-61293734D01*
X115528299Y-61222864D01*
X115553289Y-61154577D01*
X115535818Y-61096744D01*
X117257407Y-61096744D01*
X117294693Y-61154577D01*
X117301693Y-61165434D01*
X117493836Y-61256875D01*
X117564294Y-61273544D01*
X117670188Y-61255138D01*
X117607101Y-61088570D01*
X117484779Y-60956311D01*
X117329978Y-60945279D01*
X117257407Y-61096744D01*
X115535818Y-61096744D01*
X115495593Y-60963585D01*
X115421646Y-60913495D01*
X115289801Y-60984366D01*
X115264810Y-61052652D01*
X114184545Y-61052652D01*
X114321613Y-60821078D01*
X114323301Y-60817057D01*
X114545014Y-60463739D01*
X116324510Y-60463739D01*
X116422665Y-60507371D01*
X116485795Y-60498765D01*
X116502164Y-60427871D01*
X116484686Y-60413600D01*
X116343166Y-60427871D01*
X116324510Y-60463739D01*
X114545014Y-60463739D01*
X114573335Y-60418607D01*
X114908632Y-60137082D01*
X115260453Y-60030375D01*
X115393392Y-60012757D01*
X115493302Y-59919040D01*
X115567289Y-59695581D01*
X115642941Y-59288904D01*
X115766786Y-58874777D01*
X116023347Y-58577949D01*
X116404649Y-58480141D01*
X116517063Y-58484435D01*
X116921134Y-58609797D01*
X117173211Y-58914537D01*
X117280777Y-59406569D01*
X117289569Y-59529013D01*
X117334637Y-59819712D01*
X117430842Y-59958228D01*
X117615153Y-60011436D01*
X117820307Y-60063443D01*
X118208592Y-60334577D01*
X118268987Y-60427871D01*
X118528672Y-60829012D01*
X118536570Y-60845342D01*
X118728682Y-61117695D01*
X118931328Y-61222864D01*
X118966932Y-61226107D01*
X119039610Y-61255138D01*
X119216160Y-61325661D01*
X119501387Y-61520986D01*
X119570438Y-61578404D01*
X119788943Y-61749755D01*
X119898095Y-61818322D01*
X119906547Y-61816262D01*
X120049874Y-61738604D01*
X120295355Y-61583634D01*
X120377875Y-61526938D01*
X120646020Y-61270264D01*
X120782555Y-60944920D01*
X120826490Y-60469041D01*
X120827330Y-60417752D01*
X120819196Y-60163159D01*
X120767699Y-60103488D01*
X120647480Y-60200731D01*
X120553851Y-60286514D01*
X120364598Y-60372511D01*
X120158351Y-60294580D01*
X119871708Y-60039548D01*
X119653008Y-59778419D01*
X119548810Y-59498298D01*
X119523134Y-59093321D01*
X119528150Y-58905646D01*
X119569102Y-58494740D01*
X119637827Y-58194003D01*
X119688666Y-57973213D01*
X119651608Y-57829974D01*
X119650832Y-57829473D01*
X119579737Y-57685833D01*
X119490700Y-57374197D01*
X119402803Y-56961198D01*
X119397734Y-56934001D01*
X119277690Y-56399746D01*
X119110264Y-55779072D01*
X118930051Y-55200798D01*
X118689719Y-54467895D01*
X118503184Y-53816918D01*
X118403674Y-53333978D01*
X118385902Y-52992556D01*
X118444579Y-52766129D01*
X118562458Y-52612272D01*
X118741847Y-52517699D01*
X118783640Y-52473777D01*
X118776147Y-52292107D01*
X118700784Y-51949836D01*
X118552746Y-51425879D01*
X118327224Y-50699155D01*
X118083838Y-49929012D01*
X117809566Y-49037550D01*
X117603168Y-48327095D01*
X117458720Y-47771884D01*
X117370298Y-47346155D01*
X117331978Y-47024146D01*
X117337837Y-46780095D01*
X117381950Y-46588239D01*
X117395623Y-46547408D01*
X117457324Y-46135311D01*
X117392061Y-45621155D01*
X117353866Y-45406835D01*
X117290539Y-44927746D01*
X117230733Y-44344771D01*
X117183528Y-43739817D01*
X117135885Y-43132241D01*
X117078138Y-42699838D01*
X117005254Y-42435091D01*
X116910374Y-42301890D01*
X116890414Y-42284843D01*
X116834751Y-42196124D01*
X116791128Y-42034813D01*
X116757537Y-41773261D01*
X116731976Y-41383816D01*
X116712439Y-40838826D01*
X116696921Y-40110640D01*
X116683417Y-39171608D01*
X116670886Y-38306021D01*
X116666605Y-38106142D01*
X118102129Y-38106142D01*
X118121834Y-38514671D01*
X118173295Y-38747202D01*
X118262748Y-38844033D01*
X118271939Y-38848104D01*
X118338502Y-38929659D01*
X118385263Y-39117939D01*
X118415426Y-39445861D01*
X118432194Y-39946343D01*
X118438773Y-40652302D01*
X118440208Y-40920368D01*
X118447936Y-41511921D01*
X118460616Y-41998311D01*
X118476870Y-42335094D01*
X118495321Y-42477824D01*
X118495924Y-42478867D01*
X118536398Y-42628065D01*
X118607148Y-42962322D01*
X118698377Y-43433002D01*
X118800285Y-43991468D01*
X118804592Y-44015622D01*
X118916706Y-44598140D01*
X119072021Y-45344626D01*
X119256567Y-46190952D01*
X119456378Y-47072992D01*
X119657482Y-47926620D01*
X119879444Y-48873356D01*
X120045863Y-49647558D01*
X120152530Y-50237466D01*
X120203505Y-50665623D01*
X120202849Y-50954576D01*
X120194382Y-51178660D01*
X120229067Y-51500566D01*
X120321452Y-51920484D01*
X120480953Y-52479901D01*
X120716983Y-53220304D01*
X121165723Y-54653178D01*
X121595534Y-56224863D01*
X121900131Y-57619215D01*
X122082155Y-58848644D01*
X122144246Y-59925558D01*
X122145718Y-60417752D01*
X122146608Y-60715106D01*
X123241842Y-60800784D01*
X123355194Y-60810446D01*
X124038940Y-60898449D01*
X124710991Y-61029235D01*
X125314771Y-61188267D01*
X125793703Y-61361006D01*
X126091209Y-61532917D01*
X126117747Y-61556046D01*
X126279320Y-61659415D01*
X126440115Y-61648386D01*
X126654335Y-61502696D01*
X126976186Y-61202081D01*
X127174897Y-61025644D01*
X127511123Y-60788412D01*
X127782662Y-60666030D01*
X127881534Y-60638307D01*
X128080186Y-60500685D01*
X128191003Y-60241645D01*
X128224286Y-59824460D01*
X128190335Y-59212400D01*
X128012334Y-58090295D01*
X127597361Y-56747474D01*
X126983985Y-55472477D01*
X126414939Y-54640938D01*
X127612990Y-54640938D01*
X127673515Y-54790556D01*
X127859093Y-55105985D01*
X128026838Y-55401677D01*
X128390444Y-56192387D01*
X128706862Y-57080416D01*
X128939267Y-57968188D01*
X129002853Y-58377880D01*
X129050471Y-59125295D01*
X129043102Y-59824460D01*
X129041780Y-59949928D01*
X128980930Y-60773684D01*
X128872072Y-61518466D01*
X128719356Y-62106175D01*
X128466735Y-62810613D01*
X128973573Y-63454915D01*
X129233085Y-63791881D01*
X129522070Y-64182240D01*
X129729691Y-64479585D01*
X129880005Y-64743088D01*
X130087784Y-65168408D01*
X130285574Y-65626877D01*
X130592178Y-66393801D01*
X130655514Y-65865374D01*
X130655715Y-65863699D01*
X130690829Y-65536946D01*
X130739449Y-65040241D01*
X130795176Y-64440778D01*
X130851614Y-63805751D01*
X130903463Y-63268551D01*
X130998267Y-62433798D01*
X131106596Y-61599397D01*
X131213725Y-60884154D01*
X131320214Y-60223582D01*
X131397743Y-59655828D01*
X131425569Y-59231068D01*
X131399283Y-58900551D01*
X131314474Y-58615523D01*
X131166732Y-58327231D01*
X130951646Y-57986922D01*
X130893113Y-57901606D01*
X130608995Y-57537508D01*
X130219147Y-57084456D01*
X129760800Y-56581068D01*
X129271185Y-56065958D01*
X128787534Y-55577742D01*
X128347076Y-55155038D01*
X127987044Y-54836461D01*
X127744667Y-54660627D01*
X127669300Y-54625152D01*
X127612990Y-54640938D01*
X126414939Y-54640938D01*
X126193350Y-54317134D01*
X125874698Y-53887232D01*
X125647843Y-53501943D01*
X125558902Y-53232745D01*
X125557001Y-53208193D01*
X125470044Y-52969448D01*
X125237077Y-52683615D01*
X124828512Y-52313452D01*
X124383118Y-51927716D01*
X123432146Y-51026205D01*
X122538009Y-50076832D01*
X121750985Y-49134643D01*
X121121352Y-48254686D01*
X120818538Y-47769431D01*
X120450245Y-47121393D01*
X120131265Y-46470904D01*
X119853136Y-45788548D01*
X119607400Y-45044906D01*
X119385597Y-44210562D01*
X119179265Y-43256098D01*
X118979947Y-42152097D01*
X118779180Y-40869141D01*
X118568506Y-39377814D01*
X118543783Y-39197042D01*
X118421233Y-38336195D01*
X118321369Y-37705747D01*
X118242480Y-37299928D01*
X118182851Y-37112967D01*
X118140769Y-37139093D01*
X118114523Y-37372536D01*
X118102398Y-37807523D01*
X118102129Y-38106142D01*
X116666605Y-38106142D01*
X116654787Y-37554288D01*
X116634726Y-36994291D01*
X116618083Y-36739675D01*
X119486707Y-36739675D01*
X119573089Y-37265072D01*
X119579943Y-37307782D01*
X119628444Y-37631021D01*
X119701218Y-38135996D01*
X119791943Y-38778043D01*
X119894297Y-39512497D01*
X120001955Y-40294695D01*
X120179030Y-41525531D01*
X120367110Y-42663033D01*
X120561072Y-43630336D01*
X120771082Y-44462762D01*
X121007306Y-45195631D01*
X121279909Y-45864266D01*
X121599057Y-46503987D01*
X121974914Y-47150117D01*
X121986532Y-47168934D01*
X122437242Y-47856389D01*
X122928190Y-48516771D01*
X123482011Y-49172794D01*
X124121342Y-49847173D01*
X124868817Y-50562622D01*
X125747072Y-51341855D01*
X126778743Y-52207586D01*
X127986466Y-53182529D01*
X128176901Y-53335201D01*
X128775738Y-53827821D01*
X129362341Y-54326793D01*
X129877825Y-54781462D01*
X130263308Y-55141173D01*
X130402621Y-55279522D01*
X130793133Y-55682571D01*
X131132595Y-56053258D01*
X131360010Y-56325702D01*
X131667147Y-56735114D01*
X131863757Y-56027580D01*
X132141680Y-55058130D01*
X132757827Y-53127235D01*
X133415648Y-51375041D01*
X134135840Y-49760907D01*
X134939102Y-48244192D01*
X135846130Y-46784257D01*
X136877622Y-45340459D01*
X138054275Y-43872159D01*
X138131063Y-43780324D01*
X138485584Y-43341849D01*
X138762581Y-42975308D01*
X138935791Y-42716768D01*
X138978952Y-42602294D01*
X138912464Y-42553429D01*
X138646888Y-42397335D01*
X138224936Y-42168810D01*
X137684450Y-41886859D01*
X137063273Y-41570490D01*
X136399247Y-41238707D01*
X135730213Y-40910516D01*
X135094014Y-40604924D01*
X134528493Y-40340937D01*
X134071491Y-40137560D01*
X133777074Y-40013730D01*
X132911657Y-39667101D01*
X131952096Y-39303271D01*
X130943352Y-38937655D01*
X129930385Y-38585669D01*
X128958154Y-38262727D01*
X128071620Y-37984244D01*
X127315742Y-37765637D01*
X126735480Y-37622318D01*
X125930379Y-37464272D01*
X124654275Y-37249581D01*
X123329858Y-37062840D01*
X122049630Y-36916719D01*
X120906094Y-36823889D01*
X119486707Y-36739675D01*
X116618083Y-36739675D01*
X116609050Y-36601477D01*
X116576101Y-36351294D01*
X116534226Y-36219189D01*
X116481769Y-36180610D01*
X116416977Y-36189061D01*
X116241153Y-36304128D01*
X116232939Y-36337506D01*
X116212915Y-36573662D01*
X116205317Y-36740452D01*
X116193235Y-37005695D01*
X116174747Y-37603490D01*
X116160932Y-38219331D01*
X116158294Y-38336930D01*
X116144722Y-39175898D01*
X116134877Y-40090279D01*
X116132097Y-40402707D01*
X116112012Y-41768459D01*
X116075325Y-42968252D01*
X116014934Y-44040863D01*
X115923737Y-45025070D01*
X115794632Y-45959651D01*
X115620519Y-46883385D01*
X115394296Y-47835050D01*
X115108862Y-48853423D01*
X114757114Y-49977282D01*
X114331952Y-51245406D01*
X113826275Y-52696573D01*
X113227543Y-54471599D01*
X112743126Y-56081997D01*
X112379929Y-57512221D01*
X112135433Y-58773443D01*
X112007121Y-59876835D01*
X111992475Y-60833569D01*
X106948211Y-60833569D01*
X106959499Y-60827943D01*
X107509926Y-60636481D01*
X108206756Y-60494464D01*
X108973817Y-60414124D01*
X109734938Y-60407697D01*
X109799507Y-60410863D01*
X110178244Y-60427582D01*
X110426944Y-60405368D01*
X110577418Y-60304662D01*
X110661480Y-60085906D01*
X110710941Y-59709541D01*
X110757613Y-59136009D01*
X110769883Y-58998652D01*
X110899831Y-58040974D01*
X111115202Y-56924278D01*
X111404388Y-55698450D01*
X111755781Y-54413372D01*
X112157773Y-53118929D01*
X112311292Y-52649406D01*
X112509208Y-52017640D01*
X112638021Y-51555675D01*
X112705698Y-51229492D01*
X112720206Y-51005069D01*
X112689513Y-50848385D01*
X112667806Y-50765460D01*
X112660006Y-50554631D01*
X112696493Y-50237283D01*
X112782596Y-49782721D01*
X112923639Y-49160250D01*
X113124951Y-48339174D01*
X113346971Y-47414209D01*
X113636794Y-46078655D01*
X113891785Y-44751645D01*
X114102334Y-43487785D01*
X114258835Y-42341680D01*
X114351676Y-41367934D01*
X114366479Y-41177414D01*
X114426828Y-40660443D01*
X114505071Y-40224577D01*
X114588112Y-39948439D01*
X114613366Y-39887556D01*
X114690687Y-39533414D01*
X114732691Y-38984230D01*
X114741207Y-38219331D01*
X114729234Y-36836479D01*
X114561523Y-37603517D01*
X114520504Y-37812259D01*
X114437413Y-38310239D01*
X114342463Y-38948584D01*
X114244438Y-39667168D01*
X114152122Y-40405864D01*
X114117084Y-40694594D01*
X113926004Y-42054511D01*
X113707103Y-43236675D01*
X113446374Y-44291743D01*
X113129809Y-45270372D01*
X112743401Y-46223220D01*
X112273140Y-47200944D01*
X112089998Y-47548101D01*
X111590242Y-48400134D01*
X111033412Y-49207130D01*
X110394600Y-49996477D01*
X109648898Y-50795561D01*
X108771398Y-51631770D01*
X107737191Y-52532491D01*
X106521368Y-53525110D01*
X106236538Y-53753467D01*
X105089309Y-54705303D01*
X104080936Y-55596084D01*
X103224305Y-56413079D01*
X102532306Y-57143556D01*
X102017825Y-57774785D01*
X101693751Y-58294034D01*
X101606077Y-58475322D01*
X101471182Y-58795252D01*
X101415173Y-59065079D01*
X100015487Y-59065079D01*
X100030498Y-58663919D01*
X100052212Y-58416484D01*
X100046505Y-57961752D01*
X99981399Y-57431670D01*
X99850154Y-56789499D01*
X99646028Y-55998498D01*
X99362280Y-55021925D01*
X98973088Y-53798677D01*
X98314873Y-52003561D01*
X97615240Y-50409629D01*
X96881610Y-49034795D01*
X96750418Y-48815421D01*
X96398379Y-48243862D01*
X96040230Y-47692453D01*
X95654729Y-47132396D01*
X95220634Y-46534893D01*
X94716702Y-45871149D01*
X94121691Y-45112367D01*
X93414360Y-44229749D01*
X92573465Y-43194499D01*
X92465347Y-43054533D01*
X92286002Y-42777720D01*
X92227262Y-42627162D01*
X93884637Y-42627162D01*
X93933654Y-42712761D01*
X94110304Y-42959931D01*
X94392692Y-43334307D01*
X94756673Y-43803971D01*
X95178103Y-44337005D01*
X95689129Y-44986389D01*
X96643435Y-46263786D01*
X97471001Y-47480271D01*
X98193206Y-48678459D01*
X98831428Y-49900966D01*
X99407046Y-51190405D01*
X99941439Y-52589394D01*
X100455984Y-54140547D01*
X100972061Y-55886479D01*
X101062473Y-56196108D01*
X101148531Y-56464963D01*
X101191958Y-56566081D01*
X101195328Y-56563886D01*
X101306235Y-56459552D01*
X101547504Y-56222238D01*
X101886773Y-55883997D01*
X102291679Y-55476884D01*
X102311545Y-55456904D01*
X102756726Y-55030849D01*
X103337302Y-54505153D01*
X104002956Y-53923799D01*
X104703374Y-53330771D01*
X105388239Y-52770052D01*
X105612938Y-52589324D01*
X106662023Y-51731019D01*
X107545824Y-50977014D01*
X108290008Y-50300761D01*
X108920238Y-49675710D01*
X109462180Y-49075313D01*
X109941499Y-48473022D01*
X110383860Y-47842288D01*
X110814928Y-47156563D01*
X110831380Y-47129131D01*
X111280723Y-46321902D01*
X111660750Y-45504753D01*
X111982503Y-44639591D01*
X112257023Y-43688322D01*
X112495351Y-42612854D01*
X112708530Y-41375094D01*
X112907600Y-39936948D01*
X112918823Y-39848328D01*
X113017248Y-39097030D01*
X113113094Y-38407385D01*
X113199885Y-37823178D01*
X113271144Y-37388192D01*
X113320394Y-37146212D01*
X113432271Y-36740452D01*
X111916435Y-36815898D01*
X111101013Y-36874141D01*
X109976538Y-36993778D01*
X108771436Y-37156238D01*
X107565475Y-37349578D01*
X106438425Y-37561853D01*
X105470052Y-37781121D01*
X104972522Y-37915978D01*
X104026194Y-38204162D01*
X102939153Y-38566359D01*
X101758006Y-38986305D01*
X100529359Y-39447736D01*
X99299816Y-39934386D01*
X99244409Y-39957029D01*
X98671062Y-40201444D01*
X98018116Y-40494592D01*
X97318535Y-40820081D01*
X96605283Y-41161519D01*
X95911323Y-41502516D01*
X95269619Y-41826679D01*
X94713135Y-42117617D01*
X94274834Y-42358938D01*
X93987680Y-42534250D01*
X93884637Y-42627162D01*
X92227262Y-42627162D01*
X92215153Y-42596124D01*
X92193151Y-42544048D01*
X92033602Y-42336561D01*
X91746992Y-42016914D01*
X91365737Y-41617498D01*
X90922250Y-41170703D01*
X90448949Y-40708921D01*
X89978248Y-40264543D01*
X89542562Y-39869961D01*
X89174308Y-39557564D01*
X88904104Y-39351401D01*
X88421163Y-39017448D01*
X87981820Y-38748679D01*
X87764233Y-38627875D01*
X87302613Y-38368321D01*
X86908580Y-38143063D01*
X86614095Y-37984777D01*
X86003872Y-37707977D01*
X85380856Y-37477030D01*
X84851538Y-37333829D01*
X84463979Y-37259812D01*
X83595128Y-37259812D01*
X83596899Y-37217263D01*
X83628133Y-36982414D01*
X83680509Y-36832006D01*
X83758788Y-36728415D01*
X83867735Y-36634016D01*
X83964448Y-36561736D01*
X84180964Y-36461935D01*
X84471291Y-36429917D01*
X84916107Y-36451649D01*
X84972194Y-36456480D01*
X85380421Y-36517756D01*
X85800973Y-36637849D01*
X86297604Y-36838560D01*
X86934073Y-37141691D01*
X87241193Y-37296507D01*
X88185952Y-37810021D01*
X89025246Y-38338212D01*
X89820664Y-38925518D01*
X90633794Y-39616380D01*
X91526224Y-40455238D01*
X93043399Y-41932691D01*
X93493830Y-41699344D01*
X93904757Y-41487698D01*
X96160771Y-40371244D01*
X98322521Y-39379186D01*
X100373176Y-38518300D01*
X102295907Y-37795358D01*
X104073882Y-37217136D01*
X105690270Y-36790407D01*
X105736306Y-36779969D01*
X106757460Y-36570837D01*
X107897250Y-36373539D01*
X109097273Y-36195466D01*
X110299126Y-36044011D01*
X111444404Y-35926566D01*
X112474704Y-35850522D01*
X113331623Y-35823271D01*
X114116169Y-35822864D01*
X114389681Y-35238904D01*
X114489930Y-35002639D01*
X114583122Y-34701349D01*
X114588085Y-34533418D01*
X114566350Y-34381805D01*
X114624698Y-34118043D01*
X114670235Y-33924154D01*
X114603316Y-33729318D01*
X114376408Y-33481980D01*
X114326649Y-33433195D01*
X114048269Y-33113923D01*
X113845107Y-32811831D01*
X113673817Y-32483897D01*
X114169234Y-32483897D01*
X114471367Y-32508478D01*
X114782370Y-32631717D01*
X115126630Y-32901267D01*
X115232694Y-32995789D01*
X115465711Y-33175156D01*
X115693714Y-33271811D01*
X115997843Y-33311167D01*
X116459240Y-33318638D01*
X116695587Y-33317729D01*
X117068475Y-33300611D01*
X117314864Y-33242201D01*
X117511319Y-33117440D01*
X117734402Y-32901267D01*
X118015995Y-32645677D01*
X118292764Y-32515775D01*
X118655223Y-32483897D01*
X119171512Y-32483897D01*
X119000223Y-32811831D01*
X118972287Y-32861784D01*
X118746843Y-33176888D01*
X118465661Y-33485105D01*
X118299213Y-33656936D01*
X118181399Y-33862515D01*
X118216517Y-34043697D01*
X118298150Y-34308221D01*
X118335644Y-34652348D01*
X118336650Y-34683516D01*
X118409042Y-35072350D01*
X118558995Y-35457742D01*
X118680977Y-35668480D01*
X118823362Y-35801724D01*
X119042318Y-35847280D01*
X119418551Y-35841146D01*
X119526837Y-35838337D01*
X120074160Y-35851258D01*
X120799767Y-35898111D01*
X121658600Y-35974204D01*
X122605602Y-36074844D01*
X123595715Y-36195339D01*
X124583880Y-36330996D01*
X125525042Y-36477122D01*
X126243767Y-36610302D01*
X127789347Y-36973142D01*
X129457025Y-37453369D01*
X131200870Y-38034246D01*
X132974950Y-38699039D01*
X134733335Y-39431012D01*
X136430091Y-40213428D01*
X138019289Y-41029552D01*
X138497008Y-41280911D01*
X138937603Y-41495467D01*
X139267264Y-41637047D01*
X139437688Y-41683384D01*
X139608531Y-41671420D01*
X139914684Y-41666016D01*
X140081300Y-41626142D01*
X140339942Y-41463692D01*
X140694226Y-41156575D01*
X141170783Y-40683973D01*
X141387377Y-40463625D01*
X141929868Y-39933186D01*
X142426356Y-39476889D01*
X142847734Y-39119858D01*
X143164896Y-38887215D01*
X143348734Y-38804084D01*
X143432741Y-38776517D01*
X143609279Y-38627764D01*
X143772948Y-38476463D01*
X144122482Y-38217414D01*
X144590631Y-37905261D01*
X145127038Y-37572154D01*
X145681349Y-37250242D01*
X146203206Y-36971674D01*
X146241128Y-36952756D01*
X146914691Y-36672063D01*
X147568482Y-36494141D01*
X148156711Y-36424626D01*
X148633591Y-36469148D01*
X148953331Y-36633342D01*
X149103214Y-36837287D01*
X149210463Y-37131005D01*
X149247234Y-37373098D01*
X149272541Y-37539718D01*
G37*
G04 #@! TD*
M02*
